<svg width="353" height="369" viewBox="0 0 353 369" fill="none" xmlns="http://www.w3.org/2000/svg">
<path d="M195.652 246.245L196.153 247.831L195.569 250.289L196.32 252.668L195.569 254.572L195.903 256.316L186.137 256.237L185.469 272.493L188.474 276.616L191.479 279.788L182.798 281.85L171.529 281.136L168.358 278.758L149.41 278.916L148.742 279.313L145.988 277.013L142.983 276.854L140.145 277.727L137.891 278.678L137.474 275.506L138.225 270.986L139.894 266.308L140.145 264.167L141.731 259.567L142.899 257.506L145.654 254.175L147.24 251.875L147.741 248.148L147.49 245.214L146.155 243.391L144.903 240.298L143.817 237.285L144.068 236.174L145.487 234.192L144.151 229.275L143.15 225.866L140.813 222.614L141.313 221.663L143.233 220.949L144.652 221.028L146.322 220.473L160.261 220.553L161.346 224.28L162.682 227.372L163.767 229.038L165.52 231.654L168.691 231.258L170.194 230.544L172.781 231.258L173.533 229.989L174.785 227.055L177.706 226.817L177.957 225.945H180.377L179.96 227.769L185.636 227.689L185.719 230.941L186.637 232.844L185.886 235.936L186.22 239.108L187.722 241.012L187.389 247.038L188.557 246.562L190.56 246.721L193.482 245.928L195.652 246.245Z" fill="#ABCAEB" stroke="#7A98B5" stroke-linecap="round" stroke-linejoin="round"/>
<path d="M140.646 220.077L139.394 216.271L141.313 214.05L142.732 213.178L144.485 214.922L142.816 216.033L141.981 217.301L141.814 219.522L140.646 220.077Z" fill="#ABCAEB" stroke="#7A98B5" stroke-linecap="round" stroke-linejoin="round"/>
<path d="M223.781 213.257L223.281 213.336V213.099L221.611 208.261L221.603 208.214L221.528 207.389L220.359 205.089L223.281 205.486L224.7 202.552L227.287 202.869L227.538 204.852L228.539 206.041V207.706L227.371 208.737L225.451 211.433L223.781 213.257Z" fill="#ABCAEB" stroke="#7A98B5" stroke-linecap="round" stroke-linejoin="round"/>
<path d="M100.079 131.263L99.9124 132.928L100.998 135.941L100.079 138.003L100.58 139.351L98.2431 142.523L96.8241 144.109L95.9059 147.281L96.0729 150.532L95.8224 158.7L91.8994 159.334L90.7308 155.845L90.9812 144.109L89.9795 143.078L89.8126 140.541L88.1432 138.796L86.7242 137.289L87.3085 134.593L88.9779 134.038L89.8961 131.818L92.2332 131.342L93.2349 129.835L94.8208 128.329H96.4902L100.079 131.263Z" fill="#ABCAEB" stroke="#7A98B5" stroke-linecap="round" stroke-linejoin="round"/>
<path d="M84.8878 114.61L84.4705 117.068L85.1382 119.368L87.7258 122.699L87.8927 125.157L93.3183 126.346L93.2348 129.835L92.2332 131.342L89.896 131.818L88.9779 134.038L87.3085 134.593L83.2184 134.514L81.0482 134.118L79.5458 134.911L77.459 134.514L69.279 134.752L69.112 137.686L69.7798 141.492L66.5245 140.223L64.3543 140.382L62.6849 141.651L60.5982 140.62L59.7635 138.875L57.6767 137.765L57.3428 134.831L58.6783 132.69L58.5114 130.946L62.2676 126.743L63.0188 123.254L64.2708 121.985L66.5245 122.699L68.5278 121.668L69.1955 120.32L72.7847 118.099L73.7029 116.513L78.1268 114.372L80.7143 113.659L81.8829 114.61H84.8878Z" fill="#ABCAEB" stroke="#7A98B5" stroke-linecap="round" stroke-linejoin="round"/>
<path d="M200.994 280.899L202.58 284.943L203.498 285.894L204.834 288.828L209.925 294.379L211.845 294.934L211.762 296.758L213.014 300.009L216.603 300.802L219.441 303.102L212.68 306.829L208.34 310.635L206.67 314.045L205.168 315.948L202.664 316.345L201.662 318.803L201.161 320.389L198.156 321.499L194.4 321.261L192.313 319.834L190.394 319.279L188.056 320.389L186.804 322.847L184.551 324.354L182.213 326.654L178.875 327.209L177.957 325.385L178.457 322.292L175.953 317.455L174.785 316.662L175.286 301.833L179.876 301.675L180.544 283.515L184.05 283.357L191.312 281.533L192.981 283.674L196.069 281.692H197.488L200.159 280.502L200.994 280.899Z" fill="#ABCAEB" stroke="#7A98B5" stroke-linecap="round" stroke-linejoin="round"/>
<path d="M195.736 146.726L198.991 148.708L201.579 150.77L201.662 152.435L204.917 155.052L206.921 157.273L208.089 160.286L211.678 162.348L212.43 163.934L210.927 164.489L207.839 164.409L204.333 163.854L202.58 164.251L201.829 165.52L200.327 165.678L198.49 164.568L193.232 167.106L191.061 166.63L190.394 167.026L189.058 170.119L185.469 169.088L182.047 168.612L179.042 166.709L175.119 164.965L172.615 166.63L170.778 169.167L170.361 172.736L167.356 172.498L164.101 171.626L161.346 174.322L158.842 179.08L158.341 177.573L158.091 175.273L155.921 173.608L154.168 170.991L153.75 169.167L151.497 166.471L151.914 164.965L151.413 162.823L151.747 158.859L152.916 157.986L155.253 152.832L159.092 152.435L159.927 151.087L160.762 151.246L161.93 152.356L167.857 150.453L169.86 148.471L172.281 146.647L171.78 144.902L173.115 144.426L177.706 144.743L182.047 142.365L185.385 136.814L187.723 134.752L190.728 133.88L191.312 136.021L194.066 139.193V141.334L193.399 143.395L193.732 144.981L195.318 146.488L195.736 146.726Z" fill="#ABCAEB" stroke="#7A98B5" stroke-linecap="round" stroke-linejoin="round"/>
<path d="M57.6767 137.765L59.7635 138.875L60.5982 140.62L62.6849 141.651L64.3543 140.382L66.5245 140.223L69.7798 141.492L71.0319 148.788L69.0286 152.99L67.7765 158.779L69.7798 163.141L69.6129 165.202H67.4426L64.1874 164.251H61.099L55.5065 165.202L52.2512 166.63L47.5769 168.533L46.6587 168.374L46.9926 164.172L47.4934 163.537L47.3265 161.555L45.3232 159.414L43.8207 159.096L42.4852 157.669L43.4869 155.369L43.0695 152.911L43.2364 151.484H43.9877L44.3216 149.263L43.9877 148.233L44.405 147.519L46.1579 146.964L44.9893 142.84L43.9042 140.779L44.3216 139.034L45.2397 138.638L45.9075 138.162L47.1595 138.955H50.8322L51.6669 137.527L52.5016 137.607L53.8371 137.052L54.5883 139.193L55.6734 138.558L57.6767 137.765Z" fill="#ABCAEB" stroke="#7A98B5" stroke-linecap="round" stroke-linejoin="round"/>
<path d="M155.253 152.832L152.916 157.986L151.747 158.859L151.413 162.823L151.914 164.965L151.497 166.471L153.75 169.167L154.168 170.991L155.921 173.608L158.091 175.273L158.341 177.573L158.842 179.08L158.508 181.776L154.752 180.586L150.912 179.238L144.986 179.08L144.402 178.762L141.564 179.397L138.726 178.762L136.472 179.08L128.709 179L129.461 174.956L127.541 171.546L125.371 170.753L124.453 168.454L123.201 167.74L123.284 166.313L124.453 162.665L126.706 157.748H128.042L130.88 154.735L132.633 154.656L135.304 156.797L138.559 155.052L138.976 152.911L140.061 150.849L140.729 148.312L143.233 146.25L144.151 142.682L145.153 141.492L145.821 138.875L146.989 135.624L150.912 131.659L151.163 129.994L151.664 129.042L149.744 127.06L149.911 125.395L151.163 125.157L153.083 128.408L153.5 131.739L153.333 135.148L156.004 139.748H153.333L151.998 140.065L149.827 139.589L148.826 141.968L151.664 144.981L153.75 145.854L154.418 147.915L155.921 151.405L155.253 152.832Z" fill="#ABCAEB" stroke="#7A98B5" stroke-linecap="round" stroke-linejoin="round"/>
<path d="M212.43 163.934L215.351 168.136L217.521 168.771L218.773 167.899L220.943 168.216L223.531 167.185L224.7 169.326L228.957 172.736L228.706 178.683L230.626 179.397L229.04 181.141L227.287 182.569L225.451 185.186L224.449 187.565L224.199 191.609L223.114 193.591L223.03 197.398L221.695 198.825L221.528 201.838L220.86 202.235L220.359 205.089L221.528 207.389L221.611 208.182L220.61 216.35L221.862 219.205L221.027 221.346L222.529 224.993L225.367 227.769L225.952 230.544L227.287 231.892L227.037 232.765L226.286 232.527L219.858 233.399L218.606 234.033L217.187 237.285L218.189 239.505L217.271 245.532L216.52 250.607L217.772 251.558L221.027 253.541L222.362 252.589L222.529 258.061H218.94L217.104 255.285L215.434 253.065L211.845 252.351L210.844 249.734L207.922 251.32L204.249 250.607L202.664 248.307L199.742 247.831L197.488 247.91L197.238 246.325L195.652 246.245L193.482 245.928L190.56 246.721L188.557 246.562L187.389 247.038L187.722 241.012L186.22 239.108L185.886 235.936L186.637 232.844L185.719 230.941L185.636 227.689L179.96 227.769L180.377 225.945H177.957L177.706 226.817L174.785 227.055L173.533 229.989L172.781 231.258L170.194 230.544L168.691 231.258L165.52 231.654L163.767 229.038L162.682 227.372L161.346 224.28L160.261 220.553L146.322 220.473L144.652 221.028L143.233 220.949L141.313 221.663L140.646 220.077L141.814 219.522L141.981 217.301L142.816 216.033L144.485 214.922L145.737 215.478L147.407 213.495L149.994 213.574L150.245 215.002L151.997 215.874L154.835 212.702L157.59 210.244L158.759 208.579L158.675 204.376L160.762 199.459L162.932 196.842L166.02 194.384L166.605 192.798L166.688 190.895L167.439 189.151L167.189 186.216L167.773 181.696L168.691 178.525L170.11 175.828L170.361 172.736L170.778 169.167L172.614 166.63L175.119 164.965L179.042 166.709L182.047 168.612L185.469 169.088L189.058 170.119L190.394 167.026L191.061 166.63L193.232 167.106L198.49 164.568L200.326 165.678L201.829 165.52L202.58 164.251L204.333 163.854L207.839 164.409L210.927 164.489L212.43 163.934Z" fill="#ABCAEB" stroke="#7A98B5" stroke-linecap="round" stroke-linejoin="round"/>
<path d="M170.361 172.736L170.11 175.828L168.691 178.525L167.773 181.696L167.189 186.216L167.439 189.151L166.688 190.895L166.605 192.798L166.02 194.384L162.932 196.842L160.762 199.459L158.675 204.376L158.759 208.579L157.59 210.244L154.836 212.702L151.998 215.874L150.245 215.002L149.994 213.574L147.407 213.495L145.737 215.478L144.485 214.922L142.732 213.178L141.313 214.05L139.394 216.271L135.554 210.878L139.143 208.024L137.39 204.693L139.06 203.424L142.232 202.79L142.565 200.49L145.153 202.948L149.326 203.186L150.746 200.807L151.33 197.398L150.829 193.433L148.575 190.419L150.662 184.472L149.493 183.52L145.988 183.917L144.652 181.3L144.986 179.08L150.912 179.238L154.752 180.586L158.508 181.776L158.842 179.08L161.346 174.322L164.101 171.626L167.356 172.498L170.361 172.736Z" fill="#ABCAEB" stroke="#7A98B5" stroke-linecap="round" stroke-linejoin="round"/>
<path d="M286.05 132.214L284.464 134.99L283.379 134.038L282.294 134.435L279.623 134.355L279.456 132.769L279.038 131.342L280.541 128.963L282.127 126.743L284.13 127.219L285.549 125.95L286.718 127.536L286.634 129.598L284.047 130.866L286.05 132.214Z" fill="#ABCAEB" stroke="#7A98B5" stroke-linecap="round" stroke-linejoin="round"/>
<path d="M120.363 2.48245L119.528 5.09929L120.363 9.93648L119.444 14.1393L116.773 16.994L117.274 20.8004L121.03 23.893L121.114 25.0825L123.952 27.1442L126.122 36.2635L127.708 40.7835L128.042 43.1624L127.374 47.286L127.708 49.6649L127.207 52.4404L127.708 55.6123L125.872 57.7533L128.709 61.4803L128.876 63.6214L130.629 66.4761L132.716 65.5246L136.472 67.9035L138.559 71.0754L122.867 80.8291L109.511 90.8207L103.001 93.041L97.8257 93.5961L97.7423 90.3449L95.572 89.4726L92.6506 88.0453L91.5655 85.6663L75.9566 74.5646L60.4313 63.4628L43.32 51.0923L43.4035 50.1407L43.487 49.8235L43.5704 43.7968L50.9992 39.9905L55.5066 39.1975L59.2627 37.8495L61.0156 35.3119L66.3576 33.3295L66.608 29.5232L69.1956 29.0474L71.2824 27.2235L77.2087 26.3512L78.0434 24.3688L76.8748 23.2586L75.2889 17.8663L75.0385 14.7737L73.4525 11.5224L77.7095 8.74701L82.5508 7.87473L85.3053 5.81297L89.5622 4.227L97.0745 3.35474L104.42 2.95825L106.673 3.67193L110.764 1.68947L115.521 1.61017L117.358 2.79964L120.363 2.48245Z" fill="#ABCAEB" stroke="#7A98B5" stroke-linecap="round" stroke-linejoin="round"/>
<path d="M238.138 31.6642L241.394 39.1182L241.978 40.387L240.893 42.4488L240.308 46.2551L239.307 48.9512L238.305 49.8235L236.636 48.1583L234.382 45.9379L230.459 38.6425L230.042 39.1182L232.379 44.4312L235.634 49.5856L239.724 57.5154L241.644 60.2909L243.313 63.1456L247.821 68.7758L246.986 69.6481L247.32 72.9786L252.996 77.5779L253.914 78.6088H235.467H217.521H198.907L198.073 59.8151L196.988 41.7351L195.318 37.6116L196.236 34.5189L195.402 32.2986L196.821 29.8404L202.831 29.761L207.338 31.1091L211.929 32.6158L214.099 33.4088L217.438 31.8228L219.191 30.3954L223.114 29.9197L226.369 30.554L227.871 33.0916L228.79 31.4263L232.462 32.6158L236.051 32.933L238.138 31.6642Z" fill="#ABCAEB" stroke="#7A98B5" stroke-linecap="round" stroke-linejoin="round"/>
<path d="M285.549 125.95L284.13 127.219L282.127 126.743L280.457 125.078L278.371 122.144L276.2 120.478L274.948 118.734L270.775 116.672L267.52 116.593L266.351 115.562L263.68 116.751L260.675 114.452L259.423 118.258L253.914 117.148L253.33 115.165L254.999 107.632L255.25 104.301L256.669 102.715L260.007 101.843L262.261 98.9884L265.266 104.856L266.852 109.535L269.523 111.993L276.2 116.831L278.955 119.685L281.626 122.699L283.128 124.443L285.549 125.95Z" fill="#ABCAEB" stroke="#7A98B5" stroke-linecap="round" stroke-linejoin="round"/>
<path d="M267.52 116.593L270.775 116.672L274.948 118.734L276.2 120.478L278.371 122.144L280.457 125.078L282.127 126.743L280.541 128.963L279.038 131.342L279.456 132.769L279.623 134.355L282.294 134.435L283.379 134.038L284.464 134.99L283.462 136.734L285.299 139.589L287.135 142.047L288.971 143.871L304.58 149.898L308.587 149.819L295.565 165.123L289.472 165.361L285.299 168.929L282.294 169.009L281.042 170.674H277.786L275.867 168.929L271.526 171.071L270.191 173.212L267.019 172.736L265.934 172.181L264.848 172.339L263.346 172.26L257.336 167.978H253.997L252.411 166.313L252.328 163.458L249.907 162.586L246.986 157.035L244.816 155.845L243.981 153.784L241.477 151.325L238.556 150.929L240.141 148.074L242.646 147.915L243.313 146.409L243.146 142.444V141.809L244.398 136.496L246.569 135.069L246.986 133.007L248.906 129.042L251.66 126.584L253.33 121.509L253.914 117.148L259.423 118.258L260.675 114.452L263.68 116.751L266.351 115.562L267.52 116.593Z" fill="#ABCAEB" stroke="#7A98B5" stroke-linecap="round" stroke-linejoin="round"/>
<path d="M144.986 179.08L144.652 181.3L145.988 183.917L149.493 183.52L150.662 184.472L148.575 190.419L150.829 193.433L151.33 197.398L150.745 200.807L149.326 203.186L145.153 202.948L142.565 200.49L142.232 202.79L139.06 203.424L137.39 204.693L139.143 208.023L135.554 210.878L130.713 205.724L127.624 201.521L124.703 196.287L124.87 194.543L125.955 192.957L127.04 189.23L128.042 185.423L129.628 185.186H136.472V179.08L138.726 178.762L141.564 179.397L144.402 178.762L144.986 179.08Z" fill="#ABCAEB" stroke="#7A98B5" stroke-linecap="round" stroke-linejoin="round"/>
<path d="M83.2185 134.514L82.8846 136.1L84.8044 138.717V142.444L85.3052 146.409L86.4738 148.312L85.3887 152.832L85.806 155.369L87.0581 158.621L88.1432 160.445L80.7144 163.379L78.0434 165.123L73.7864 166.63L69.613 165.202L69.7799 163.141L67.7766 158.779L69.0287 152.991L71.0319 148.788L69.7799 141.492L69.1121 137.686L69.2791 134.752L77.4591 134.514L79.5458 134.911L81.0483 134.118L83.2185 134.514Z" fill="#ABCAEB" stroke="#7A98B5" stroke-linecap="round" stroke-linejoin="round"/>
<path d="M28.9632 127.219L29.2136 129.122H29.9648L31.2168 128.408L31.968 128.567L33.3036 129.915L35.3068 130.311L36.5589 129.201L38.1448 128.487L39.2299 127.774L40.1481 127.932L41.2332 129.042L41.734 130.47L43.6538 132.611L42.7357 133.88L42.4853 135.545L43.4869 135.069L44.0711 135.624L43.8207 137.131L45.2397 138.638L44.3216 139.034L43.9042 140.779L44.9893 142.84L46.1579 146.964L44.405 147.519L43.9877 148.233L44.3216 149.264L43.9877 151.484H43.2365L41.901 151.325L40.9828 153.387H39.6473L38.7291 152.277L39.063 150.215L37.0597 147.122L35.8911 147.678L34.806 147.836L33.554 148.074L33.6374 146.25L32.8862 144.902L33.0532 143.395L32.0515 141.254L30.716 139.431H26.9599L25.8748 140.382L24.5393 140.541L23.7046 141.651L23.2037 142.999L20.6162 145.299L18.6129 142.285L16.7766 140.303L15.608 139.589L14.4394 138.558L13.9386 136.338L13.2709 135.228L11.8519 134.355L14.0221 131.897L15.4411 131.976L16.6931 131.184L17.6947 131.104L18.446 130.47L18.1121 128.805L18.6129 128.249L18.6964 126.505L20.9501 126.584L24.3723 127.774L25.374 127.694L25.7078 127.139L28.2954 127.536L28.9632 127.219Z" fill="#ABCAEB" stroke="#7A98B5" stroke-linecap="round" stroke-linejoin="round"/>
<path d="M18.6964 126.505L18.6129 128.249L18.1121 128.805L18.446 130.47L17.6947 131.104L16.6931 131.184L15.441 131.976L14.022 131.897L11.8518 134.355L9.43119 132.294L7.42795 131.897L6.34286 130.47L6.42631 129.677L5.00731 128.646L4.67346 127.536L7.17755 126.743L8.76345 126.901L10.0155 126.267L18.6964 126.505Z" fill="#ABCAEB" stroke="#7A98B5" stroke-linecap="round" stroke-linejoin="round"/>
<path d="M136.472 179.08V185.186H129.628L128.042 185.424L127.123 184.71L128.709 179L136.472 179.08Z" fill="#ABCAEB" stroke="#7A98B5" stroke-linecap="round" stroke-linejoin="round"/>
<path d="M281.042 170.674L276.952 176.383L277.119 194.939L279.873 199.142L276.534 201.204L275.366 203.345L273.529 203.662L272.862 207.31L271.276 209.372L270.357 212.702L268.438 214.367L261.677 209.292L261.426 206.358L244.315 195.97L244.649 192.243L243.48 190.261V190.023L244.816 187.961L247.153 184.63L248.906 180.903L246.736 175.035L246.151 172.498L243.898 168.929L246.736 165.916L249.907 162.586L252.328 163.458L252.411 166.313L253.997 167.978H257.336L263.346 172.26L264.848 172.339L265.934 172.181L267.019 172.736L270.191 173.212L271.526 171.07L275.867 168.929L277.786 170.674H281.042Z" fill="#ABCAEB" stroke="#7A98B5" stroke-linecap="round" stroke-linejoin="round"/>
<path d="M43.2365 151.484L43.0696 152.911L43.4869 155.369L42.4853 157.669L43.8208 159.097L45.3232 159.414L47.3265 161.555L47.4935 163.537L46.9926 164.172L46.6588 168.374L45.4067 168.454L40.5655 165.995L36.2251 162.11L32.2185 159.334L29.0466 156.083L30.2152 154.418L30.4656 152.911L32.6359 150.215L34.8061 147.836L35.8912 147.678L37.0598 147.122L39.063 150.215L38.7291 152.277L39.6473 153.387H40.9828L41.901 151.325L43.2365 151.484Z" fill="#ABCAEB" stroke="#7A98B5" stroke-linecap="round" stroke-linejoin="round"/>
<path d="M196.821 29.8403L195.402 32.2986L196.236 34.5189L195.318 37.6116L196.988 41.7351L198.073 59.8151L198.907 78.6088L199.325 88.7589H193.983V90.9L175.119 81.1463L156.338 71.3926L151.747 74.1681L148.575 76.0712L145.904 73.2958L138.559 71.0754L136.472 67.9035L132.716 65.5246L130.629 66.4761L128.876 63.6214L128.709 61.4803L125.871 57.7533L127.708 55.6123L127.207 52.4403L127.708 49.6649L127.374 47.286L128.042 43.1624L127.708 40.7835L126.122 36.2635L128.292 35.1533L128.626 32.933L128.125 30.8712L131.13 28.8888L132.466 27.2235L134.636 25.7961L134.719 21.9105L140.061 23.6551L141.981 23.1793L145.737 24.0516L151.831 26.3512L154.168 30.8712L158.258 31.8228L164.768 33.9638L169.776 36.5014L171.863 35.1533L173.95 32.8537L172.614 28.9681L173.867 26.4305L176.955 24.0516L180.043 23.4172L186.22 24.4481L187.889 26.6684L189.559 26.7477L191.061 27.62L195.569 28.1751L196.821 29.8403Z" fill="#ABCAEB" stroke="#7A98B5" stroke-linecap="round" stroke-linejoin="round"/>
<path d="M210.593 346.082L208.924 346.637L205.835 342.672L208.506 339.5L211.094 337.517L213.348 336.407L215.184 337.993L216.603 339.579L215.017 342.038L214.099 343.703L211.511 344.496L210.593 346.082Z" fill="#ABCAEB" stroke="#7A98B5" stroke-linecap="round" stroke-linejoin="round"/>
<path d="M73.4525 11.5224L75.0385 14.7737L75.2889 17.8663L76.8748 23.2586L78.0433 24.3688L77.2087 26.3512L71.2823 27.2235L69.1956 29.0474L66.608 29.5232L66.3576 33.3295L61.0156 35.3119L59.2627 37.8495L55.5065 39.1975L50.9992 39.9905L43.5704 43.7968L43.4869 49.8235H42.7357L42.8191 52.5196L39.9812 52.6782L38.4787 53.8677H36.392L34.7226 53.154L30.883 53.7091L29.2971 57.674L27.7946 58.0705L25.5409 64.4937L18.9468 69.9653L17.2774 77.0228L15.2741 79.3224L14.6899 81.1463L4.25617 81.5428H4.17267L4.42307 79.1638L6.25941 77.8158L7.84536 75.1196L7.59496 73.3751L9.26435 69.8067L11.9353 66.5554L13.5213 65.7624L14.8568 62.8284L15.0237 60.053L16.7766 56.9603L19.9485 55.0572L22.9533 49.9028L23.0369 49.8235L25.4574 47.841L29.7144 47.286L33.3871 43.7968L35.7242 42.4488L39.6473 38.1667L38.6456 31.9021L40.482 27.4614L41.2332 24.7653L44.2381 21.3554L48.7455 19.0558L52.1677 16.9147L55.2561 11.6811L56.7586 8.50912L60.0139 8.5884L62.6015 10.7295L66.8584 10.4123L71.4493 11.5224H73.4525Z" fill="#ABCAEB" stroke="#7A98B5" stroke-linecap="round" stroke-linejoin="round"/>
<path d="M318.102 259.647L318.436 265.753L319.521 268.132L318.937 270.59L317.935 272.017L316.6 269.083L315.598 270.59L316.266 274.317L315.682 276.537L314.263 277.647L313.678 282.009L311.425 287.956L308.587 294.934L304.997 304.609L302.577 311.666L299.989 317.614L296.15 318.803L291.893 320.944L289.389 319.675L285.883 317.852L284.881 315.155V310.635L283.629 306.591L283.462 302.864L284.547 299.216L286.718 298.344L286.885 296.679L289.305 292.793L289.973 289.542L289.055 287.163L288.387 283.912L288.303 279.233L290.14 276.379L290.975 273.127L293.312 272.969L295.983 271.938L297.819 270.986L299.822 270.907L302.66 268.052L306.75 264.88L308.253 262.343L307.752 260.122L309.755 260.757L312.51 257.268L312.76 254.175L314.43 251.875L315.932 254.096L317.101 256.237L318.102 259.647Z" fill="#ABCAEB" stroke="#7A98B5" stroke-linecap="round" stroke-linejoin="round"/>
<path d="M103.001 93.041L103.084 104.777L100.497 108.187L100.163 111.359L95.9893 112.152L89.5622 112.548L87.8928 114.372L84.8879 114.61H81.883L80.7144 113.659L78.1269 114.372L73.7029 116.513L72.7848 118.099L69.1956 120.32L68.5278 121.668L66.5246 122.699L64.2709 121.985L63.0188 123.254L62.2676 126.743L58.5115 130.946L58.6784 132.69L57.3429 134.831L57.6768 137.765L55.6735 138.558L54.5884 139.193L53.8371 137.052L52.5017 137.607L51.667 137.527L50.8323 138.955H47.1596L45.9075 138.162L45.2398 138.638L43.8208 137.131L44.0712 135.624L43.4869 135.069L42.4853 135.545L42.7357 133.88L43.6538 132.611L41.734 130.47L41.2332 129.042L40.1481 127.932L39.2299 127.774L38.1449 128.487L36.5589 129.201L35.3069 130.311L33.3036 129.915L31.9681 128.567L31.2169 128.408L29.9648 129.122H29.2136L28.9632 127.219L29.2136 125.633L28.7962 123.729L27.1268 122.302L26.2087 119.368L26.0417 116.196L27.6277 115.245L28.4624 112.231L29.9648 112.152L33.2201 113.579L35.8912 112.548L37.6441 112.866L38.3953 111.755L57.1759 111.676L58.261 108.108L57.4263 107.473L55.3396 85.5077L53.3363 63.5421L60.4313 63.4628L75.9566 74.5646L91.5655 85.6663L92.6506 88.0453L95.572 89.4726L97.7422 90.3449L97.8257 93.5961L103.001 93.041Z" fill="#ABCAEB" stroke="#7A98B5" stroke-linecap="round" stroke-linejoin="round"/>
<path d="M233.631 326.733H230.209L229.958 324.433L229.457 322.134L229.124 320.31L230.292 314.68L229.374 311.032L227.538 303.895L232.713 298.106L234.132 294.459L234.799 293.983L235.551 290.969L234.883 289.463L235.217 285.656L236.302 282.167L236.636 275.665L234.299 274.079L232.045 273.682L231.127 272.414L228.957 271.383L225.034 271.462L224.867 269.559L224.533 265.911L238.889 261.708L241.56 264.167L242.812 263.691L244.649 264.96L244.816 267.021L243.731 269.4L243.898 272.969L246.819 276.141L248.405 272.572L250.492 271.541L250.408 264.96L248.572 261.312L246.986 259.647H246.652L246.151 253.858L247.403 249.021L249.24 248.862L254.832 250.289L256.084 249.655L259.34 249.496L261.092 247.99L263.93 248.069L269.105 246.087L272.945 243.153L273.696 245.373L273.279 250.448L273.696 254.968L273.529 262.898L274.197 265.356L272.611 269.004L270.608 272.572L267.52 275.744L263.096 277.647L257.67 280.106L252.161 285.577L250.325 286.529L246.819 290.176L244.899 291.287L244.232 294.934L246.235 298.82L246.986 301.754V303.34L247.821 303.023L247.403 308.019L246.485 310.398L247.487 311.27L246.652 313.411L244.649 315.235L240.726 316.9L234.966 319.675L232.88 321.579L233.13 323.72L234.215 324.037L233.631 326.733Z" fill="#ABCAEB" stroke="#7A98B5" stroke-linecap="round" stroke-linejoin="round"/>
<path d="M60.4312 63.4628L53.3363 63.5421L55.3395 85.5077L57.4263 107.473L58.261 108.108L57.1759 111.676L38.3952 111.755L37.644 112.866L35.8911 112.548L33.2201 113.579L29.9648 112.152L28.4624 112.231L27.6277 115.245L26.0417 116.196L23.0368 112.707L20.1988 108.901L17.1939 107.553L14.9403 106.125H12.3527L10.0155 107.235L7.76183 106.839L6.09243 108.425L5.75858 105.729L7.09408 103.191L7.76183 98.4333L7.42798 93.3583L6.92713 90.8207L7.42798 88.2832L6.25938 85.9042L3.92224 83.6839L5.00734 82.0186H23.1203L22.369 74.6439L23.6211 72.027L27.9615 71.6305L28.1285 58.5463L43.153 58.8635L43.3199 51.0923L60.4312 63.4628Z" fill="#ABCAEB" stroke="#7A98B5" stroke-linecap="round" stroke-linejoin="round"/>
<path d="M246.652 259.647H246.986L248.572 261.312L250.408 264.96L250.492 271.541L248.405 272.572L246.819 276.141L243.898 272.969L243.731 269.4L244.816 267.021L244.649 264.96L242.812 263.691L241.56 264.167L238.889 261.708L236.469 260.44L238.138 255.682L239.641 253.937L238.889 249.655L239.975 245.532L240.809 244.184L239.724 239.901L237.554 237.602L242.145 238.553L242.979 239.901L242.896 240.536L244.398 243.787L244.565 249.893L243.063 252.748L244.398 256.475L244.232 258.695L245.233 260.202L245.15 262.105L245.901 263.215L246.736 261.946L248.322 263.929L248.488 263.294L247.654 260.598L246.736 260.36L246.652 259.647Z" fill="#ABCAEB" stroke="#7A98B5" stroke-linecap="round" stroke-linejoin="round"/>
<path d="M191.479 279.788L195.318 278.678L198.323 278.916L200.159 280.106V280.502L197.489 281.692H196.069L192.981 283.674L191.312 281.533L184.05 283.357L180.544 283.515L179.876 301.675L175.286 301.833L174.785 316.662L173.867 335.456L169.693 338.073L167.272 338.469L164.435 337.517L162.348 337.121L161.68 334.98L160.011 333.553L157.673 336.09L154.418 332.205L152.749 328.557L151.914 323.561L150.912 319.913L149.577 312.063L149.66 305.957L149.16 303.181L147.407 301.04L145.069 296.838L142.732 290.732L141.814 287.56L138.142 282.564L137.891 278.678L140.145 277.727L142.983 276.854L145.988 277.013L148.742 279.313L149.41 278.916L168.358 278.758L171.529 281.136L182.798 281.85L191.479 279.788Z" fill="#ABCAEB" stroke="#7A98B5" stroke-linecap="round" stroke-linejoin="round"/>
<path d="M149.744 127.06L151.664 129.042L151.163 129.994L150.912 131.659L146.989 135.624L145.821 138.875L145.153 141.492L144.151 142.682L143.233 146.25L140.729 148.312L140.061 150.849L138.976 152.911L138.559 155.052L135.304 156.797L132.632 154.656L130.88 154.735L128.042 157.748H126.706L124.452 162.665L123.284 166.313L118.359 168.136L116.606 167.899L114.77 169.009L111.014 168.929L108.426 165.678L106.84 162.031L103.502 158.7H99.9958H95.8223L96.0728 150.532L95.9058 147.281L96.824 144.109L98.243 142.523L100.58 139.351L100.079 138.003L100.997 135.941L99.9124 132.928L100.079 131.263L100.413 126.664L101.749 124.602L102.416 121.668L103.585 120.637L108.677 120.002L113.351 121.906L115.104 123.809L117.524 123.888L119.778 122.699L125.454 125.315L127.875 125.157L130.629 123.016L133.384 123.174L134.719 122.461L137.223 122.699L140.896 124.205L144.485 121.351L145.654 121.588L148.909 127.139L149.744 127.06Z" fill="#ABCAEB" stroke="#7A98B5" stroke-linecap="round" stroke-linejoin="round"/>
<path d="M227.037 196.367L228.873 199.221L228.623 202.235L227.287 202.869L224.7 202.552L223.281 205.486L220.359 205.089L220.86 202.235L221.528 201.838L221.695 198.825L223.03 197.398L224.199 197.953L227.037 196.367Z" fill="#ABCAEB" stroke="#7A98B5" stroke-linecap="round" stroke-linejoin="round"/>
<path d="M253.914 117.148L253.33 121.509L251.66 126.584L248.906 129.042L246.986 133.007L246.569 135.069L244.398 136.496L243.146 141.809V142.444L242.479 142.285L242.562 139.748L241.894 138.003L239.474 136.021L238.723 132.373L239.223 128.567L237.053 128.249L236.719 129.36L233.881 129.677L235.133 131.104L235.551 134.197L233.047 136.972L230.793 140.62L228.372 141.175L224.366 138.241L222.613 139.272L222.196 140.699L219.775 141.73L219.608 142.761H214.934L214.266 141.73L210.844 141.492L209.174 142.365L207.839 141.968L205.418 138.955L204.583 137.607L201.161 138.32L199.909 140.62L198.824 145.219L197.155 146.171L195.736 146.726L195.318 146.488L193.732 144.981L193.398 143.395L194.066 141.334V139.193L191.312 136.021L190.727 133.88V132.611L188.975 131.104L188.891 128.17L187.806 126.188L186.22 126.505L186.637 124.602L187.806 122.54L187.222 120.399L188.724 118.813L187.722 117.623L188.808 114.531L190.894 110.725L194.901 111.121L193.983 90.9V88.7589H199.325L198.907 78.6088H217.521H235.467H253.914L255.667 83.6045L254.665 84.4768L255.667 89.7898L257.754 95.8165L259.59 97.0852L262.261 98.9884L260.007 101.843L256.669 102.715L255.249 104.301L254.999 107.632L253.33 115.165L253.914 117.148Z" fill="#ABCAEB" stroke="#7A98B5" stroke-linecap="round" stroke-linejoin="round"/>
<path d="M243.146 142.444L243.313 146.409L242.646 147.915L240.141 148.074L238.556 150.929L241.477 151.325L243.981 153.783L244.816 155.845L246.986 157.035L249.907 162.586L246.736 165.916L243.898 168.929L240.976 171.308H237.637L233.881 172.498L230.876 171.308L228.957 172.736L224.7 169.326L223.531 167.185L220.943 168.216L218.773 167.899L217.521 168.771L215.351 168.136L212.43 163.934L211.678 162.348L208.089 160.286L206.921 157.273L204.917 155.052L201.662 152.435L201.579 150.77L198.991 148.708L195.736 146.726L197.155 146.171L198.824 145.219L199.909 140.62L201.161 138.32L204.583 137.607L205.418 138.955L207.839 141.968L209.174 142.365L210.844 141.492L214.266 141.73L214.934 142.761H219.608L219.775 141.73L222.196 140.699L222.613 139.272L224.366 138.241L228.372 141.175L230.793 140.62L233.047 136.972L235.551 134.197L235.133 131.104L233.881 129.677L236.719 129.36L237.053 128.249L239.223 128.567L238.723 132.373L239.474 136.021L241.894 138.003L242.562 139.748L242.479 142.285L243.146 142.444Z" fill="#ABCAEB" stroke="#7A98B5" stroke-linecap="round" stroke-linejoin="round"/>
<path d="M26.0417 116.196L26.2087 119.368L27.1268 122.302L28.7962 123.729L29.2135 125.633L28.9631 127.219L28.2954 127.536L25.7078 127.139L25.374 127.694L24.3723 127.774L20.9501 126.584L18.6964 126.505L10.0155 126.267L8.76347 126.901L7.17758 126.743L4.67348 127.536L4.00569 123.65L8.26267 123.729L9.43122 123.016H10.2659L12.0188 121.826L14.022 122.857L16.0253 123.016L18.1121 121.826L17.1939 120.399L15.608 121.192H14.189L12.3527 119.923L10.8502 120.002L9.76512 121.271L4.67348 121.351L2.75364 117.386L0.5 115.641L2.58674 114.61L4.92388 111.042L6.09243 108.425L7.76182 106.839L10.0155 107.235L12.3527 106.125H14.9402L17.1939 107.553L20.1988 108.901L23.0368 112.707L26.0417 116.196Z" fill="#ABCAEB" stroke="#7A98B5" stroke-linecap="round" stroke-linejoin="round"/>
<path d="M34.8061 147.836L32.6359 150.215L30.4656 152.911L30.2152 154.418L29.0466 156.083L27.7946 155.687L24.4558 153.625L21.9517 150.929L21.2005 149.026L20.6162 145.299L23.2038 142.999L23.7046 141.651L24.5393 140.541L25.8748 140.382L26.9599 139.431H30.716L32.0516 141.254L33.0532 143.395L32.8863 144.902L33.6375 146.25L33.554 148.074L34.8061 147.836Z" fill="#ABCAEB" stroke="#7A98B5" stroke-linecap="round" stroke-linejoin="round"/>
<path d="M229.457 322.134L229.958 324.433L230.209 326.733L229.04 328.953L226.369 329.508L223.781 326.733L223.865 324.988L225.284 323.085L225.785 321.579L227.204 321.261L229.457 322.134Z" fill="#ABCAEB" stroke="#7A98B5" stroke-linecap="round" stroke-linejoin="round"/>
<path d="M193.983 90.9L194.901 111.121L190.894 110.725L188.808 114.531L187.722 117.624L188.724 118.813L187.222 120.399L187.806 122.54L186.637 124.602L186.22 126.505L187.806 126.188L188.891 128.17L188.975 131.104L190.727 132.611V133.88L187.722 134.752L185.385 136.814L182.047 142.365L177.706 144.744L173.115 144.426L171.78 144.902L172.281 146.647L169.86 148.471L167.857 150.453L161.93 152.356L160.762 151.246L159.927 151.087L159.092 152.435L155.253 152.832L155.921 151.405L154.418 147.915L153.75 145.854L151.664 144.981L148.826 141.968L149.827 139.589L151.997 140.065L153.333 139.748H156.004L153.333 135.148L153.5 131.739L153.083 128.408L151.163 125.157L151.664 122.699L148.575 122.619V119.368L146.572 117.465L148.492 110.725L154.335 105.967L154.502 99.3056L156.004 88.9969L157.006 86.7765L155.002 85.0319L154.919 83.446L153.083 82.0979L151.747 74.1681L156.338 71.3926L175.119 81.1463L193.983 90.9Z" fill="#ABCAEB" stroke="#7A98B5" stroke-linecap="round" stroke-linejoin="round"/>
<path d="M87.3085 134.593L86.7242 137.289L88.1432 138.796L89.8125 140.541L89.9794 143.078L90.9811 144.109L90.7307 155.845L91.8993 159.334L88.1432 160.445L87.058 158.621L85.806 155.369L85.3886 152.832L86.4738 148.312L85.3052 146.409L84.8044 142.444V138.717L82.8845 136.1L83.2184 134.514L87.3085 134.593Z" fill="#ABCAEB" stroke="#7A98B5" stroke-linecap="round" stroke-linejoin="round"/>
<path d="M134.719 21.9105L134.636 25.7961L132.466 27.2235L131.13 28.8888L128.125 30.8712L128.626 32.933L128.292 35.1533L126.122 36.2635L123.952 27.1442L121.114 25.0825L121.03 23.893L117.274 20.8004L116.773 16.994L119.444 14.1393L120.362 9.93649L119.528 5.09929L120.362 2.48246L125.12 0.5L128.209 1.05507V3.67193L131.881 1.76878L132.215 2.72034L130.128 5.2579L130.212 7.55754L131.798 8.82632L131.38 13.267L128.459 15.8046L129.461 18.58L131.798 18.6593L132.966 21.1175L134.719 21.9105Z" fill="#ABCAEB" stroke="#7A98B5" stroke-linecap="round" stroke-linejoin="round"/>
<path d="M233.881 195.812L233.714 198.904L232.796 202.473L234.132 204.455L236.219 203.266L238.973 202.948L239.557 203.583L242.312 202.314L240.392 200.569L241.978 198.27L244.315 195.97L261.426 206.358L261.677 209.292L268.438 214.367L266.101 220.711L266.351 223.566L269.273 225.39L269.439 226.738L268.02 229.831L268.271 231.337L267.937 233.795L269.439 236.967L271.276 242.042L272.945 243.153L269.106 246.087L263.93 248.069L261.092 247.99L259.34 249.496L256.084 249.655L254.832 250.289L249.24 248.862L247.403 249.021L247.487 248.941L245.984 247.038L245.734 241.646L243.313 238.95L242.98 239.901L242.145 238.553L237.554 237.602L234.883 236.095L231.878 235.223L230.042 234.351L229.791 234.192L227.538 228.958L227.204 225.866L223.448 222.377L224.616 220.473L223.698 218.412L223.865 216.271L223.03 215.557L223.281 213.336L223.782 213.257L225.451 211.433L227.371 208.737L228.539 207.706V206.041L227.538 204.852L227.287 202.869L228.623 202.235L228.873 199.221L227.037 196.367L228.706 195.732L233.881 195.812Z" fill="#ABCAEB" stroke="#7A98B5" stroke-linecap="round" stroke-linejoin="round"/>
<path d="M243.898 168.929L246.151 172.498L246.736 175.035L248.906 180.904L247.153 184.631L244.816 187.961L243.48 190.023V190.261L243.313 189.944L240.809 188.913L238.806 190.181L235.801 190.895L233.631 193.829L233.881 195.812L228.706 195.732L227.037 196.367L224.199 197.953L223.03 197.398L223.114 193.591L224.199 191.609L224.449 187.565L225.451 185.186L227.287 182.569L229.04 181.141L230.626 179.397L228.706 178.683L228.957 172.736L230.876 171.308L233.881 172.498L237.637 171.308H240.976L243.898 168.929Z" fill="#ABCAEB" stroke="#7A98B5" stroke-linecap="round" stroke-linejoin="round"/>
<path d="M229.791 234.192L230.042 234.351L231.878 235.223L234.883 236.095L237.554 237.602L239.724 239.901L240.809 244.184L239.975 245.532L238.889 249.655L239.641 253.937L238.138 255.682L236.469 260.44L238.889 261.708L224.533 265.911L224.867 269.559L221.277 270.273L218.523 272.255L217.855 274L216.186 274.475L211.929 278.599L209.258 281.929L207.672 282.009L206.169 281.454L200.994 280.899L200.16 280.502V280.106L198.323 278.916L195.318 278.678L191.479 279.788L188.474 276.616L185.469 272.493L186.137 256.237L195.903 256.316L195.569 254.572L196.32 252.668L195.569 250.289L196.153 247.831L195.652 246.245L197.238 246.325L197.489 247.911L199.742 247.831L202.664 248.307L204.25 250.607L207.922 251.32L210.844 249.734L211.845 252.351L215.435 253.065L217.104 255.285L218.94 258.061H222.529L222.362 252.589L221.027 253.541L217.772 251.558L216.52 250.607L217.271 245.532L218.189 239.505L217.187 237.285L218.606 234.033L219.858 233.399L226.286 232.527L227.037 232.765L226.786 233.875L228.372 234.271L229.374 235.302L230.209 235.064L229.791 234.192Z" fill="#ABCAEB" stroke="#7A98B5" stroke-linecap="round" stroke-linejoin="round"/>
<path d="M227.538 303.895L225.117 303.34L223.531 303.974L221.277 303.102H219.441L216.603 300.802L213.014 300.009L211.762 296.758L211.845 294.934L209.925 294.379L204.834 288.828L203.498 285.894L202.58 284.943L200.994 280.899L206.169 281.454L207.672 282.009L209.258 281.929L211.929 278.599L216.186 274.475L217.855 274L218.523 272.255L221.277 270.273L224.866 269.559L225.033 271.462L228.956 271.383L231.127 272.414L232.045 273.682L234.299 274.079L236.636 275.665L236.302 282.167L235.217 285.656L234.883 289.463L235.551 290.969L234.799 293.983L234.132 294.459L232.713 298.106L227.538 303.895Z" fill="#ABCAEB" stroke="#7A98B5" stroke-linecap="round" stroke-linejoin="round"/>
<path d="M279.873 199.142L277.119 194.939L276.952 176.383L281.042 170.674L282.294 169.009L285.299 168.929L289.472 165.361L295.565 165.123L308.587 149.819L304.58 149.898L288.971 143.871L287.135 142.047L285.299 139.589L283.462 136.734L284.464 134.99L286.05 132.214L287.636 133.166L288.637 135.307L290.891 137.448H293.228L297.569 136.1L302.66 135.545L306.75 133.959L309.087 133.642L310.757 132.69L313.428 132.532L314.93 132.373L317.017 131.659L319.521 131.104L321.608 129.36H323.444L323.611 130.787L323.277 133.721L323.444 136.417L322.526 138.241L321.358 143.792L319.354 149.422L316.6 155.925L312.76 163.379L308.837 169.088L303.328 176.066L298.654 180.19L291.642 185.265L287.218 189.071L282.043 195.256L280.958 197.953L279.873 199.142Z" fill="#ABCAEB" stroke="#7A98B5" stroke-linecap="round" stroke-linejoin="round"/>
<path d="M227.538 303.895L229.374 311.032L230.292 314.68L229.124 320.31L229.457 322.134L227.204 321.261L225.785 321.579L225.284 323.085L223.865 324.988L223.781 326.733L226.369 329.508L229.04 328.953L230.209 326.733H233.631L232.212 330.46L231.377 334.663L229.958 336.962L226.619 339.579L225.701 340.293L223.531 342.91L222.029 345.527L219.107 349.174L213.515 354.408L210.092 357.421L206.503 359.8L201.579 361.703L199.325 362.021L198.574 363.448L195.903 362.655L193.649 363.607L188.891 362.655L186.137 363.289L184.3 362.972L179.459 365.034L175.619 365.827L172.698 367.73L170.695 367.889L168.942 366.065L167.439 365.986L165.603 363.686L165.353 364.4L164.852 363.052L165.102 360.038L163.85 356.628L165.353 355.677L165.436 351.791L162.682 347.033L160.678 342.751V342.672L157.673 336.09L160.011 333.553L161.68 334.98L162.348 337.121L164.435 337.518L167.272 338.469L169.693 338.073L173.867 335.456L174.785 316.662L175.953 317.455L178.457 322.292L177.957 325.385L178.875 327.209L182.214 326.654L184.551 324.354L186.804 322.847L188.056 320.389L190.394 319.279L192.313 319.834L194.4 321.261L198.156 321.499L201.161 320.389L201.662 318.803L202.664 316.345L205.168 315.948L206.67 314.045L208.34 310.635L212.68 306.829L219.441 303.102H221.277L223.531 303.974L225.117 303.34L227.538 303.895ZM210.593 346.082L211.511 344.496L214.099 343.703L215.017 342.038L216.603 339.579L215.184 337.993L213.348 336.407L211.094 337.518L208.506 339.5L205.835 342.672L208.924 346.637L210.593 346.082Z" fill="#ABCAEB" stroke="#7A98B5" stroke-linecap="round" stroke-linejoin="round"/>
<path d="M289.138 253.62L288.387 253.541L288.22 253.223V252.986L288.637 253.065L289.222 253.461L289.138 253.62Z" fill="#ABCAEB" stroke="#7A98B5" stroke-linecap="round" stroke-linejoin="round"/>
<path d="M292.227 252.113L292.394 252.906V253.461L292.31 253.62L292.143 253.382L291.809 253.144L291.726 252.986L291.475 252.906L290.975 252.589L291.058 252.51L291.475 252.668L291.726 252.589L291.893 252.272V252.113L292.143 252.034L292.227 252.113Z" fill="#ABCAEB" stroke="#7A98B5" stroke-linecap="round" stroke-linejoin="round"/>
<path d="M287.469 251.32L287.051 251.003L286.801 250.924L286.551 250.765L286.384 250.289L286.467 250.052V249.893L286.634 248.941L286.551 248.862L286.718 248.545L287.135 248.466L287.302 248.703L287.135 249.655L287.218 249.893L287.385 250.21L287.469 250.607L287.636 251.082L287.469 251.32Z" fill="#ABCAEB" stroke="#7A98B5" stroke-linecap="round" stroke-linejoin="round"/>
<path d="M351.323 292.873L351.657 293.586L351.49 294.062L351.156 294.379L351.24 294.617L350.989 294.855L350.572 295.014H350.155L349.654 294.934L349.57 295.014L349.32 294.776L349.487 294.617L349.57 294.3L349.654 293.745L349.821 293.428L350.238 293.111L350.322 292.952L350.488 292.555L350.822 292.318L351.156 292.397L351.323 292.873Z" fill="#ABCAEB" stroke="#7A98B5" stroke-linecap="round" stroke-linejoin="round"/>
<path d="M114.436 190.181H114.269L114.102 190.419H113.935L113.852 190.102L113.685 189.468V189.23L114.019 188.833L114.269 188.754L114.52 188.516L114.854 188.595L115.02 188.913L115.104 189.151L115.02 189.468L114.854 189.706L114.603 190.023L114.436 190.181Z" fill="#ABCAEB" stroke="#7A98B5" stroke-linecap="round" stroke-linejoin="round"/>
<path d="M118.276 182.41L118.192 182.648L118.025 182.727L117.775 182.648V182.41L117.942 182.331V182.093L118.109 181.934L118.359 182.014L118.276 182.41Z" fill="#ABCAEB" stroke="#7A98B5" stroke-linecap="round" stroke-linejoin="round"/>
<path d="M302.326 238.395L302.076 238.553H301.659L301.325 238.712H300.991V238.553H301.408L301.742 238.474L302.076 238.236H302.243L302.326 238.395Z" fill="#ABCAEB" stroke="#7A98B5" stroke-linecap="round" stroke-linejoin="round"/>
<path d="M301.909 238.157L301.742 238.237H301.408V238.078L301.909 238.157Z" fill="#ABCAEB" stroke="#7A98B5" stroke-linecap="round" stroke-linejoin="round"/>
<path d="M345.23 214.129L345.564 214.447L345.397 214.685L345.23 214.447L344.979 214.288L345.146 213.892L345.23 214.129Z" fill="#ABCAEB" stroke="#7A98B5" stroke-linecap="round" stroke-linejoin="round"/>
<path d="M294.981 255.047L295.148 255.285L295.565 255.444V255.682L295.398 255.84L295.482 255.999L295.232 256.475L295.315 256.633L295.065 256.713L294.898 256.475V256.237L295.065 256.078L294.898 255.523L294.814 255.444L294.731 255.285L294.981 255.047Z" fill="#ABCAEB" stroke="#7A98B5" stroke-linecap="round" stroke-linejoin="round"/>
<path d="M340.722 296.837H341.056L341.39 296.996L341.641 297.234V297.472L341.724 297.868L341.975 298.027L342.141 298.186L342.225 298.344L342.058 298.82L341.975 299.137L341.808 299.296L341.474 299.375H340.722L340.556 299.216L339.888 298.899L339.637 298.503V298.265L339.387 297.789L339.47 297.472L339.637 297.313L339.804 296.996H339.888L340.305 296.837H340.722Z" fill="#ABCAEB" stroke="#7A98B5" stroke-linecap="round" stroke-linejoin="round"/>
<path d="M151.747 74.1681L153.083 82.0979L154.919 83.446L155.002 85.0319L157.006 86.7765L156.004 88.9968L154.502 99.3056L154.335 105.967L148.492 110.725L146.572 117.465L148.575 119.368V122.619L151.664 122.699L151.163 125.157L149.911 125.395L149.744 127.06L148.909 127.139L145.654 121.588L144.485 121.351L140.896 124.205L137.223 122.699L134.719 122.461L133.384 123.174L130.629 123.016L127.875 125.157L125.454 125.315L119.778 122.699L117.524 123.888L115.104 123.809L113.351 121.906L108.677 120.002L103.585 120.637L102.416 121.668L101.749 124.602L100.413 126.664L100.079 131.263L96.4901 128.329H94.8207L93.2348 129.835L93.3182 126.346L87.8927 125.157L87.7258 122.699L85.1382 119.368L84.4705 117.068L84.8878 114.61L87.8927 114.372L89.5621 112.548L95.9893 112.152L100.163 111.359L100.497 108.187L103.084 104.777L103.001 93.041L109.511 90.8207L122.867 80.8291L138.559 71.0754L145.904 73.2958L148.575 76.0712L151.747 74.1681Z" fill="#ABCAEB" stroke="#7A98B5" stroke-linecap="round" stroke-linejoin="round"/>
<path d="M43.4869 49.8235L43.4034 50.1407L43.3199 51.0923L43.153 58.8635L28.1285 58.5463L27.9615 71.6305L23.6211 72.027L22.369 74.6438L23.1203 82.0186H5.00734L3.92224 83.6838L4.17264 81.5428H4.25614L14.6899 81.1463L15.2741 79.3224L17.2774 77.0228L18.9468 69.9653L25.5409 64.4937L27.7946 58.0705L29.297 57.674L30.8829 53.7091L34.7226 53.154L36.392 53.8677H38.4787L39.9812 52.6782L42.8191 52.5196L42.7356 49.8235H43.4869Z" fill="#ABCAEB" stroke="#7A98B5" stroke-linecap="round" stroke-linejoin="round"/>
</svg>
