<svg width="621" height="362" viewBox="0 0 621 362" fill="none" xmlns="http://www.w3.org/2000/svg">
<path d="M238.806 316.741H237.387L238.472 311.032L239.056 306.988L239.14 306.195L239.724 305.957L240.475 306.591L242.562 303.499L243.48 303.419L243.397 304.212H244.231L243.981 305.64L242.896 307.781L243.23 308.574L242.479 310.398L242.729 310.873L241.894 313.49L240.809 314.838L239.891 314.997L238.806 316.741Z" fill="#ABCAEB" stroke="#7A98B5" stroke-linecap="round" stroke-linejoin="round"/>
<path d="M387.466 161.158L390.303 161.872L394.227 161.713L391.472 163.775L389.803 164.092L385.212 161.951L384.711 160.286L386.798 158.779L387.466 161.158Z" fill="#ABCAEB" stroke="#7A98B5" stroke-linecap="round" stroke-linejoin="round"/>
<path d="M399.485 148.471L397.482 148.55L392.641 147.043L389.719 144.664L391.305 144.268L396.23 145.536L399.735 147.598L399.485 148.471Z" fill="#ABCAEB" stroke="#7A98B5" stroke-linecap="round" stroke-linejoin="round"/>
<path d="M142.482 151.405L139.894 152.118L134.636 149.898V148.153L132.215 146.409L132.466 144.981L128.876 144.109L129.377 141.413L130.629 140.303L134.051 141.334L136.055 142.127L139.477 142.602L139.644 144.347L139.978 146.647L142.649 148.708L142.482 151.405Z" fill="#ABCAEB" stroke="#7A98B5" stroke-linecap="round" stroke-linejoin="round"/>
<path d="M425.528 140.699L421.354 144.981L424.61 143.316L427.03 144.426L425.027 146.092L428.199 147.44L430.536 146.25L434.125 147.757L431.788 151.405L434.96 150.532L434.709 153.149L435.127 156.242L432.122 160.682L430.118 160.841L427.698 159.889L429.785 155.845L428.783 155.211L422.69 159.493L420.186 159.334L423.858 156.955L420.186 155.766L415.595 156.083L407.582 155.925L407.415 154.497L410.587 152.673L409.168 151.405L413.675 148.391L420.519 140.541L424.025 137.765L428.199 136.1L429.952 136.259L428.699 137.607L425.528 140.699Z" fill="#ABCAEB" stroke="#7A98B5" stroke-linecap="round" stroke-linejoin="round"/>
<path d="M125.037 123.729L126.289 124.364L130.462 123.967L124.452 129.439L124.703 133.404H123.117L122.533 131.184L122.95 128.884L122.282 127.377L123.367 125.236L125.037 123.729Z" fill="#ABCAEB" stroke="#7A98B5" stroke-linecap="round" stroke-linejoin="round"/>
<path d="M361.59 86.0628L358.585 88.4418L357.166 88.0453L357.083 86.6972L357.416 86.38L359.754 85.0319L361.173 85.1112L361.59 86.0628Z" fill="#ABCAEB" stroke="#7A98B5" stroke-linecap="round" stroke-linejoin="round"/>
<path d="M353.493 83.5253L347.484 86.0628L344.979 85.9042V84.7147L349.153 82.5737L354.161 82.653L353.493 83.5253Z" fill="#ABCAEB" stroke="#7A98B5" stroke-linecap="round" stroke-linejoin="round"/>
<path d="M350.906 70.2032L350.154 72.1856L352.408 71.4719L353.66 72.6614L356.582 74.2474L359.753 75.5954L358.585 77.7365L361.506 77.4193L363.092 78.926L358.919 80.3533L353.994 79.2432L353.326 77.1814L348.068 79.6396L341.223 81.9393L341.808 79.3225L336.549 79.7189L341.307 77.4986L344.312 73.9302L348.569 69.886L350.906 70.2032Z" fill="#ABCAEB" stroke="#7A98B5" stroke-linecap="round" stroke-linejoin="round"/>
<path d="M388.384 63.6214L384.294 63.8593L384.878 61.7182L388.05 59.26L391.639 58.7049L393.559 59.8944L392.307 61.7182L391.555 62.3526L388.384 63.6214Z" fill="#ABCAEB" stroke="#7A98B5" stroke-linecap="round" stroke-linejoin="round"/>
<path d="M326.199 55.1365L322.776 56.6432L319.271 55.3744L316.015 55.7709L313.177 53.8677L317.351 52.5196L321.441 50.6958L323.945 51.8853L325.281 52.6782L325.614 53.4712L326.199 55.1365Z" fill="#ABCAEB" stroke="#7A98B5" stroke-linecap="round" stroke-linejoin="round"/>
<path d="M370.438 168.216L368.601 165.361L371.022 158.621L369.686 157.193L366.598 157.986L365.68 156.718L361.089 160.445L358.418 164.33L356.081 166.63L353.994 167.423L352.575 167.661L351.657 168.85H343.894L337.384 168.929L335.13 169.802L329.454 173.291V173.212L328.703 172.894L327.033 173.608L325.447 174.639L323.945 173.767L320.022 174.401L316.767 175.115L315.181 175.749L313.261 177.414L314.763 177.969L316.182 177.652H316.433L316.182 179.159L312.176 179.714L309.839 180.348L308.42 181.141L306.249 180.666L304.914 180.904L302.493 182.331L298.654 183.917L296.4 183.6L298.069 181.855L301.158 179.08L304.58 177.414L305.498 175.987L306.249 173.608L309.421 170.833L310.173 167.661L311.091 170.753L314.263 171.467L316.266 169.802L315.097 165.995L314.346 164.409L311.007 163.458L307.835 162.903H304.58L301.742 162.268L301.408 161.158L300.24 161.872L299.238 161.713L300.824 160.048L299.321 159.414L300.907 157.511L299.906 156.083L301.325 154.656L296.984 153.942L296.901 151.087L296.233 150.453L293.479 150.294L290.056 149.343L288.804 149.977L287.302 151.167L284.547 151.96L281.96 153.942L277.452 152.594L273.78 153.228L270.524 151.722L266.685 150.929L263.93 150.612L263.096 149.819L263.847 147.122H262.428L261.343 149.026H252.829H238.639H224.616H212.179H199.826H187.556H174.952H170.945H158.675H146.906H146.322L141.814 144.188L140.479 142.047L134.636 139.986L135.721 135.624L138.726 132.69L135.304 130.549L137.891 126.664L136.138 123.174L138.225 120.637L142.482 118.337L145.153 115.324L141.313 112.311L142.482 106.839L143.4 103.508L142.065 101.367L141.397 99.4642L141.898 97.006L136.472 98.5126L130.128 101.129L129.878 98.1161L129.461 96.0544L127.124 94.7856L123.618 94.627L153.333 68.6965L173.867 52.5196L178.875 53.5505L181.629 55.6123L184.718 56.0088L189.976 54.2642L195.819 52.9161L200.243 53.3919L207.672 51.5681L214.516 50.5372L214.683 52.2818L218.439 51.2509L221.695 49.2684L223.448 49.7442L224.616 53.5505L232.546 50.6165L229.29 53.8677L234.299 53.154L236.97 51.9646L240.809 52.2025L244.065 53.947L250.325 55.533L254.248 56.2467L257.921 56.0088L260.341 58.2291L253.246 60.3702L258.588 61.2425L268.521 60.7667L272.194 59.9737L273.362 62.5905L279.289 60.4495L277.536 58.5463L281.292 57.1189L285.632 56.8811L288.888 56.4846L290.641 57.5154L291.893 59.8151L296.066 59.4979L300.49 61.4804L306.5 60.7667L311.508 60.846L313.511 58.1498L317.267 57.4361L321.357 58.8635L317.768 62.987L322.943 59.4979L325.614 59.6565L330.957 55.2951L329.621 52.6782L327.2 50.9337L331.791 46.2551L338.636 43.2418L342.392 43.9554L344.061 45.7793L344.395 50.5372L339.554 52.5989L345.146 53.4712L341.474 57.8326L348.902 54.5021L350.739 57.2775L347.15 60.4495L348.235 63.3835L354.328 60.2909L359.754 56.4846L363.677 51.806L368.267 52.1232L372.775 52.7575L375.78 54.8986L374.361 57.0397L370.104 59.3393L370.855 61.6389L368.852 63.78L359.754 66.8726L354.328 67.5863L351.657 66.2382L348.902 68.4586L342.726 72.1856L340.222 74.1681L333.794 77.1814L328.369 77.4986L324.112 79.4018L321.691 82.4151L316.934 82.9702L309.672 86.6972L301.826 91.8516L297.652 95.4993L293.562 100.971L298.57 101.764L297.318 106.125L296.65 109.773L302.744 108.821L308.587 110.883L311.341 112.707L312.76 114.927L316.85 116.275L319.855 118.258L326.199 118.575L330.205 119.051L327.2 123.174L325.781 128.012L325.865 133.483L329.538 138.162L333.461 136.576L338.135 131.501L340.055 123.888L338.636 121.351L346.148 119.051L352.408 115.72L356.415 112.39L357.834 109.218L357.5 105.174L354.829 101.605L362.258 96.6888L363.092 92.486L366.348 85.3491L369.52 84.2389L375.112 85.5077L378.618 85.9835L382.374 84.7147L384.961 86.3007L387.966 88.9968L388.133 90.7414L394.56 91.1379L392.39 95.0235L390.47 100.892L393.642 101.685L394.978 104.46L401.822 101.843L408.082 96.6095L411.588 94.4684L412.506 98.6712L414.677 104.619L416.346 110.328L413.508 113.341L417.515 116.038L419.935 118.734L425.695 120.002L427.698 121.509V125.633L430.536 126.267L431.454 128.091L429.785 133.562L426.195 135.386L422.69 137.131L415.344 138.875L408.75 142.84L401.572 143.713L393.141 142.602H387.048L382.624 142.92L377.866 146.488L371.69 148.708L363.259 155.211L356.665 159.81L360.588 159.017L369.686 152.435L379.953 148.312L386.297 147.836L389.051 150.294L383.96 153.625L383.459 158.938L383.542 162.744L388.217 165.202L395.395 164.489L401.405 158.859L400.57 162.506L402.657 164.33L396.48 167.581L386.13 170.595L381.289 172.577L375.279 176.225L372.191 175.828L373.443 171.626L382.123 167.423L375.362 167.581L370.438 168.216Z" fill="#ABCAEB" stroke="#7A98B5" stroke-linecap="round" stroke-linejoin="round"/>
<path d="M281.542 38.3253L277.619 40.2284L286.384 39.0389L288.554 41.1007L294.647 38.9596L296.15 40.3077L294.313 44.3519L297.903 42.6867L300.24 38.4839L303.829 37.8495L306.333 38.4839L308.169 40.1491L305.916 44.1933L303.912 47.1274L307.418 49.1891L311.592 51.2509L309.421 53.0747L303.495 53.4712L304.163 55.0572L301.492 56.6432L295.899 56.0088L291.141 54.8193L286.885 55.0572L278.955 56.5639L269.523 57.1982L262.929 57.5947L263.179 55.533L259.757 54.4228L256.168 54.8986L255.667 51.4888L258.421 51.013L264.515 50.2993L269.105 50.5372L274.281 49.7442L268.855 48.7926L261.259 49.1098L256.502 49.0305V47.5239L266.268 45.7793L261.009 45.8586L256.502 44.7484L263.012 41.6558L267.353 39.9905L279.205 37.5323L281.542 38.3253Z" fill="#ABCAEB" stroke="#7A98B5" stroke-linecap="round" stroke-linejoin="round"/>
<path d="M314.513 37.1358L308.67 39.8319L306.75 36.9772L308.503 36.3428L313.094 36.1842L314.513 37.1358Z" fill="#ABCAEB" stroke="#7A98B5" stroke-linecap="round" stroke-linejoin="round"/>
<path d="M405.161 38.4046L404.577 39.5147L401.154 39.4354L397.732 39.3561L393.642 39.9112L392.891 39.594L391.138 37.453L392.557 36.0256L394.393 35.7084L401.405 36.1842L405.161 38.4046Z" fill="#ABCAEB" stroke="#7A98B5" stroke-linecap="round" stroke-linejoin="round"/>
<path d="M371.94 38.1667L372.19 40.7042L378.2 37.453L387.966 35.7877L389.886 39.9905L387.215 42.6867L394.727 41.4972L399.151 39.8319L404.827 41.8937L407.916 43.8761L406.997 45.7L413.842 44.7484L415.428 47.4446L422.439 49.1098L424.276 50.7751L425.027 54.8193L417.431 56.8018L423.858 59.6565L428.783 60.6081L431.537 64.573L436.963 64.8902L434.209 67.9828L425.11 73.1372L421.772 71.234L418.6 66.9519L413.675 67.507L411.755 70.1239L414.009 72.6614L417.765 74.7232L418.6 75.9126L418.516 80.4326L415.511 83.6839L411.588 82.4151L404.41 78.8467L407.415 82.7323L409.752 85.5077L409.501 87.0937L400.403 85.2698L394.06 82.5737L390.888 80.4326L392.891 79.0846L388.884 76.7849L384.961 74.6439L384.21 75.9126L373.276 76.6263L371.272 75.1196L375.78 71.7891L382.541 71.7098L390.303 71.1547L390.136 69.5688L392.724 67.3484L400.069 63.0663L400.403 61.0839L399.986 59.6565L396.063 57.5154L390.136 56.0881L393.058 54.9779L391.389 52.2818L388.551 52.0439L386.965 50.6165L384.21 51.8853L377.616 52.4403L365.93 51.4888L359.754 50.22L354.829 49.5856L353.243 48.0789L358.501 46.1758H353.744L356.498 41.973L362.425 38.3253L367.433 36.66L376.781 35.5498L371.94 38.1667Z" fill="#ABCAEB" stroke="#7A98B5" stroke-linecap="round" stroke-linejoin="round"/>
<path d="M329.871 35.3912L332.876 36.2635L339.22 35.7084L338.803 36.8979L333.711 38.8804L336.883 40.6249L332.542 44.3519L325.531 45.9379L322.693 45.6207L321.942 44.0347L317.017 40.8628L318.436 39.5147L324.613 39.9905L323.862 37.3737L329.871 35.3912Z" fill="#ABCAEB" stroke="#7A98B5" stroke-linecap="round" stroke-linejoin="round"/>
<path d="M348.736 39.7526L342.225 42.8453L338.552 42.6867L340.055 39.0389L342.225 37.0565L345.731 35.3119L350.071 34.2018L356.665 34.3604L361.84 35.3119L353.41 38.9597L348.736 39.7526Z" fill="#ABCAEB" stroke="#7A98B5" stroke-linecap="round" stroke-linejoin="round"/>
<path d="M252.078 45.4621L240.809 47.5239L241.31 45.7L236.302 43.4796L239.975 41.7351L246.235 38.7218L252.578 36.0256L252.912 33.5674L264.598 32.933L268.104 33.8053L276.033 34.0432L277.619 35.1533L278.955 36.8979L273.529 37.9288L261.927 40.7835L254.248 43.7175L252.078 45.4621Z" fill="#ABCAEB" stroke="#7A98B5" stroke-linecap="round" stroke-linejoin="round"/>
<path d="M356.582 30.8712L353.159 32.3779L348.819 32.0607L346.148 31.0298L349.904 29.2853L355.664 28.1751L356.832 29.6025L356.582 30.8712Z" fill="#ABCAEB" stroke="#7A98B5" stroke-linecap="round" stroke-linejoin="round"/>
<path d="M349.236 23.9723L349.403 25.7961L347.066 27.7786L342.225 30.7919L336.465 31.1884L333.794 30.554L336.632 28.2544L331.123 28.4923L334.713 25.4789L337.884 25.6375L344.312 24.2895L348.402 24.5274L349.236 23.9723Z" fill="#ABCAEB" stroke="#7A98B5" stroke-linecap="round" stroke-linejoin="round"/>
<path d="M316.349 26.034L315.765 27.3821L319.438 26.7477L322.443 26.9063L320.523 28.8888L316.266 30.7126L304.664 31.347L294.397 33.0916L289.389 33.1709L290.641 31.9021L299.572 30.0782L284.631 30.554L281.125 29.8404L290.891 26.034L295.398 24.9239L302.326 26.2719L304.747 28.5716L309.839 28.8888L310.423 25.1618L315.264 23.7344L317.852 24.1309L316.349 26.034Z" fill="#ABCAEB" stroke="#7A98B5" stroke-linecap="round" stroke-linejoin="round"/>
<path d="M362.842 22.5449L364.762 23.8137H370.938L372.107 25.0825L369.77 26.5098L372.357 27.3821L373.359 28.3337L377.449 28.4923L381.706 28.8095L387.632 28.0165L394.393 27.62L399.235 27.9372L401.154 29.4439L400.32 31.0298L397.315 32.14L391.722 33.0123L388.133 32.4572L378.284 33.0916L371.606 33.1709L366.932 32.6951L359.754 31.4263L361.089 29.206L362.842 27.3028L361.673 25.5582L355.83 25.0825L353.66 23.893L356.832 22.307L362.842 22.5449Z" fill="#ABCAEB" stroke="#7A98B5" stroke-linecap="round" stroke-linejoin="round"/>
<path d="M299.655 20.4832L294.814 23.4172L290.39 24.7653L287.218 24.9239L278.955 26.5891L273.028 27.2235L270.024 26.3512L279.79 23.4172L289.973 20.9589L294.564 21.0382L299.655 20.4832Z" fill="#ABCAEB" stroke="#7A98B5" stroke-linecap="round" stroke-linejoin="round"/>
<path d="M367.433 20.9589L365.93 21.0382L360.421 20.8004L361.006 19.7695L367.015 19.8488L368.351 20.4832L367.433 20.9589Z" fill="#ABCAEB" stroke="#7A98B5" stroke-linecap="round" stroke-linejoin="round"/>
<path d="M318.353 20.2453L311.007 21.3554L308.253 20.166L312.51 18.9765L317.518 18.58L320.94 19.1351L318.353 20.2453Z" fill="#ABCAEB" stroke="#7A98B5" stroke-linecap="round" stroke-linejoin="round"/>
<path d="M324.863 16.9147L320.105 17.6284H315.097L315.932 17.0733L320.69 16.0425L322.109 16.2011L324.863 16.9147Z" fill="#ABCAEB" stroke="#7A98B5" stroke-linecap="round" stroke-linejoin="round"/>
<path d="M363.927 18.8972L358.418 19.6902L357.083 18.8179L357.583 17.4698L359.42 15.9632L363.092 16.1218L364.511 16.3596L366.431 17.6284L363.927 18.8972Z" fill="#ABCAEB" stroke="#7A98B5" stroke-linecap="round" stroke-linejoin="round"/>
<path d="M352.408 17.9456L351.49 19.4523L347.066 19.0558L343.727 17.8663L337.217 17.7077L341.641 16.6768L339.304 15.8046L341.14 14.3772L346.231 14.853L352.492 16.2011L352.408 17.9456Z" fill="#ABCAEB" stroke="#7A98B5" stroke-linecap="round" stroke-linejoin="round"/>
<path d="M397.565 13.1084L399.819 14.2979L394.393 15.3288L385.546 18.1042L379.87 18.3421L374.194 17.8663L372.858 16.3596L374.611 15.0909L378.2 14.1393H372.691L371.022 12.9498L371.356 11.4432L375.446 9.93649L378.868 8.90561L382.207 8.66772L381.956 7.87474L388.884 7.71614L390.22 9.4607L394.143 10.1744L398.15 10.8881L397.565 13.1084Z" fill="#ABCAEB" stroke="#7A98B5" stroke-linecap="round" stroke-linejoin="round"/>
<path d="M463.673 2.00667L470.935 2.24456L476.528 2.64105L480.868 3.43403L479.95 4.22702L471.77 5.57509L464.258 6.20947L460.919 6.92316H467.179L458.415 8.90561L452.739 9.85719L444.976 12.6326L438.215 13.1877L435.627 13.9807L426.195 14.2979L429.868 14.7737L427.114 15.4081L427.698 17.2319L423.524 18.5007L417.765 19.5316L414.844 20.9589L409.335 22.1484L408.917 23.0207L414.343 22.8621L413.425 23.8137L402.824 26.1133L395.729 25.0032L385.963 25.6375L381.79 25.1618L376.114 24.9239L377.866 23.1L384.544 22.2277L386.213 19.5316L388.384 19.2937L394.644 20.8796L393.225 18.5007L389.135 17.787L393.308 16.3596L399.652 15.4874L401.989 14.2186L399.485 12.8705L400.403 11.126L408.249 11.2053L410.086 11.6018L416.179 10.333L410.086 9.93649L399.569 10.1744L395.896 9.06421L395.228 7.71614L393.141 6.76456L394.06 5.73368L399.068 5.0993L402.573 5.02L408.75 4.54421L414.426 3.35474L417.681 3.51333L419.685 4.38561L423.858 2.79965L428.199 2.32386L433.624 2.00667L442.305 1.84807L443.39 2.16526L451.988 1.68947L457.83 1.84807L463.673 2.00667Z" fill="#ABCAEB" stroke="#7A98B5" stroke-linecap="round" stroke-linejoin="round"/>
<path d="M261.176 341.958L262.177 344.734L263.847 346.795L265.934 348.937L264.097 349.412L264.014 351.474L264.932 352.188L264.181 352.822L264.348 353.694L263.847 354.725L263.596 355.756L261.092 354.646L260.174 353.536L260.758 352.664L260.675 351.553L259.423 350.364L257.587 349.333L256.084 348.699L255.834 347.192L254.665 346.32L254.832 347.747L253.83 349.016L252.829 347.588L251.41 347.033L250.826 346.082L250.909 344.496L251.66 342.91L250.408 342.196L251.577 341.165L252.328 340.531L255.333 341.879L256.418 341.245L257.921 341.641L258.588 342.672L260.007 343.068L261.176 341.958Z" fill="#ABCAEB" stroke="#7A98B5" stroke-linecap="round" stroke-linejoin="round"/>
<path d="M286.384 281.771L287.97 283.595L292.31 283.04L293.812 284.229L297.318 287.401L299.989 289.701L301.492 289.621L304.163 290.652L303.662 292.08L307.001 292.318L310.256 294.379L309.588 295.569L306.416 296.203L303.245 296.441L300.156 296.045L293.395 296.52L296.901 293.745L295.148 292.397L292.143 292.08L290.724 290.573L290.056 287.718L287.385 287.877L283.212 286.529L281.96 285.419L276.033 284.626L274.531 283.674L276.451 282.405L271.943 282.167L268.271 284.784L266.351 284.863L265.516 286.132L263.179 286.687L261.259 286.132L263.93 284.626L265.182 282.722L267.436 281.612L269.94 280.661L273.529 280.185L274.698 279.551L278.621 279.947L282.294 280.026L286.384 281.771Z" fill="#ABCAEB" stroke="#7A98B5" stroke-linecap="round" stroke-linejoin="round"/>
<path d="M320.523 305.798L320.773 304.371L319.688 302.864L320.94 301.992L321.524 300.009L321.441 297.313L322.109 296.441H325.698L328.369 297.71L329.621 297.631L330.205 299.454L332.793 299.296L332.459 300.802L334.546 301.04L336.632 302.864L334.713 304.926L332.542 303.816L330.372 304.054L328.87 303.816L327.952 304.767L326.115 305.085L325.531 303.816L323.945 304.529L321.691 308.019L320.606 307.226L320.523 305.798Z" fill="#ABCAEB" stroke="#7A98B5" stroke-linecap="round" stroke-linejoin="round"/>
<path d="M579.78 0.817193L596.39 3.19614L590.798 4.30632L579.947 4.46491L564.505 4.78211L565.673 5.33719L575.94 4.9407L584.037 6.05088L589.88 5.0993L591.883 6.20947L588.127 8.11263L595.806 6.84386L610.079 5.65439L618.426 6.28877L619.845 7.63684L607.492 9.93649L605.655 10.7295L596.14 11.3639L602.901 11.5225L598.811 14.06L595.806 16.3596L594.804 20.4832L597.893 23.0207L592.968 23.1L587.542 24.3688L592.801 26.4305L592.717 29.7611L589.212 30.1575L592.634 33.5674L585.372 33.8846L588.711 35.4705L587.375 36.8979L582.618 37.5323L578.027 37.6116L581.533 40.3077L581.115 42.2109L575.022 40.4663L573.019 41.5765L577.192 42.6074L581.032 45.1449L581.533 48.5547L575.356 49.3477L573.102 47.6825L569.596 45.3035L570.014 48.1582L565.506 50.3786L574.438 50.5372L579.028 50.7751L569.096 54.5021L558.912 57.9119L548.312 59.3393L544.472 59.4186L540.382 61.0839L534.122 65.6832L525.608 68.7758L523.104 69.0137L518.012 70.0446L512.503 71.1547L508.497 73.8509L507.328 77.0228L504.49 80.0361L497.312 83.6839L497.562 87.2523L494.557 91.0586L491.135 95.5786L485.709 95.8958L481.536 92.0895L474.024 92.0102L471.353 89.4726L470.685 85.0319L466.678 79.3225L466.094 76.3884L467.346 72.3442L464.258 68.3L467.012 65.0488L465.426 63.4628L471.269 58.3877L477.279 56.7225L479.449 54.9779L481.786 51.6474L477.195 53.154L475.025 53.7884L471.603 54.3435L468.097 52.9954L469.349 50.0614L471.853 47.8411L475.025 47.7618L481.369 48.9512L476.945 46.2551L474.691 44.8277L471.019 45.3828L468.848 44.3519L474.691 40.5456L473.606 38.9596L472.688 36.1842L471.519 31.9021L468.515 30.3954L469.683 28.7302L462.922 26.4305L456.495 26.1133L448.064 26.2719L440.135 26.5891L437.547 25.3204L434.375 22.8621L443.557 21.6726L449.901 21.514L437.714 20.4832L432.289 18.9765L434.125 17.5491L447.23 15.8046L459.75 14.06L462.087 12.7912L455.326 11.5225L459.166 10.1744L471.436 7.87474L475.943 7.55754L476.11 6.13018L483.623 5.25789L492.804 4.78211H501.485L503.822 5.73368L512.67 3.98912L518.596 5.1786L522.436 5.41649L527.611 6.44737L522.019 4.78211L523.354 3.43403L533.955 1.68947L543.637 1.84807L547.894 0.737895L557.827 0.5L579.78 0.817193Z" fill="#ABCAEB" stroke="#7A98B5" stroke-linecap="round" stroke-linejoin="round"/>
<path d="M265.349 321.261L263.763 321.182L263.012 321.896L261.343 322.53H260.174L259.089 323.165L258.171 323.006L257.42 322.213L256.919 322.372L256.168 323.561L255.75 323.482L255.583 324.592L253.83 325.94L252.829 326.574L252.328 327.209L251.076 326.178L249.907 327.526H248.906L247.821 327.605L247.654 330.143H246.986L246.318 331.332L244.816 331.57L244.148 329.984L242.729 329.508L243.313 327.447L242.729 326.892L241.727 326.574L239.641 327.129L239.557 326.495L238.222 325.623L237.303 324.671L235.968 324.195L237.053 322.927L236.803 321.896L237.22 320.944L239.641 319.517L241.978 317.534L242.479 317.772L243.564 316.9L244.899 316.821L245.317 317.217L246.068 316.979L248.238 317.455L250.408 317.296L251.911 316.741L252.578 316.186L253.997 316.424L255.083 316.741L256.335 316.662L257.336 316.186L259.423 316.9L260.091 317.059L261.426 318.01L262.678 319.12L264.264 319.913L265.349 321.261Z" fill="#ABCAEB" stroke="#7A98B5" stroke-linecap="round" stroke-linejoin="round"/>
<path d="M321.441 297.313L321.524 300.009L320.94 301.992L319.688 302.864L320.773 304.371L320.523 305.798L317.518 304.926L315.264 305.243L312.426 304.926L310.173 305.878L307.835 304.292L308.42 302.626L312.677 303.34L316.099 303.737L317.935 302.626L316.015 300.406L316.349 298.424L313.428 297.631L314.68 296.282L317.518 296.441L321.441 297.313Z" fill="#ABCAEB" stroke="#7A98B5" stroke-linecap="round" stroke-linejoin="round"/>
<path d="M603.569 66.714L602.4 69.5688L606.073 72.5821L600.981 75.9919L590.046 79.0846L586.791 79.9568L582.117 79.2432L572.184 77.8158L576.191 75.8333L568.678 73.6923L575.272 72.82L575.356 71.4719L568.01 70.4411L571.015 67.507L576.524 66.8726L581.533 69.886L587.375 67.507L591.632 68.6965L597.726 66.3968L603.569 66.714Z" fill="#ABCAEB" stroke="#7A98B5" stroke-linecap="round" stroke-linejoin="round"/>
<path d="M296.15 306.671L294.647 307.543L292.143 306.671L289.722 304.847L290.39 303.657L292.393 303.34L293.479 303.499L296.567 303.974L298.821 305.164L299.488 306.591L296.15 306.671Z" fill="#ABCAEB" stroke="#7A98B5" stroke-linecap="round" stroke-linejoin="round"/>
<path d="M206.67 266.07L208.506 265.911L205.835 270.431L204.333 274.079L202.831 280.899L201.912 283.357L202.246 286.132L203.331 288.67L203.665 292.555L206.169 296.362L206.837 299.296L208.256 301.754L213.014 303.102L214.6 305.243L218.94 303.816L222.529 303.34L226.202 302.388L229.207 301.516L232.462 299.454L233.965 296.52L234.966 292.238L235.968 290.732L239.307 289.383L244.398 288.194L248.488 288.432L251.326 287.956L252.328 289.066L251.827 291.525L248.906 294.538L247.403 297.631L248.155 298.503L247.153 300.723L245.4 304.688L244.398 303.34L243.48 303.419L242.562 303.499L240.475 306.591L239.724 305.957L239.14 306.195L239.056 306.988L234.716 306.908H230.376L229.958 309.763L227.871 309.842L229.374 311.508L230.96 312.697L231.377 313.807L232.045 314.125L231.711 315.869H225.701L222.947 319.993L223.531 320.944L222.863 322.134L222.529 323.64L217.855 318.169L215.685 316.504L212.012 315.155L209.341 315.552L205.335 317.455L202.914 317.931L199.826 316.583L196.403 315.631L192.397 313.332L188.975 312.618L184.05 310.239L180.461 307.781L179.542 306.433L176.955 306.115L172.448 304.529L170.862 302.23L166.354 299.296L164.518 296.124L163.85 293.586L165.436 293.111L165.186 291.683L166.521 290.335L166.855 288.591L165.603 286.291V284.308L164.518 281.692L161.346 276.616L157.506 272.652L155.921 269.48L152.498 267.418L151.914 266.149L153.333 263.056L151.33 261.867L149.243 259.329L149.076 255.84L146.739 255.365L144.819 252.748L143.4 250.21L143.651 248.624L142.398 244.818L142.148 240.932L142.816 238.95L140.228 236.888L138.642 237.126L136.639 235.778L135.137 237.84L135.053 240.219L134.218 244.104L135.053 246.166L137.39 249.655L137.724 250.924L138.308 251.241L138.392 252.986L139.227 252.906V256.237L140.312 257.506L140.729 259.329L142.983 261.867L143.317 266.625L144.151 268.845L144.903 271.224L144.652 273.92L146.822 274.079L148.158 276.379L149.41 278.678L149.16 279.63L146.822 281.454H145.988L145.403 278.361L142.983 275.427L140.145 272.969L138.058 271.7L139.06 267.973L138.976 265.198L137.223 263.612L134.636 261.391L133.885 262.026L133.05 260.678L130.546 259.488L128.709 256.475L129.127 256.158L130.88 256.395L133.133 254.492L133.968 252.193L131.547 248.545L129.377 247.197L128.709 244.025L128.209 240.615L127.541 236.571L127.374 231.972L132.633 231.575L138.559 231.02L137.808 232.051L143.651 234.509L152.749 238.078H161.763H165.353L166.02 235.936H173.867L174.952 237.76L176.705 239.426L178.708 241.646L179.376 244.263L179.709 247.118L181.629 248.624L184.968 250.131L188.975 246.166L192.731 246.007L195.402 248.069L196.737 251.558L197.488 254.572L199.492 257.426L199.659 260.995L200.41 263.374L203.665 264.96L206.67 266.07Z" fill="#ABCAEB" stroke="#7A98B5" stroke-linecap="round" stroke-linejoin="round"/>
<path d="M265.349 321.261L264.932 321.816L264.515 322.927L264.848 324.751L263.596 326.495L262.929 328.557L262.511 330.777L262.678 332.125L262.595 334.425L261.844 334.901L261.259 337.121L261.426 338.469L260.425 339.738L260.508 341.086L261.176 341.958L260.007 343.068L258.588 342.672L257.92 341.641L256.418 341.245L255.333 341.879L252.328 340.531L251.577 341.165L250.074 339.579L247.988 337.518L247.069 335.852L245.233 334.187L243.146 331.887L243.731 331.094L244.398 331.887L244.816 331.57L246.318 331.332L246.986 330.143H247.654L247.821 327.605L248.906 327.526H249.907L251.076 326.178L252.328 327.209L252.829 326.574L253.83 325.94L255.583 324.592L255.75 323.482L256.168 323.561L256.919 322.372L257.42 322.213L258.171 323.006L259.089 323.165L260.174 322.53H261.343L263.012 321.896L263.763 321.182L265.349 321.261Z" fill="#ABCAEB" stroke="#7A98B5" stroke-linecap="round" stroke-linejoin="round"/>
<path d="M290.14 353.536L289.556 354.249L290.474 357.263L289.556 358.769L288.053 358.373L287.302 360.831L285.799 359.404L284.965 356.628L286.133 355.28L284.965 354.963L284.214 353.298L281.876 351.871L279.873 352.188L278.788 353.932L276.785 355.201L275.783 355.36L275.282 356.47L277.369 359.245L276.033 359.88L275.366 360.593L273.112 360.911L272.444 357.818L271.777 358.69L270.274 358.373L269.439 356.391L267.52 355.994L266.268 355.439H264.264L264.097 356.549L263.596 355.756L263.847 354.725L264.348 353.694L264.181 352.822L264.932 352.188L264.014 351.474L264.097 349.412L265.934 348.936L267.52 350.76L267.353 351.871L269.189 352.108L269.69 351.633L270.942 352.901L273.279 352.505L275.366 351.236L278.287 350.205L279.957 348.699L282.544 349.016L282.377 349.492L284.965 349.65L286.968 350.602L288.47 352.108L290.14 353.536Z" fill="#ABCAEB" stroke="#7A98B5" stroke-linecap="round" stroke-linejoin="round"/>
<path d="M242.729 329.508L242.145 330.698L239.39 330.619L237.721 330.143L235.885 329.112L233.38 328.795L232.128 327.685L232.379 326.971L234.048 325.702L235.05 325.147L234.799 324.513L235.968 324.195L237.304 324.671L238.222 325.623L239.557 326.495L239.641 327.129L241.727 326.574L242.729 326.892L243.313 327.447L242.729 329.508Z" fill="#ABCAEB" stroke="#7A98B5" stroke-linecap="round" stroke-linejoin="round"/>
<path d="M281.96 153.942L276.868 155.528L272.945 157.511L269.105 159.652L268.688 160.365L273.446 159.334L275.199 161L279.038 159.81L283.128 158.145L287.636 156.48L285.048 159.096L287.135 159.731L289.222 161.634L293.479 160.524L297.736 160.127L297.986 161.555L299.238 161.713L300.24 161.872L301.492 163.854L297.569 164.33H297.485L294.397 163.775L290.641 164.727L287.552 165.202L283.629 168.454L281.125 170.278L281.459 170.833L286.05 167.581H286.634L282.711 171.467L280.29 174.956L278.204 177.811L277.703 180.269L277.035 181.459L276.534 182.807L276.618 185.424L276.868 185.82L278.371 185.741L279.706 185.186L280.875 184.551L283.629 182.093L285.132 178.762L285.048 175.67L286.217 173.529L288.387 171.071L290.14 169.326L292.393 168.136L292.06 169.802L293.896 167.344L294.981 166.868L296.4 164.965L299.572 165.995L301.909 167.899L301.241 170.198L299.906 172.498L296.734 174.48L296.4 175.749H297.235L300.824 173.608L302.159 174.084L301.742 177.018L301.158 179.08L298.069 181.855L296.4 183.6L294.146 185.503L296.4 186.534L298.487 186.851L301.826 186.137L304.914 184.789L307.418 184.075L311.258 182.648L316.099 179.635L316.182 179.159L316.433 177.652L318.686 177.018L321.942 177.256L325.281 177.652L329.12 175.987L329.621 174.005L329.454 173.291L335.13 169.802L337.384 168.929L343.894 168.85H351.657L352.575 167.661L353.994 167.423L356.081 166.63L358.418 164.33L361.089 160.445L365.68 156.718L366.598 157.986L369.686 157.193L371.022 158.621L368.601 165.361L370.438 168.216L370.605 169.881L365.263 172.26L360.254 174.005L355.246 175.511L351.907 178.525L350.822 179.635L349.821 182.331L350.405 184.948L352.158 185.106L352.325 183.282L353.243 184.393L352.408 185.82L349.236 186.613L347.15 186.534L343.644 187.406L341.724 187.644L339.137 187.882L334.963 189.388L341.724 188.437L342.642 189.388L336.048 190.895H333.294L333.628 190.261L331.875 191.688L333.043 191.926L330.956 195.574L326.533 199.459L326.616 198.111L325.698 197.873L324.696 196.605V199.38L325.531 200.252L325.03 202.155L323.027 204.138L319.271 208.182L318.937 208.024L321.357 204.534L319.688 202.631L320.523 198.349L318.937 200.569V203.821L316.266 203.028L318.77 204.614L317.518 209.451L318.686 209.847V211.592L317.852 216.667L314.012 220.394L308.92 221.901L305.248 224.914L302.911 225.231L300.073 227.134L298.988 228.8L293.228 232.13L290.056 234.588L287.135 237.602L285.549 241.17V244.739L286.05 249.1L287.302 252.668L286.885 254.889L287.97 260.757L287.135 264.246L286.634 266.228L284.965 269.321L283.462 269.955L281.292 269.321L280.958 267.101L279.456 265.911L277.786 261.55L276.451 257.664L276.117 255.682L277.786 252.272L277.119 249.496L274.531 245.214L272.945 244.421L267.853 246.8L267.102 246.483L265.433 244.104L262.929 242.835L257.587 243.549L253.747 242.915L250.158 243.311L248.071 244.104L248.572 245.452L247.988 247.514L248.655 248.545L247.654 249.179L246.151 248.466L244.231 249.417L240.976 249.259L238.222 246.562L234.132 247.197L231.127 246.007L228.205 246.404L224.032 247.593L218.94 251.32L213.849 253.541L210.76 255.92L209.174 258.219L208.34 261.788L208.006 264.167L208.506 265.911L206.67 266.07L203.665 264.96L200.41 263.374L199.659 260.995L199.492 257.426L197.488 254.572L196.737 251.558L195.402 248.069L192.731 246.007L188.975 246.166L184.968 250.131L181.629 248.624L179.709 247.118L179.376 244.263L178.708 241.646L176.704 239.426L174.952 237.76L173.867 235.936H166.02L165.353 238.078H161.763H152.749L143.65 234.509L137.808 232.051L138.559 231.02L132.633 231.575L127.374 231.972L127.624 229.434L125.871 226.5L124.035 225.866L124.119 224.438L121.698 224.121L120.696 222.773L116.69 222.297L115.939 221.425L116.606 218.649L114.52 213.574L114.102 206.517L114.853 205.327L113.768 203.662L112.516 199.38L114.019 195.257L113.268 192.481L116.523 188.278L118.86 183.996L119.778 180.111L124.369 175.353L127.708 170.833L131.047 166.313L134.636 159.572L136.138 155.369L136.472 153.07L137.641 152.039L142.482 153.784L141.647 158.462L143.484 157.114L145.57 153.07L146.906 149.026H158.675H170.945H174.952H187.556H199.826H212.179H224.616H238.639H252.829H261.343L262.428 147.122H263.847L263.096 149.819L263.93 150.612L266.685 150.929L270.524 151.722L273.78 153.228L277.452 152.594L281.96 153.942Z" fill="#ABCAEB" stroke="#7A98B5" stroke-linecap="round" stroke-linejoin="round"/>
<path d="M61.1825 109.614L55.3396 111.438L54.6718 110.169L56.5916 107.949L61.9337 106.284L64.8551 105.57L67.0253 105.887V107.394L61.1825 109.614Z" fill="#ABCAEB" stroke="#7A98B5" stroke-linecap="round" stroke-linejoin="round"/>
<path d="M28.6293 96.4509L25.374 97.1646L23.955 96.2923L23.2872 95.0235L28.045 94.2305L30.5491 94.7063L28.6293 96.4509Z" fill="#ABCAEB" stroke="#7A98B5" stroke-linecap="round" stroke-linejoin="round"/>
<path d="M29.6309 78.6881L30.6326 79.481L33.554 79.0846L34.8895 80.274L37.644 80.8291L36.6424 81.3842L32.5524 82.3358L31.1334 81.3049L30.883 80.5119L27.2938 80.7498L27.0434 80.3533L29.6309 78.6881Z" fill="#ABCAEB" stroke="#7A98B5" stroke-linecap="round" stroke-linejoin="round"/>
<path d="M173.867 52.5196L153.333 68.6965L123.618 94.627L127.124 94.7856L129.461 96.0544L129.878 98.1161L130.128 101.129L136.472 98.5126L141.898 97.006L141.397 99.4642L142.065 101.367L143.4 103.508L142.482 106.839L141.313 112.311L145.153 115.324L142.482 118.337L138.225 120.637L137.724 118.892L135.637 117.306L138.392 113.183L137.056 109.297L139.31 104.856L135.888 104.539L129.961 104.46L126.79 103.033L124.035 98.1954L121.281 97.3232L116.523 95.6579L110.847 96.0544L105.839 93.9133L103.585 91.9309L98.3265 92.8825L95.405 96.1337L92.9844 96.4509L87.4754 97.4025L82.3003 98.9884L76.9582 100.019L79.6293 97.2439L86.6407 92.6446L92.3166 91.2172L92.6505 90.107L84.8044 92.6446L78.6276 95.7372L69.279 99.0677L69.446 101.367L61.9337 104.698L55.5065 106.68L49.9975 108.187L46.6587 110.249L37.8109 112.707L34.0548 114.927L27.2103 116.989L24.9566 116.672L19.7815 117.941L13.9386 119.606L8.84697 121.192L0.5 122.619L0.833874 121.747L7.67839 119.527L13.1874 118.02L20.3658 115.403L25.7913 114.927L29.9648 112.945L38.6456 110.09L40.5655 109.139L45.3232 107.473L50.1645 103.905L55.3396 101.129L49.2463 102.557L48.9959 101.685L44.9059 103.429L45.2397 101.05L42.2348 102.715L43.5704 100.416L37.4771 102.24H35.1399L38.2283 99.4642L40.9828 97.7196L40.6489 96.0544L34.6391 97.006L34.1383 94.7856L33.0532 93.6754L36.392 91.0586L36.0581 89.0761L40.9828 86.4593L47.41 83.8425L51.8338 81.5428L55.2561 81.2256L56.7586 81.9393L62.6849 79.719L64.7716 80.1154L69.446 78.6881L71.5327 76.6263L70.6145 75.8333L75.6227 74.0888L73.2856 74.1681L68.1104 75.1196L65.6898 76.1505L64.1874 75.1196L58.428 75.6747L54.5884 74.5646L55.59 72.7407L54.7553 70.2032L62.4345 68.3L73.4525 66.159H76.374L72.7847 68.3793L80.464 68.2207L81.4656 65.4453L79.5458 63.78L80.2135 61.5597L79.6293 59.7358L76.8748 58.3877L82.3003 56.0881L88.5605 55.9295L95.9059 54.0263L99.9124 51.9646L106.506 49.9028L110.513 49.427L119.862 47.5239L122.449 47.8411L131.13 45.6207L134.803 46.493L134.385 48.3961L137.14 47.6032L142.398 47.8411L140.813 48.7926L144.903 49.5063L148.993 49.1098L154.168 50.3786L160.178 50.8544L162.014 51.3302L167.523 50.6958L170.945 51.9646L173.867 52.5196Z" fill="#ABCAEB" stroke="#7A98B5" stroke-linecap="round" stroke-linejoin="round"/>
<path d="M326.533 334.346L326.115 334.187L325.698 333.791L325.781 333.315L325.948 333.553L326.282 333.87L326.533 334.266V334.346Z" fill="#ABCAEB" stroke="#7A98B5" stroke-linecap="round" stroke-linejoin="round"/>
<path d="M361.006 304.927H360.839L361.089 304.609H361.34L361.173 304.847L361.006 304.927Z" fill="#ABCAEB" stroke="#7A98B5" stroke-linecap="round" stroke-linejoin="round"/>
<path d="M366.431 310.477L366.932 310.715L366.765 310.953H366.598L366.014 311.032L365.847 310.953V310.556L366.097 310.477L366.181 310.239H366.348L366.431 310.477Z" fill="#ABCAEB" stroke="#7A98B5" stroke-linecap="round" stroke-linejoin="round"/>
<path d="M366.431 307.543H366.598L366.765 307.701L366.848 308.019L366.765 308.256L366.598 308.336L366.515 308.177L366.264 308.019V307.622L366.431 307.543Z" fill="#ABCAEB" stroke="#7A98B5" stroke-linecap="round" stroke-linejoin="round"/>
<path d="M316.099 289.939L315.765 290.335L315.598 290.732L315.097 290.969H314.68L314.596 290.89L314.263 291.049L313.845 291.128L313.344 290.969L313.011 291.049L312.927 290.652L313.177 290.494L313.344 290.256L313.678 290.097L313.929 289.78H314.263L314.513 289.621L314.68 289.859L315.097 290.018L315.515 289.859L316.099 289.066H316.349V289.225L316.099 289.939Z" fill="#ABCAEB" stroke="#7A98B5" stroke-linecap="round" stroke-linejoin="round"/>
<path d="M316.266 288.591L316.099 288.115L316.6 287.877L316.85 288.115V288.273L316.6 288.353L316.266 288.591Z" fill="#ABCAEB" stroke="#7A98B5" stroke-linecap="round" stroke-linejoin="round"/>
<path d="M316.6 283.436L316.767 283.357L317.184 283.595H317.518L317.852 283.674L318.102 283.833V284.071L317.935 284.15L317.518 283.833H317.184L317.101 283.753L316.683 283.912L316.266 283.753V283.674L316.433 283.278L316.6 283.436Z" fill="#ABCAEB" stroke="#7A98B5" stroke-linecap="round" stroke-linejoin="round"/>
<path d="M313.344 282.009L313.177 282.326V282.881L313.094 283.198L312.76 283.436L312.593 283.753L312.259 283.991L311.675 284.229L311.591 284.388L311.425 284.229L311.508 284.071L311.842 283.991L312.009 283.833V283.674L312.343 283.595L312.51 283.278L312.844 283.198L313.094 282.881L312.927 282.643H312.593L312.426 282.485L312.76 282.088L312.844 282.009H313.344Z" fill="#ABCAEB" stroke="#7A98B5" stroke-linecap="round" stroke-linejoin="round"/>
<path d="M311.758 281.771L311.842 281.85H312.176L312.51 282.009L312.176 282.326L312.092 282.167H311.925L311.592 282.088L311.258 281.929L311.007 281.454L311.258 281.374L311.592 281.454L311.758 281.771Z" fill="#ABCAEB" stroke="#7A98B5" stroke-linecap="round" stroke-linejoin="round"/>
<path d="M304.079 277.092L304.58 277.647L304.83 277.806L305.081 278.202L304.83 278.123L304.747 277.965L304.497 277.885L304.163 277.568L303.996 277.489L303.829 277.172L304.079 277.092Z" fill="#ABCAEB" stroke="#7A98B5" stroke-linecap="round" stroke-linejoin="round"/>
<path d="M307.168 277.092L307.418 277.568L307.585 277.965V278.282L307.752 278.44L307.919 278.995V279.709L308.086 279.947L308.503 280.106L308.837 280.581V281.216L308.503 280.661V280.502L308.253 280.185L307.752 280.026L307.919 279.868L307.668 279.63V279.392L307.835 279.154L307.752 278.758L307.502 278.44L307.585 278.361L307.335 278.044L307.251 277.568L307.084 277.647L307.168 277.092Z" fill="#ABCAEB" stroke="#7A98B5" stroke-linecap="round" stroke-linejoin="round"/>
<path d="M309.588 277.092L309.338 277.251L309.087 277.172L309.004 277.013L309.505 276.854L309.588 277.092Z" fill="#ABCAEB" stroke="#7A98B5" stroke-linecap="round" stroke-linejoin="round"/>
<path d="M302.744 275.586L302.66 275.506L302.41 274.951H302.577L302.744 275.586Z" fill="#ABCAEB" stroke="#7A98B5" stroke-linecap="round" stroke-linejoin="round"/>
<path d="M311.508 275.189L311.174 275.665H310.84L311.007 275.427L311.091 274.951L311.425 274.713L311.508 275.031V275.189Z" fill="#ABCAEB" stroke="#7A98B5" stroke-linecap="round" stroke-linejoin="round"/>
<path d="M296.066 274.238L295.816 274.317L295.649 274.555L295.398 274.475L295.899 274.158L296.066 274.238Z" fill="#ABCAEB" stroke="#7A98B5" stroke-linecap="round" stroke-linejoin="round"/>
<path d="M296.233 274.793L296.567 274.951L296.734 274.793L296.817 274.396L296.984 274.317L297.151 274.793V275.189L297.068 275.427L297.151 275.903V276.141L296.817 276.775L296.65 276.854L296.317 276.696L296.484 276.458L296.817 276.299L296.734 276.22L296.233 276.537L296.066 276.379L296.4 276.141H296.066L295.899 276.22L295.732 276.061V275.506L295.816 275.348L295.482 274.951V274.793L295.816 274.634L295.899 274.396L296.15 274.317L296.233 274.158L296.734 273.92L296.817 274.238L296.4 274.555L296.233 274.793Z" fill="#ABCAEB" stroke="#7A98B5" stroke-linecap="round" stroke-linejoin="round"/>
<path d="M307.501 274.317L307.585 274.713L307.418 274.634L307.001 274.713L306.667 274.793L306.583 274.634L306.834 274.475L307.168 274.238V274.079L306.834 273.92L306.667 273.445L306.583 272.969L306.249 272.652V272.493L305.832 272.096L306.083 271.859L306.416 272.176V272.572L306.583 272.81L306.667 273.207L306.917 273.603L307.251 273.841L307.335 274.079L307.501 274.317Z" fill="#ABCAEB" stroke="#7A98B5" stroke-linecap="round" stroke-linejoin="round"/>
<path d="M298.904 269.955L299.155 270.114L298.654 270.352L298.403 270.273L298.236 270.431L297.819 270.352L297.986 270.114L298.32 269.955H298.904Z" fill="#ABCAEB" stroke="#7A98B5" stroke-linecap="round" stroke-linejoin="round"/>
<path d="M295.398 269.559L295.732 269.4L295.983 269.638L295.899 269.797L295.983 269.955L295.816 270.273L296.066 270.511L296.233 271.224L296.4 271.462L296.734 271.859L296.567 272.414L296.65 272.889L296.484 273.127L296.233 273.207L295.899 273.524L295.649 273.682H295.398L295.148 273.841H294.898V273.524L294.647 273.365L294.731 272.889L294.48 273.127L294.313 273.048L293.812 272.731L293.562 272.493L293.395 272.255L293.979 272.017L294.397 272.572L294.48 272.096L294.23 272.017L294.146 271.779L294.23 271.541L294.731 271.066L294.898 270.748L294.814 270.669L295.065 270.352V269.955L294.898 269.4L294.981 269.321H295.231L295.398 269.559Z" fill="#ABCAEB" stroke="#7A98B5" stroke-linecap="round" stroke-linejoin="round"/>
<path d="M302.159 267.497L302.243 267.656L302.493 267.973L303.161 268.528L303.578 268.607L303.662 268.687L303.829 269.004L304.079 269.321L304.497 269.638V269.797L304.33 270.431L304.246 270.59V270.828L304.163 271.224L303.996 271.462L303.912 272.017L303.829 272.096L303.662 271.621L303.328 271.383L303.412 271.224L303.829 271.303L303.996 271.145L303.912 270.986L303.996 270.669L304.246 270.352L304.33 269.955V269.718L303.912 269.4L303.578 268.845L303.328 268.687L302.827 268.449L302.577 268.211L302.076 268.052L301.742 268.211L302.076 267.497H302.159Z" fill="#ABCAEB" stroke="#7A98B5" stroke-linecap="round" stroke-linejoin="round"/>
<path d="M294.814 261.55L295.231 261.708H295.315L295.899 261.788L296.066 261.629L296.233 261.708H296.65L296.984 261.55H297.318L297.569 261.391L297.652 261.788L297.569 261.946H297.318H296.984L296.066 262.105H295.816L294.564 262.422L293.979 262.739H293.646L293.479 262.66L293.228 262.422L292.811 261.946L293.312 262.184L293.395 262.343H293.812L294.23 262.184L294.564 261.708L294.313 261.629L294.48 261.391L294.564 261.153L294.814 261.55Z" fill="#ABCAEB" stroke="#7A98B5" stroke-linecap="round" stroke-linejoin="round"/>
<path d="M298.403 260.519L299.071 260.678L299.238 260.598L299.572 260.836L300.323 261.629L300.49 262.105L300.824 262.184L301.408 262.581V262.739L301.241 263.136L301.408 263.691H301.074L300.657 264.008L300.574 264.167L300.323 264.96L300.24 265.673L300.073 265.832L299.822 265.673L299.739 265.356L299.405 265.277L299.655 264.88H299.822L300.24 264.563L300.156 264.246L300.323 263.929V263.691L300.49 263.453V262.977L300.657 262.898L300.824 262.66L300.907 262.422L300.657 262.343L300.24 262.264L300.156 262.026V261.867L299.822 261.708V261.471L299.572 260.915L299.405 260.836L299.155 260.915L298.737 260.836H298.487L297.986 260.519H298.403Z" fill="#ABCAEB" stroke="#7A98B5" stroke-linecap="round" stroke-linejoin="round"/>
<path d="M361.84 306.591L361.757 306.353L362.007 306.433L361.84 306.591Z" fill="#ABCAEB" stroke="#7A98B5" stroke-linecap="round" stroke-linejoin="round"/>
<path d="M363.593 232.844H363.343L363.259 232.923L363.343 233.082L363.009 233.24L362.925 233.161L363.092 233.082H363.176L363.259 232.844L363.51 232.765L363.593 232.844Z" fill="#ABCAEB" stroke="#7A98B5" stroke-linecap="round" stroke-linejoin="round"/>
<path d="M375.446 331.174L374.945 331.015L374.861 330.619V329.984L375.028 329.667L375.195 329.826L375.362 330.301L375.78 330.539L375.863 330.856L375.446 331.174Z" fill="#ABCAEB" stroke="#7A98B5" stroke-linecap="round" stroke-linejoin="round"/>
<path d="M331.624 336.328H331.374L331.04 336.09L330.79 336.011L330.539 335.773L330.456 335.614L330.205 335.535L330.038 335.218L329.788 334.98L329.871 334.583L330.289 334.821L330.372 335.218L330.706 335.535L331.29 335.694L331.457 335.932L331.708 336.249L331.624 336.328Z" fill="#ABCAEB" stroke="#7A98B5" stroke-linecap="round" stroke-linejoin="round"/>
<path d="M276.284 299.296L276.534 299.375L276.701 299.058L277.035 299.137H277.452L277.536 299.296L277.369 299.454L277.202 299.375L276.868 299.454L276.701 299.534H276.117L276.284 299.296Z" fill="#ABCAEB" stroke="#7A98B5" stroke-linecap="round" stroke-linejoin="round"/>
<path d="M283.045 297.313L282.461 297.552L282.628 297.313H283.045Z" fill="#ABCAEB" stroke="#7A98B5" stroke-linecap="round" stroke-linejoin="round"/>
<path d="M283.546 297.393L283.462 297.314L284.13 297.075L283.963 297.314L283.546 297.393Z" fill="#ABCAEB" stroke="#7A98B5" stroke-linecap="round" stroke-linejoin="round"/>
<path d="M367.516 318.248L367.934 318.327L368.101 318.724V319.2L368.017 319.834L367.934 319.993L367.767 320.072L367.433 320.231L367.516 319.913L367.433 319.755L367.349 319.2L367.099 318.803V318.565L367.182 318.327V318.089H367.349L367.516 318.248Z" fill="#ABCAEB" stroke="#7A98B5" stroke-linecap="round" stroke-linejoin="round"/>
<path d="M365.179 336.328L364.845 336.566L364.678 336.487L364.595 336.09L364.762 335.694L365.012 335.376H365.263L365.346 335.614L365.263 336.169L365.179 336.328Z" fill="#ABCAEB" stroke="#7A98B5" stroke-linecap="round" stroke-linejoin="round"/>
<path d="M362.758 310.556H362.508L362.425 310.398L362.592 310.08H362.758L362.842 310.239L362.758 310.556Z" fill="#ABCAEB" stroke="#7A98B5" stroke-linecap="round" stroke-linejoin="round"/>
<path d="M362.174 309.367L362.091 309.605H361.924L361.59 309.446L361.423 309.287L361.673 308.97L362.091 309.287L362.174 309.367Z" fill="#ABCAEB" stroke="#7A98B5" stroke-linecap="round" stroke-linejoin="round"/>
<path d="M368.935 327.843L368.768 327.685L368.434 327.526L368.351 327.367V326.892L368.434 326.733L369.019 325.861L369.269 326.019V326.574L369.186 327.209L369.102 327.526L368.935 327.843Z" fill="#ABCAEB" stroke="#7A98B5" stroke-linecap="round" stroke-linejoin="round"/>
<path d="M361.006 305.798L360.672 305.719L360.839 305.481L361.089 305.402L361.006 305.798Z" fill="#ABCAEB" stroke="#7A98B5" stroke-linecap="round" stroke-linejoin="round"/>
<path d="M364.344 312.063L364.511 312.38V312.618L364.344 312.776L364.177 312.697L364.094 312.459L364.344 312.063Z" fill="#ABCAEB" stroke="#7A98B5" stroke-linecap="round" stroke-linejoin="round"/>
<path d="M338.385 305.72L338.135 305.561L338.218 305.402H338.469L338.552 305.481L338.385 305.72Z" fill="#ABCAEB" stroke="#7A98B5" stroke-linecap="round" stroke-linejoin="round"/>
<path d="M350.572 305.322H350.405L349.654 305.56H349.153L349.32 305.402L349.654 305.243L349.988 305.164L350.488 305.243L350.572 305.322Z" fill="#ABCAEB" stroke="#7A98B5" stroke-linecap="round" stroke-linejoin="round"/>
<path d="M342.642 303.419L343.143 303.499H343.644L343.894 303.578L344.395 303.499L344.646 303.578L344.979 303.499L345.146 303.578L345.564 303.499L345.898 303.578H346.148L346.816 303.736V303.578L347.317 303.736L347.4 303.657L348.068 303.736L348.235 303.895H348.402L348.903 304.133L349.069 304.054L348.986 304.609L349.153 304.847L348.402 305.085L348.151 305.402L347.901 305.878L347.65 306.036L347.4 306.115H347.066L346.565 306.195L346.315 306.353L345.731 306.274L345.564 306.115L345.146 306.274L344.896 306.036L344.312 306.195L343.56 306.115L343.31 306.195L342.809 306.274L342.642 306.353L342.475 306.195L342.141 306.115L341.891 306.274L341.39 306.195L341.641 305.64V305.322L341.808 305.005L341.641 304.529L341.474 304.45L341.39 304.133L341.724 303.974L341.891 303.895V303.499L342.225 303.34L342.642 303.419Z" fill="#ABCAEB" stroke="#7A98B5" stroke-linecap="round" stroke-linejoin="round"/>
<path d="M361.006 305.798V305.878L360.672 305.798V305.719L361.006 305.798Z" fill="#ABCAEB" stroke="#7A98B5" stroke-linecap="round" stroke-linejoin="round"/>
<path d="M322.192 286.449H322.777L323.028 286.768H322.777L322.526 286.688L322.109 286.768L322.025 286.529L322.192 286.449Z" fill="#ABCAEB" stroke="#7A98B5" stroke-linecap="round" stroke-linejoin="round"/>
<path d="M319.938 286.37L320.189 286.687L320.69 286.608L320.523 286.767H320.022L319.688 286.608L319.938 286.37Z" fill="#ABCAEB" stroke="#7A98B5" stroke-linecap="round" stroke-linejoin="round"/>
<path d="M321.775 285.894V286.291L321.357 286.132L321.274 285.894L321.357 285.815L321.775 285.894Z" fill="#ABCAEB" stroke="#7A98B5" stroke-linecap="round" stroke-linejoin="round"/>
<path d="M368.184 342.434L368.017 342.831L367.767 343.148L367.6 343.227L367.516 343.544L367.683 344.02L367.516 344.099V344.654L367.683 344.892L367.85 345.051L367.683 345.209L367.6 345.447V346.002L367.433 346.082L367.099 346.24L366.681 346.32H366.431L366.014 346.399L365.596 346.32L365.263 346.399L365.012 346.32L364.595 346.478L364.261 346.32H363.76L363.51 346.478L363.259 346.399L363.677 346.24L363.927 346.002L364.261 345.923L364.595 345.685L364.762 345.447L365.263 345.527L365.513 345.209L365.346 344.575L365.513 344.258V343.861V343.703L365.263 343.386L365.012 343.306L364.678 343.227L364.595 343.148L364.929 342.91L365.847 342.831L366.014 342.672H366.932L367.015 342.593L368.017 342.434H368.184Z" fill="#ABCAEB" stroke="#7A98B5" stroke-linecap="round" stroke-linejoin="round"/>
<path d="M370.187 339.896L370.104 340.293L369.853 340.372L369.52 340.61H369.353L368.768 340.927L368.601 340.769L368.852 340.531L369.436 340.134L370.187 339.896Z" fill="#ABCAEB" stroke="#7A98B5" stroke-linecap="round" stroke-linejoin="round"/>
<path d="M367.683 330.698L367.6 330.777L367.182 330.539V330.222L367.349 329.984L367.516 329.588H367.85L367.934 329.905L367.85 330.539L367.683 330.698Z" fill="#ABCAEB" stroke="#7A98B5" stroke-linecap="round" stroke-linejoin="round"/>
<path d="M354.245 303.736L353.911 303.895H353.827L353.577 304.054L353.493 303.974L353.577 303.736L354.078 303.657L354.245 303.736Z" fill="#ABCAEB" stroke="#7A98B5" stroke-linecap="round" stroke-linejoin="round"/>
<path d="M352.909 307.226L353.159 307.464L352.241 307.622L352.158 307.226L352.742 307.067L352.909 307.226Z" fill="#ABCAEB" stroke="#7A98B5" stroke-linecap="round" stroke-linejoin="round"/>
<path d="M353.494 304.212L353.327 304.372H352.909V304.212L353.16 304.133L353.494 304.212Z" fill="#ABCAEB" stroke="#7A98B5" stroke-linecap="round" stroke-linejoin="round"/>
<path d="M352.325 304.054L352.659 304.292L352.492 304.45L352.241 304.292H351.824L351.991 304.133L352.325 304.054Z" fill="#ABCAEB" stroke="#7A98B5" stroke-linecap="round" stroke-linejoin="round"/>
<path d="M334.128 336.407H333.961L333.878 336.011L333.961 335.773L333.878 335.535L333.544 335.456L333.294 335.218L333.377 334.98L334.379 335.456L334.295 335.614V335.932L334.128 336.09V336.407Z" fill="#ABCAEB" stroke="#7A98B5" stroke-linecap="round" stroke-linejoin="round"/>
<path d="M361.089 308.653L360.922 308.732V308.574L361.006 308.494L361.089 308.653Z" fill="#ABCAEB" stroke="#7A98B5" stroke-linecap="round" stroke-linejoin="round"/>
<path d="M359.837 307.939H359.754L359.837 307.781L359.92 307.86L359.837 307.939Z" fill="#ABCAEB" stroke="#7A98B5" stroke-linecap="round" stroke-linejoin="round"/>
<path d="M369.186 322.372V322.53L369.52 322.451L369.353 322.847L369.52 323.006V323.165L369.686 323.323L369.853 324.037L369.603 324.275L369.52 323.958L369.436 324.037L368.935 323.958H368.601L368.434 323.72L368.935 323.323H368.601L368.267 323.006L368.184 322.609L368.017 322.213L368.267 321.896L368.601 321.975L369.019 322.213L369.186 322.372Z" fill="#ABCAEB" stroke="#7A98B5" stroke-linecap="round" stroke-linejoin="round"/>
<path d="M368.351 316.821H368.101L367.934 316.504L368.017 316.345L368.267 316.107L368.518 316.266L368.601 316.504V316.662L368.351 316.821Z" fill="#ABCAEB" stroke="#7A98B5" stroke-linecap="round" stroke-linejoin="round"/>
<path d="M366.848 314.759H367.099V314.918V314.997L366.932 315.076V315.711V316.028L366.765 316.186L366.264 316.424V316.266L366.097 316.107L366.014 315.711V315.314L365.93 314.918V314.68L366.097 314.442L366.348 314.362L366.765 314.6L366.848 314.759Z" fill="#ABCAEB" stroke="#7A98B5" stroke-linecap="round" stroke-linejoin="round"/>
<path d="M368.017 314.442L368.351 314.521L368.768 314.838L367.683 315.076L367.433 315.155L367.099 314.918L367.182 314.442L367.349 314.362L367.266 313.887L367.349 313.728L367.6 313.569L367.85 313.887V314.204L368.017 314.442Z" fill="#ABCAEB" stroke="#7A98B5" stroke-linecap="round" stroke-linejoin="round"/>
<path d="M239.056 306.988L238.472 311.032L237.387 316.741H238.806L240.225 317.693L240.726 316.9L241.978 317.534L239.641 319.517L237.22 320.944L236.803 321.896L237.053 322.927L235.968 324.195L234.799 324.513L235.05 325.147L234.048 325.702L232.379 326.971L232.128 327.685L229.791 326.812L226.87 326.733L224.867 325.702L222.529 323.64L222.863 322.134L223.531 320.944L222.947 319.993L225.701 315.869H231.711L232.045 314.125L231.377 313.807L230.96 312.697L229.374 311.508L227.871 309.842L229.958 309.763L230.376 306.908H234.716L239.056 306.988Z" fill="#ABCAEB" stroke="#7A98B5" stroke-linecap="round" stroke-linejoin="round"/>
</svg>
