<svg width="222" height="346" viewBox="0 0 222 346" fill="none" xmlns="http://www.w3.org/2000/svg">
<path d="M120.529 341.245L118.025 341.086H113.852L108.844 330.301L111.431 332.522L115.02 336.17L121.531 339.104L127.624 340.293L126.957 342.672L123.284 342.91L120.529 341.245Z" fill="#ABCAEB" stroke="#7A98B5" stroke-linecap="round" stroke-linejoin="round"/>
<path d="M95.0712 177.097L104.503 185.344L108.343 186.137L114.436 189.944L119.361 191.926L120.279 194.146L116.773 201.918L121.615 203.266L126.873 204.059L130.379 203.266L133.968 199.301L134.218 194.86L136.389 193.829L139.06 196.842L139.394 200.887L135.888 203.662L133.133 205.724L128.709 210.72L123.701 217.619L123.284 221.742L122.95 226.976L123.952 232.051L123.2 233.161L123.534 236.412L123.785 239.108L130.295 243.47L130.462 246.959L133.718 249.179L133.968 251.638L131.214 258.14L125.371 260.915L116.857 261.946L111.849 261.391L113.601 264.484L113.685 268.211L115.187 270.748L113.101 272.572L108.844 273.286L104.169 271.383L102.917 272.731L105.004 277.727L108.343 279.233L110.263 277.647L112.349 280.264L108.844 281.85L106.423 285.022L107.425 290.018L107.341 292.714H103.335L100.831 295.252L100.914 299.058L106.34 302.706L110.68 303.657L110.847 308.177L107.007 310.953L106.507 316.741L103.585 318.645L102.834 320.944L106.34 326.099L110.179 328.874L108.426 328.636L104.336 327.843L94.2365 327.209L91.315 324.354L89.7291 320.706L87.1415 321.024L84.9713 319.2L82.3838 314.045L84.6374 311.825L84.7209 308.732L83.2185 306.195L83.8027 301.913L82.8846 295.331L81.3822 292.397L82.8846 291.445L81.716 289.542L79.3789 288.591L80.0466 286.449L77.4591 284.546L74.3707 278.758L75.7897 277.727L73.0352 271.541L72.3674 266.387L72.2005 261.867L74.2872 260.043L71.5327 255.047L70.1972 250.448L72.7013 247.118L71.5327 242.835L72.8682 237.919L71.6996 233.24L70.3641 232.289L66.2741 223.487L68.027 218.253L66.608 213.337L67.3593 208.658L69.5294 203.9L72.2839 200.728L70.6145 198.746L71.2823 197.08L69.9468 188.595L74.6211 186.137L75.6227 180.824L74.8715 179.555L78.2103 174.956L84.4705 176.225L87.5589 179.873L88.8944 175.749L94.2365 175.987L95.0712 177.097Z" fill="#ABCAEB" stroke="#7A98B5" stroke-linecap="round" stroke-linejoin="round"/>
<path d="M115.02 166.551L114.77 164.965L110.263 162.348L105.922 162.268L97.9092 163.775L96.1563 168.216L96.3232 170.991L95.0712 177.097L94.2365 175.987L88.8945 175.749L87.5589 179.873L84.4706 176.225L78.2103 174.956L74.8716 179.555L71.6162 180.269L69.0287 173.212L65.9403 167.502L66.8584 162.586L64.1874 160.445L63.1858 156.797L60.5148 153.308L62.9353 147.836L60.5148 143.554L61.4329 141.81L60.4313 139.906L62.0172 137.369L61.7668 133.087V129.439L62.6849 127.774L58.0941 119.527L61.5999 120.002L64.0205 119.844L64.9386 118.337L68.9452 116.275L71.3658 114.372L77.4591 113.5L77.1252 117.306L77.8764 119.289L77.626 122.699L83.0516 127.219L88.3936 128.091L90.3134 129.994L93.5687 131.025L95.6555 132.452H98.5769L101.415 133.959L101.832 136.893L102.834 138.4L103.084 140.541L101.665 140.62L104.002 146.567L112.934 146.805L112.516 149.739L113.184 151.722L115.855 153.149L117.274 156.321L116.773 160.365L115.688 162.586L116.356 165.44L115.02 166.551Z" fill="#ABCAEB" stroke="#7A98B5" stroke-linecap="round" stroke-linejoin="round"/>
<path d="M117.775 54.1056L120.362 54.5814L120.863 53.4712L120.029 52.5196L120.529 51.013L122.449 51.4887L124.703 50.9337L127.374 52.0438L129.461 53.0747L130.88 51.7266L131.965 51.8852L132.632 53.3126L134.886 52.9954L136.723 51.013L138.225 47.2859L141.063 42.6073L142.732 42.3694L143.817 45.2242L146.322 54.1056L148.909 54.9779L148.993 58.467L145.403 62.6698L146.822 64.1765L155.253 64.9694L155.42 70.1238L159.009 66.7933L164.935 68.6172L172.865 71.7098L175.202 74.6438L174.451 77.4986L179.96 75.9126L189.141 78.6087L196.236 78.4501L203.248 82.6529L209.425 88.3624L213.097 89.7898L217.104 90.0277L218.857 91.6137L220.526 98.1161L221.444 101.209L219.691 109.614L217.438 112.945L211.011 120.002L208.173 125.791L204.834 130.153L203.665 130.311L202.58 134.038L203.331 143.554L202.413 151.405L202.163 154.735L200.827 156.797L200.41 163.616L196.069 170.198L195.652 175.511L192.063 177.652L191.145 180.745H186.137L179.042 182.648L175.953 184.948L170.945 186.454L165.853 190.499L162.431 195.574L162.181 199.38L163.266 202.155L163.015 207.31L162.348 209.768L159.51 212.623L155.754 221.583L152.415 225.548L149.744 228.007L148.492 232.844L146.071 235.699L144.318 232.844L145.821 230.386L142.649 226.976L138.642 224.121L133.384 220.87L131.798 221.028L126.539 217.063L123.701 217.619L128.709 210.72L133.133 205.724L135.888 203.662L139.394 200.887L139.06 196.842L136.389 193.829L134.218 194.86L134.803 191.926L135.053 188.913L134.803 186.058L133.05 185.186L131.38 185.979L129.628 185.741L128.96 183.838L128.042 179.159L127.04 177.652L123.785 176.225L121.948 177.256L117.024 176.225L116.69 169.326L115.02 166.551L116.356 165.44L115.688 162.586L116.773 160.365L117.274 156.321L115.855 153.149L113.184 151.722L112.516 149.739L112.934 146.805L104.002 146.567L101.665 140.62L103.084 140.541L102.834 138.4L101.832 136.893L101.415 133.959L98.5769 132.452H95.6554L93.5687 131.025L90.3134 129.994L88.3935 128.091L83.0515 127.219L77.626 122.699L77.8764 119.289L77.1251 117.306L77.459 113.5L71.3658 114.372L68.9451 116.275L64.9386 118.337L64.0204 119.844L61.5998 120.002L58.0941 119.527L55.423 120.399L53.2528 119.844L53.1694 112.152L49.4967 115.086L45.3232 115.007L43.4034 112.231L40.2316 111.993L41.0663 109.773L38.3117 106.68L36.1415 102.081L37.3936 101.209L37.2266 98.9884L40.0646 97.561L39.4803 94.7856L40.6489 93.041L40.8993 90.6621L46.1579 87.1729L49.9975 86.2214L50.6653 85.4284L54.9222 85.6663L56.7586 71.7098L56.842 69.4894L56.0908 66.6347L53.9206 64.7316L54.0041 61.0045L56.6751 60.2115L57.5933 60.7666L57.7602 58.7842L55.0057 58.2291V55.0572L64.1873 55.2158L65.7733 53.3919L67.1088 55.0572L67.9435 58.0705L68.8617 57.4361L71.4492 60.1323L75.1219 59.8151L76.04 58.2291L79.5458 57.0396L81.5491 56.1674L82.1333 54.0263L85.5556 52.5989L85.3052 51.4887L81.2986 51.0922L80.7144 47.841L80.9648 44.4312L78.878 43.1624L79.7962 42.6866L83.2185 43.321L86.9746 44.5898L88.3935 43.4003L91.8158 42.6073L97.1579 40.7042L98.9108 38.7217L98.3265 37.2944L100.831 37.1358L101.832 38.2459L101.164 40.5456L102.834 41.2593L103.835 43.6382L102.5 45.4621L101.665 49.7442L102.834 52.361L103.084 54.74L106.006 57.1189L108.343 57.3568L108.844 56.3259L110.346 56.088L112.516 55.2158L114.019 53.8677L116.69 54.3435L117.775 54.1056Z" fill="#ABCAEB" stroke="#7A98B5" stroke-linecap="round" stroke-linejoin="round"/>
<path d="M49.8306 3.83054L46.7422 4.7028L45.4067 7.24035L43.4869 8.66771L41.9845 10.5709L41.2332 14.2186L39.7308 17.2319L42.1514 17.5491L42.6522 19.8488L43.6539 21.0382L43.9043 23.0207L43.32 24.9239L43.4035 26.034L44.572 26.4305L45.5736 28.1751L51.6669 27.6993L54.4215 28.3337L57.5933 32.7744L59.5131 32.2193L62.9353 32.4572L65.6064 31.9021L67.2758 32.7744L66.2741 35.4705L65.189 37.2151L64.6882 40.8628L65.6064 44.2726L66.8584 45.7793L67.0254 46.8895L64.6047 49.427L66.2741 50.5372L67.5262 52.361L68.8617 57.4361L67.9435 58.0705L67.1088 55.0572L65.7733 53.3919L64.1874 55.2158L55.0057 55.0572V58.2291L57.7602 58.7842L57.5933 60.7667L56.6751 60.2116L54.0041 61.0046L53.9206 64.7316L56.0909 66.6347L56.8421 69.4895L56.7586 71.7098L54.9223 85.6663L52.5016 82.9702L51.0827 82.8909L54.0041 77.6572L50.3314 75.2782L47.4934 75.7541L45.7406 74.8817L43.1531 76.2298L39.6473 75.5161L36.7259 70.2032L34.5556 68.9344L33.0532 66.4762L29.8814 64.0972L28.6293 64.573L26.626 63.3835L24.2889 61.7183L22.9534 62.5112L18.9468 61.7975L17.7782 59.5772L16.8601 59.6565L12.1858 56.8018L11.6015 55.2158L13.3544 54.8193L13.1874 52.2817L14.356 50.3786L16.6932 50.0614L18.7799 46.8895L20.6162 44.1933L18.9468 43.0039L19.9484 40.0698L19.0303 35.3912L20.1154 34.0431L19.5311 29.761L17.6948 26.9856L18.446 24.5274L19.9484 24.9239L20.8666 23.4172L19.9484 20.4039L20.5327 19.6902L22.9534 19.8488L26.7095 16.2803L28.7128 15.7253L28.7963 14.06L29.9648 9.6986L32.8028 7.39896L35.7242 7.24035L36.225 6.20948L39.8977 6.60597L43.7373 4.06842L45.6571 2.95825L48.0777 0.5L49.7471 0.817188L50.8322 2.16527L49.8306 3.83054Z" fill="#ABCAEB" stroke="#7A98B5" stroke-linecap="round" stroke-linejoin="round"/>
<path d="M28.6293 64.573L29.297 68.4586L27.8781 71.7098L22.7864 77.1021L17.1939 79.0845L14.356 83.5253L13.6048 86.9351L11.0172 89.0762L8.93047 86.4593L7.01063 85.9042L5.09084 86.3007L4.84044 84.4769L6.17593 83.2874L5.59169 81.1463L8.01228 77.34L6.92718 75.1196L5.17434 77.4986L2.2529 75.199L3.17105 73.7716L2.33635 69.1723L4.00574 68.3793L4.84044 65.2074L6.59328 61.9561L6.34288 59.8944L8.93047 58.7842L12.1858 56.8018L16.8601 59.6565L17.7782 59.5772L18.9468 61.7975L22.9534 62.5112L24.2889 61.7183L26.626 63.3835L28.6293 64.573Z" fill="#ABCAEB" stroke="#7A98B5" stroke-linecap="round" stroke-linejoin="round"/>
<path d="M115.354 33.4088L114.52 38.0081L111.598 39.2769L111.849 40.4663L110.93 43.1625L112.934 46.8102H114.436L115.02 49.6649L117.775 54.1056L116.69 54.3435L114.019 53.8677L112.516 55.2158L110.346 56.0881L108.844 56.326L108.343 57.3569L106.006 57.119L103.084 54.74L102.834 52.3611L101.665 49.7442L102.5 45.4621L103.835 43.6383L102.834 41.2593L101.164 40.5456L101.832 38.246L100.831 37.1358L98.3265 37.2944L95.2381 33.4881L96.5736 32.0607V29.6818L99.4951 28.8888L100.664 27.9372L99.1612 26.0341L99.5785 24.2102L103.502 21.1969L106.507 23.1L109.261 26.3513L109.344 29.0474L111.097 29.1267L113.601 31.5849L115.354 33.4088Z" fill="#ABCAEB" stroke="#7A98B5" stroke-linecap="round" stroke-linejoin="round"/>
<path d="M54.9223 85.6664L50.6653 85.4284L49.9975 86.2214L46.1579 87.173L40.8994 90.6621L40.649 93.0411L39.4804 94.7857L40.0647 97.5611L37.2267 98.9885L37.3936 101.209L36.1416 102.081L38.3118 106.68L41.0663 109.773L40.2316 111.993L43.4034 112.231L45.3232 115.007L49.4967 115.086L53.1694 112.152L53.2529 119.844L55.4231 120.399L58.0941 119.527L62.6849 127.774L61.7668 129.439V133.087L62.0172 137.369L60.4312 139.906L61.4329 141.81L60.5147 143.554L62.9353 147.836L60.5147 153.308L59.5965 155.925L57.2594 157.193L52.3347 154.259L51.6669 152.198L41.901 147.122L32.9697 141.492L29.0466 138.4L26.7095 134.197L27.3773 132.69L22.8699 126.029L17.5278 116.672L12.5197 106.522L10.5164 104.143L8.84697 100.416L5.00738 97.0853L1.5851 95.0235L3.00409 92.8032L0.5 87.8867L1.919 84.3183L5.59168 81.1464L6.17593 83.2874L4.84043 84.4769L5.09083 86.3007L7.01063 85.9042L8.93047 86.4593L11.0172 89.0762L13.6048 86.9351L14.356 83.5253L17.1939 79.0846L22.7864 77.1021L27.8781 71.7098L29.297 68.4586L28.6293 64.573L29.8813 64.0972L33.0532 66.4762L34.5556 68.9344L36.7259 70.2032L39.6473 75.5161L43.153 76.2299L45.7406 74.8818L47.4934 75.7541L50.3314 75.2783L54.0041 77.6572L51.0827 82.8909L52.5016 82.9702L54.9223 85.6664Z" fill="#ABCAEB" stroke="#7A98B5" stroke-linecap="round" stroke-linejoin="round"/>
<path d="M115.02 166.551L116.69 169.326L117.024 176.225L121.948 177.256L123.785 176.225L127.04 177.652L128.042 179.159L128.96 183.838L129.628 185.741L131.38 185.979L133.05 185.186L134.803 186.058L135.053 188.913L134.803 191.926L134.218 194.86L133.968 199.301L130.379 203.266L126.873 204.059L121.615 203.266L116.773 201.918L120.279 194.146L119.361 191.926L114.436 189.944L108.343 186.137L104.503 185.344L95.0711 177.097L96.3232 170.991L96.1563 168.216L97.9091 163.775L105.922 162.268L110.263 162.348L114.77 164.965L115.02 166.551Z" fill="#ABCAEB" stroke="#7A98B5" stroke-linecap="round" stroke-linejoin="round"/>
<path d="M130.462 34.5189L127.875 38.8803L128.125 42.3695L129.962 45.3828L129.043 47.5238L128.626 49.9028L127.374 52.0439L124.703 50.9337L122.449 51.4888L120.529 51.013L120.029 52.5197L120.863 53.4712L120.363 54.5814L117.775 54.1056L115.02 49.6649L114.436 46.8102H112.934L110.93 43.1624L111.849 40.4663L111.598 39.2768L114.52 38.0081L115.354 33.4088L121.03 34.4396L121.531 33.4881L125.371 33.0916L130.462 34.5189Z" fill="#ABCAEB" stroke="#7A98B5" stroke-linecap="round" stroke-linejoin="round"/>
<path d="M146.071 235.699L144.736 238.95L140.228 241.725L136.723 240.694L134.385 241.249L129.795 239.108L126.79 239.267L123.534 236.412L123.2 233.161L123.952 232.051L122.95 226.976L123.284 221.742L123.701 217.619L126.539 217.064L131.798 221.028L133.384 220.87L138.642 224.121L142.649 226.976L145.821 230.386L144.318 232.844L146.071 235.699Z" fill="#ABCAEB" stroke="#7A98B5" stroke-linecap="round" stroke-linejoin="round"/>
<path d="M103.502 21.1969L99.5786 24.2102L99.1612 26.034L100.664 27.9372L99.4951 28.8888L96.5737 29.6817V32.0607L95.2381 33.4881L98.3265 37.2944L98.9108 38.7218L97.1579 40.7042L91.8159 42.6074L88.3936 43.4004L86.9747 44.5898L83.2185 43.3211L79.7962 42.6867L78.8781 43.1625L80.9648 44.4312L80.7144 47.8411L81.2987 51.0923L85.3053 51.4888L85.5557 52.599L82.1334 54.0263L81.5491 56.1674L79.5458 57.0396L76.0401 58.2291L75.1219 59.8151L71.4493 60.1323L68.8617 57.4361L67.5262 52.3611L66.2741 50.5372L64.6047 49.427L67.0254 46.8895L66.8584 45.7793L65.6064 44.2726L64.6882 40.8628L65.189 37.2151L66.2741 35.4705L67.2758 32.7744L65.6064 31.9021L62.9353 32.4572L59.5131 32.2193L57.5933 32.7744L54.4215 28.3337L51.6669 27.6993L45.5737 28.1751L44.572 26.4305L43.4035 26.034L43.32 24.9239L43.9043 23.0207L43.6539 21.0382L42.6522 19.8488L42.1514 17.5491L39.7308 17.2319L41.2332 14.2186L41.9845 10.5709L43.4869 8.66771L45.4067 7.24035L46.7422 4.7028L49.8306 3.83054L49.6637 5.02001L46.8257 5.65439L48.2447 7.95403L47.9943 10.6502L45.7406 13.5842L47.3265 17.6284L49.4133 17.3112L50.6653 13.5842L49.2463 11.8396V7.95403L55.2562 5.89227L54.7553 3.51333L56.5082 1.84808L57.9272 5.49578L61.2659 5.57509L64.1039 8.35053L64.2709 10.0951H68.4444L73.536 9.6193L76.1236 11.8396L79.6293 12.474L82.3838 10.8881L82.4673 9.6193L88.3936 9.30211L93.9861 9.22281L89.8961 10.7295L91.3985 13.1877L95.1547 13.5049L98.6604 16.0425L99.2447 20.0867L101.665 20.0074L103.502 21.1969Z" fill="#ABCAEB" stroke="#7A98B5" stroke-linecap="round" stroke-linejoin="round"/>
<path d="M108.844 330.301L113.852 341.086H118.025L120.529 341.245L120.112 343.148L117.441 344.654L115.438 344.496L112.85 344.099L109.345 342.672L104.837 341.958L98.5769 339.262L93.2349 336.725L85.0548 331.253L88.8944 332.284L96.0728 335.535L102.166 337.28L103.168 335.059L102.917 331.729L105.755 329.667L108.844 330.301Z" fill="#ABCAEB" stroke="#7A98B5" stroke-linecap="round" stroke-linejoin="round"/>
<path d="M74.8715 179.555L75.6227 180.824L74.6211 186.137L69.9468 188.595L71.2823 197.08L70.6146 198.746L72.2839 200.728L69.5295 203.9L67.3593 208.658L66.608 213.336L68.027 218.253L66.2741 223.487L70.3642 232.289L71.6996 233.24L72.8682 237.919L71.5327 242.835L72.7013 247.118L70.1972 250.448L71.5327 255.047L74.2872 260.043L72.2005 261.867L72.3674 266.387L73.0352 271.541L75.7897 277.727L74.3707 278.758L77.4591 284.546L80.0466 286.449L79.3789 288.59L81.716 289.542L82.8846 291.445L81.3822 292.397L82.8846 295.331L83.8028 301.913L83.2185 306.195L84.721 308.732L84.6375 311.825L82.3838 314.045L84.9714 319.2L87.1415 321.023L89.7291 320.706L91.315 324.354L94.2365 327.209L104.336 327.843L108.426 328.636H104.837L103.418 329.826L100.58 331.57L101.999 336.09L100.413 336.169L95.1547 334.663L88.8944 331.253L82.5507 328.477L79.8797 325.385L79.6293 322.53L76.1236 319.2L71.9501 310.794L71.7831 306.036L74.6211 302.23L67.6931 300.723L69.9468 296.362L68.2774 288.035L73.7029 289.78L72.2005 279.392L68.8617 278.044L69.6964 284.308L66.775 283.595L65.5229 276.458L63.8535 267.101L64.7717 263.612L62.0172 258.695L60.0139 252.986L61.8502 252.748L62.3511 244.58L63.3527 236.412L63.4362 228.879L60.6817 221.187L61.1825 216.984L59.4296 210.72L60.9321 204.534L60.1808 194.701V184.075L60.2643 172.736L59.0123 164.409L57.2594 157.193L59.5965 155.925L60.5147 153.308L63.1858 156.797L64.1874 160.445L66.8584 162.586L65.9403 167.502L69.0287 173.212L71.6162 180.269L74.8715 179.555Z" fill="#ABCAEB" stroke="#7A98B5" stroke-linecap="round" stroke-linejoin="round"/>
<path d="M127.374 52.0439L128.626 49.8235L129.043 47.5239L129.878 45.3828L128.125 42.3695L127.875 38.8804L130.462 34.519L132.048 35.074L135.47 36.2635L140.395 40.5456L141.063 42.6074L138.225 47.286L136.723 51.013L134.886 52.9955L132.632 53.3126L131.965 51.8853L130.88 51.7267L129.461 53.0747L127.374 52.0439Z" fill="#ABCAEB" stroke="#7A98B5" stroke-linecap="round" stroke-linejoin="round"/>
<path d="M144.151 328.953L144.485 328.874V329.191L143.818 328.953L144.068 328.716L144.235 328.636L144.151 328.953Z" fill="#ABCAEB" stroke="#7A98B5" stroke-linecap="round" stroke-linejoin="round"/>
<path d="M143.567 327.843L143.734 328.002L144.068 328.081L144.151 328.398L143.901 328.477L143.817 328.16L143.651 328.002L143.567 327.843Z" fill="#ABCAEB" stroke="#7A98B5" stroke-linecap="round" stroke-linejoin="round"/>
<path d="M148.742 327.209L148.909 327.288L148.826 327.605L148.575 327.526L148.408 327.288L148.659 327.129L148.742 327.209Z" fill="#ABCAEB" stroke="#7A98B5" stroke-linecap="round" stroke-linejoin="round"/>
<path d="M138.642 326.495V326.654L138.726 326.892L138.392 326.971L138.142 326.892L137.975 326.733L137.724 326.654L137.641 326.337H137.808L137.891 326.178L138.142 326.099L138.308 326.178L138.058 326.416L138.308 326.495L138.559 326.257L138.642 326.495Z" fill="#ABCAEB" stroke="#7A98B5" stroke-linecap="round" stroke-linejoin="round"/>
<path d="M141.063 325.464L140.729 325.306L140.312 325.068L139.644 324.83L139.727 324.513L139.143 324.433L138.893 324.354L138.642 324.037L138.809 323.958L139.477 324.195L140.145 324.513L140.562 324.592L140.896 324.671L141.146 324.433L141.23 324.195L141.397 324.275L141.731 324.116L141.814 324.275H142.231V324.513H142.482L143.233 324.354L143.317 324.513H143.567L143.901 324.433L143.65 324.275L143.567 324.037H143.901L144.402 324.195L144.485 324.513L144.151 324.909L144.235 325.147L144.068 325.306H143.734L143.484 325.94L143.233 326.178L142.983 326.654L142.899 326.892L142.482 327.13L142.398 326.971H142.065V327.209L141.397 327.13L141.313 327.209L141.564 327.526L141.48 327.605L141.313 327.923H140.979L140.729 328.24L140.479 328.319H140.312L140.145 328.081L139.811 327.843V327.685H139.394L139.894 328.002H139.561L139.143 327.764L138.976 327.685L138.642 327.526L138.392 327.367V327.209L138.976 327.367L139.477 327.209L139.06 327.05L138.976 326.971H139.727L140.061 327.05L140.312 327.209V327.05L140.646 326.971L140.729 326.733L140.395 326.574L140.228 326.178L140.312 326.019H140.813L140.979 326.099L141.313 326.019L141.23 325.781H140.562V325.861L140.228 326.019H139.727L139.31 325.781V325.544L139.894 325.702L140.395 325.544H140.646L141.063 325.464L141.397 325.623V325.544L141.063 325.464Z" fill="#ABCAEB"/>
<path d="M141.063 325.464L140.729 325.306L140.312 325.068L139.644 324.83L139.727 324.513L139.143 324.433L138.893 324.354L138.642 324.037L138.809 323.958L139.477 324.195L140.145 324.513L140.562 324.592L140.896 324.671L141.146 324.433L141.23 324.195L141.397 324.275L141.731 324.116L141.814 324.275H142.231V324.513H142.482L143.233 324.354L143.317 324.513H143.567L143.901 324.433L143.65 324.275L143.567 324.037H143.901L144.402 324.195L144.485 324.513L144.151 324.909L144.235 325.147L144.068 325.306H143.734L143.484 325.94L143.233 326.178L142.983 326.654L142.899 326.892L142.482 327.13L142.398 326.971H142.065V327.209L141.397 327.13L141.313 327.209L141.564 327.526L141.48 327.605L141.313 327.923H140.979L140.729 328.24L140.479 328.319H140.312L140.145 328.081L139.811 327.843V327.685H139.394L139.894 328.002H139.561L139.143 327.764L138.976 327.685L138.642 327.526L138.392 327.367V327.209L138.976 327.367L139.477 327.209L139.06 327.05L138.976 326.971H139.727L140.061 327.05L140.312 327.209V327.05L140.646 326.971L140.729 326.733L140.395 326.574L140.228 326.178L140.312 326.019H140.813L140.979 326.099L141.313 326.019L141.23 325.781H140.562V325.861L140.228 326.019H139.727L139.31 325.781V325.544L139.894 325.702L140.395 325.544H140.646L141.063 325.464ZM141.063 325.464L141.397 325.623V325.544L141.063 325.464Z" stroke="#7A98B5" stroke-linecap="round" stroke-linejoin="round"/>
<path d="M142.398 323.958H142.649L142.9 324.196L142.649 324.276H142.398V323.958Z" fill="#ABCAEB" stroke="#7A98B5" stroke-linecap="round" stroke-linejoin="round"/>
<path d="M141.564 323.958H141.313L141.23 323.72L141.564 323.799V323.958Z" fill="#ABCAEB" stroke="#7A98B5" stroke-linecap="round" stroke-linejoin="round"/>
<path d="M140.395 323.799L140.896 323.72L141.063 323.958L140.813 324.275L140.646 324.195L140.395 324.275L140.145 324.116L140.395 323.958L140.646 324.116L140.729 323.958L140.312 323.878L140.395 323.799Z" fill="#ABCAEB" stroke="#7A98B5" stroke-linecap="round" stroke-linejoin="round"/>
<path d="M146.405 323.878H146.906L146.989 323.799L147.407 323.72L147.741 323.878L148.074 324.116L148.158 324.354V324.433L147.741 324.513L147.574 324.275L147.407 324.195L147.323 324.433L147.49 324.513L147.574 324.751L147.824 324.592L147.991 324.671L148.074 324.988L148.325 325.068L148.408 324.988L148.826 325.226L148.909 324.909L148.241 324.751L148.325 324.354L148.575 324.195L149.827 324.116L150.412 324.592L150.579 324.671V324.988L150.078 324.909L149.66 324.751L149.16 324.909L149.41 325.068L149.744 325.147L150.495 325.226L150.745 325.306L150.829 325.464L150.662 325.861H150.245L150.161 325.94L149.577 326.019L149.16 326.178L149.41 326.337L148.659 326.654L148.325 326.574L147.908 326.654H147.323L146.822 326.495L146.322 326.178V326.416L146.572 326.574L147.073 326.733L147.323 326.971L147.49 326.892L147.824 326.971L148.158 327.209L147.991 327.288L148.158 327.685H147.991L147.741 327.447L147.407 327.367L146.989 327.685L146.822 327.447L146.572 327.288H146.322L145.904 327.129L145.737 327.209L145.904 327.526H146.155L146.322 327.685L146.155 327.764L146.739 328.24L146.572 328.319L146.238 328.16H145.988L145.737 327.922L145.487 327.843L145.236 327.764L145.153 328.24L145.57 328.319V328.557L145.487 328.715L145.153 328.636L145.07 328.478L144.652 328.319L144.569 328.16H144.402L144.068 327.764L144.318 327.447V327.288L143.984 326.892V326.733L144.402 326.574L144.318 326.416L144.736 326.337L144.652 326.099L145.153 325.781L145.654 325.623L145.988 325.94V326.257L146.238 326.178L145.821 325.702L145.904 325.464L145.403 325.306L145.07 325.068L145.153 324.909L145.487 325.068L145.57 324.671L144.986 324.513L145.07 324.275L145.236 324.354L145.487 324.195H145.737L145.904 323.958L145.654 323.72H145.988L146.405 323.878Z" fill="#ABCAEB" stroke="#7A98B5" stroke-linecap="round" stroke-linejoin="round"/>
<path d="M142.232 323.561H142.816L142.983 323.72L143.15 323.561L143.317 323.64L143.484 323.878L143.317 323.958L142.983 323.878L142.649 323.72L141.981 323.64L142.065 323.482L142.232 323.561Z" fill="#ABCAEB" stroke="#7A98B5" stroke-linecap="round" stroke-linejoin="round"/>
<path d="M136.556 322.689L136.138 322.61L136.222 322.451L136.556 322.689Z" fill="#ABCAEB" stroke="#7A98B5" stroke-linecap="round" stroke-linejoin="round"/>
</svg>
