<svg width="566" height="444" viewBox="0 0 566 444" fill="none" xmlns="http://www.w3.org/2000/svg">
<path d="M233.297 199.856L234.549 201.283L232.128 201.918L230.125 202.79L225.2 203.424L220.777 204.455L218.773 206.675L220.359 208.816L221.528 211.354L219.858 213.495L220.526 215.478L219.775 217.301L215.434 217.143L218.022 220.473L215.434 221.821L214.266 224.835L215.184 227.927L213.682 229.355L211.929 228.879L208.59 229.593L208.423 230.941H205.001L203.081 233.875L203.749 238.157L198.24 240.298L194.984 239.822L194.233 240.932L191.395 240.298L186.971 241.091L178.958 238.474L182.214 233.875L181.295 230.623L177.706 229.751L176.704 226.5L174.451 222.456L175.786 219.68L173.7 218.887L174.117 215.16L174.618 208.816L179.542 210.799L182.798 210.085L183.132 207.786L186.47 207.072L188.641 205.486L188.474 201.442L191.979 200.411L192.23 198.666L194.65 200.014L195.986 200.173H198.49L202.079 201.283L203.582 201.838L206.42 200.252L208.173 201.204L208.924 198.904L211.595 198.984L212.096 198.27L211.929 196.208L213.348 194.464L216.102 195.574L216.019 197.16L217.438 197.398L218.189 201.68L220.443 203.345L221.695 202.235L223.531 201.759L225.618 199.459L228.79 199.856H233.297Z" fill="#ABCAEB" stroke="#7A98B5" stroke-linecap="round" stroke-linejoin="round"/>
<path d="M160.845 259.409L161.93 263.453H159.593V266.784L160.512 267.497L158.508 268.528L158.675 270.59L157.59 272.652V274.713L156.755 275.824L142.649 273.286L140.395 268.052L140.145 266.942L140.896 266.625L141.23 268.052L144.736 267.259L148.575 267.418L151.413 267.576L154.168 264.087L157.256 260.836L159.76 257.664L160.845 259.409Z" fill="#ABCAEB" stroke="#7A98B5" stroke-linecap="round" stroke-linejoin="round"/>
<path d="M110.012 179.714L112.099 177.652L115.02 180.269L118.025 183.917L120.112 184.155L121.698 185.503L118.192 185.899L118.276 189.864L117.942 191.609L116.523 192.798L117.191 195.256L116.105 195.574L112.85 192.878L113.852 190.419L112.266 188.913L110.68 189.309L106.256 193.036L105.505 189.468L103.418 188.675L101.248 187.327L102.166 185.661L99.495 183.917L100.079 182.648L98.243 181.776L97.0745 180.507L97.9926 179.635L101.498 181.141L103.919 181.379L104.42 180.824L101.665 178.049L102.667 177.414L103.919 177.573L107.508 180.586L109.511 180.983L110.012 179.714Z" fill="#ABCAEB" stroke="#7A98B5" stroke-linecap="round" stroke-linejoin="round"/>
<path d="M331.457 278.123L331.958 281.771L330.205 280.978L331.124 285.101L329.371 282.485L328.703 279.868L327.451 277.409L325.114 274.475L320.773 274.238L321.525 276.379L320.523 279.154L318.353 278.123L317.852 279.075L316.433 278.52L314.597 278.044L313.261 273.841L311.091 270.035L311.341 266.942L308.253 265.594L309.004 263.77L311.508 261.867L307.669 259.171L308.67 255.682L312.76 257.902L315.014 258.14L316.016 261.708L320.523 262.422L324.78 262.343L327.618 263.215L326.282 267.497L324.279 267.814L323.277 270.669L326.282 273.365L326.533 270.035H327.785L331.457 278.123Z" fill="#ABCAEB" stroke="#7A98B5" stroke-linecap="round" stroke-linejoin="round"/>
<path d="M442.055 367.334L443.891 365.431L447.731 362.576L447.647 365.113L447.564 368.365L445.31 368.206L444.392 369.951L442.055 367.334Z" fill="#ABCAEB" stroke="#7A98B5" stroke-linecap="round" stroke-linejoin="round"/>
<path d="M416.263 295.252L412.673 297.71L408.583 296.124L407.749 291.762L409.585 289.463L414.426 288.035L417.181 288.115L418.516 290.097L416.847 292.318L416.263 295.252Z" fill="#ABCAEB" stroke="#7A98B5" stroke-linecap="round" stroke-linejoin="round"/>
<path d="M435.795 139.51L443.307 143.078L448.315 147.678H454.659L456.829 145.774L462.588 144.268L463.673 148.788L463.423 150.612L465.76 156.004L466.261 160.92L460.502 160.048L458.081 161.793L462.004 166.075L465.259 172.022L463.173 172.101L464.759 174.718L460.168 171.705V174.56L454.826 176.701L457.163 179.397L453.323 179.159L450.318 177.573L449.4 181.221L446.145 183.917L444.392 187.168L439.133 188.595L437.13 190.974L433.124 192.402L434.209 190.023L432.289 188.04L433.958 184.631L430.202 182.014L427.364 183.758L424.359 187.327L423.274 190.578L419.101 190.816L418.016 193.195L422.022 196.605L426.029 197.477L427.197 199.697L431.454 201.204L434.626 197.556L439.551 199.539L442.472 199.697L444.392 202.314L438.799 203.741L437.965 206.517L434.793 209.054L434.042 212.623L439.968 215.398L443.808 220.394L448.398 225.073L452.989 228.958L454.325 232.765L451.988 234.192L453.991 236.888L457.246 238.474L457.914 242.598L457.997 246.642L455.66 247.118L453.907 252.589L451.988 259.329L449.15 265.356L443.808 270.035L438.299 274.396L433.207 274.951L430.786 277.172L428.867 275.586L426.78 278.044L420.77 280.661L415.929 281.374L415.344 286.767L412.757 287.084L410.921 283.357L411.672 281.454L405.161 279.788L403.158 280.661L398.233 279.313L395.646 277.251L395.896 274.317L391.472 273.365L388.885 271.462L385.462 274.158L381.038 274.793L377.366 274.713L375.112 275.982L372.858 276.696L374.528 282.564L372.024 282.405L371.356 281.216L370.939 279.075L367.767 280.581L365.597 279.63L361.84 277.727L362.508 273.524L359.42 272.493L357.416 267.814L352.742 268.687L352.158 262.66L355.664 258.378L354.912 254.175L353.827 250.289L351.574 249.1L349.32 246.087L346.732 246.483L341.641 245.69L342.642 243.549L339.637 240.377L336.966 242.518L332.876 241.329L328.369 244.501L325.114 248.307L321.608 248.941L319.271 247.593L316.85 247.435L313.261 246.325L311.091 247.593L308.921 251.4L307.669 247.355L305.081 248.466L299.655 247.911L294.23 246.8L290.056 244.501L286.3 243.549L284.214 241.091L281.459 240.377L276.117 237.047L272.11 235.461L270.525 236.65L263.346 233.082L258.171 229.91L255.5 224.28L258.922 224.993L258.421 222.376L255.917 219.76L255.25 215.636L248.822 209.609L240.893 207.627L238.472 203.662L234.549 201.283L233.297 199.856L231.795 197.001L231.377 195.019L228.289 193.829L227.037 194.384L224.449 189.626L225.367 188.516L224.366 187.327L227.788 184.948L230.459 183.917L235.3 184.631L235.801 181.379L241.143 180.824L241.978 178.762L247.737 176.066L247.904 174.956L246.485 172.022L248.906 170.753L241.561 162.031L249.156 160.048L250.826 158.938L249.991 149.977L259.006 151.642L260.341 149.343L258.255 144.426L261.426 143.951L263.012 140.62L264.431 140.223L267.186 143.713L271.944 146.329L278.788 148.153L283.629 152.198L284.798 157.986L287.302 160.207L292.727 161.079L298.737 161.713L305.415 164.885L308.253 165.44L312.426 170.04L316.349 173.053L321.024 172.894L330.456 174.084L335.798 173.37L340.472 174.084L348.318 177.176H353.493L356.248 178.683L359.921 175.987L365.93 174.242L372.274 174.084L376.364 172.339L378.034 169.643L380.037 167.899L378.451 166.233L376.03 164.33L376.448 161.079L379.119 161.555L384.043 162.586L386.714 159.889L392.056 157.986L393.142 154.656L395.228 153.228L400.904 152.594L404.577 153.149L403.909 151.405L397.899 147.915L393.559 146.329L391.472 148.153L386.881 147.36L384.961 147.995L382.624 146.012L382.374 141.016L381.873 137.289L388.05 139.193L391.723 136.1L390.137 133.88L389.97 128.725L391.055 127.139L388.968 124.443L385.88 123.333L387.299 120.875L391.556 120.002L396.731 119.844L403.909 121.351L408.917 123.095L415.344 128.012L418.516 130.153L422.272 133.166L427.448 137.924L435.795 139.51Z" fill="#ABCAEB" stroke="#7A98B5" stroke-linecap="round" stroke-linejoin="round"/>
<path d="M93.6522 173.132L97.9092 174.163L99.662 176.225L102.667 177.414L101.665 178.049L104.42 180.824L103.919 181.379L101.498 181.141L97.9927 179.635L97.0745 180.507L91.2316 181.3L86.5572 178.762L81.9664 179L82.2169 176.859L80.464 173.449L77.626 171.546L75.1219 170.991L73.2856 169.485L73.6194 168.85L77.4591 169.722L83.8863 170.515L90.2299 172.974L91.2316 173.925L93.6522 173.132Z" fill="#ABCAEB" stroke="#7A98B5" stroke-linecap="round" stroke-linejoin="round"/>
<path d="M470.768 442.508L468.765 442.588L462.839 439.019L467.346 437.988L469.683 439.574L471.186 441.081L470.768 442.508Z" fill="#ABCAEB" stroke="#7A98B5" stroke-linecap="round" stroke-linejoin="round"/>
<path d="M491.469 435.609L491.886 436.64L491.803 438.147L488.38 441.953L484.207 443.063L483.706 442.508L484.29 440.764L486.627 437.671L491.469 435.609Z" fill="#ABCAEB" stroke="#7A98B5" stroke-linecap="round" stroke-linejoin="round"/>
<path d="M458.415 431.565L460.001 432.913L463.006 432.517L464.007 434.658L458.415 435.689L455.16 436.402L452.572 436.323L454.408 433.389H457.079L458.415 431.565Z" fill="#ABCAEB" stroke="#7A98B5" stroke-linecap="round" stroke-linejoin="round"/>
<path d="M482.037 431.565L481.119 434.42L473.94 435.847L467.68 435.213L467.847 433.31L471.686 432.279L474.524 433.786L477.696 433.389L482.037 431.565Z" fill="#ABCAEB" stroke="#7A98B5" stroke-linecap="round" stroke-linejoin="round"/>
<path d="M415.094 424.825L424.109 425.38L425.277 423.239L433.875 425.697L435.377 429.028L442.389 429.979L447.981 432.993L442.472 434.896L437.38 432.834L433.123 432.993L428.282 432.596L423.942 431.724L418.6 429.741L415.177 429.266L413.174 429.9L404.66 427.759L403.993 425.618L399.736 425.221L403.241 420.384L408.917 420.701L412.59 422.684L414.593 423.08L415.094 424.825Z" fill="#ABCAEB" stroke="#7A98B5" stroke-linecap="round" stroke-linejoin="round"/>
<path d="M538.546 421.97L535.875 425.459L535.708 421.653L536.626 419.829L537.711 418.085L538.713 419.591L538.546 421.97Z" fill="#ABCAEB" stroke="#7A98B5" stroke-linecap="round" stroke-linejoin="round"/>
<path d="M503.989 407.934L502.153 409.679L498.981 408.727L498.146 406.507L502.904 406.269L503.989 407.934Z" fill="#ABCAEB" stroke="#7A98B5" stroke-linecap="round" stroke-linejoin="round"/>
<path d="M519.348 406.111L520.85 409.996L517.01 407.855L513.087 407.459L510.333 407.776L507.078 407.617L508.33 404.842L514.172 404.604L519.348 406.111Z" fill="#ABCAEB" stroke="#7A98B5" stroke-linecap="round" stroke-linejoin="round"/>
<path d="M494.891 383.114L491.135 388.189L487.546 389.141L483.038 388.189L475.109 388.427L471.019 389.141L470.351 393.026L474.524 397.546L477.112 395.247L485.96 393.502L485.542 395.802L483.456 395.088L481.369 398.101L477.112 400.084L481.369 406.586L480.451 408.331L484.457 414.199L484.207 417.529L481.619 419.036L479.867 417.212L482.371 413.089L477.613 415.071L476.528 413.644L477.195 411.661L473.94 408.648L474.524 403.732L471.269 405.238L471.436 411.186L471.269 418.481L468.181 419.195L466.261 417.767L467.847 413.089L467.346 408.172L465.343 408.093L464.007 404.604L466.094 401.273L466.845 397.229L469.349 389.537L470.268 387.475L474.274 383.669L478.03 385.176L483.957 385.889L489.382 385.652L494.056 382.004L494.891 383.114Z" fill="#ABCAEB" stroke="#7A98B5" stroke-linecap="round" stroke-linejoin="round"/>
<path d="M511.251 384.621L511.001 389.061L508.58 388.506L507.829 391.599L509.749 394.295L508.413 394.929L506.577 391.678L505.158 385.176L505.993 381.132L507.495 379.308L507.912 382.083L510.75 382.48L511.251 384.621Z" fill="#ABCAEB" stroke="#7A98B5" stroke-linecap="round" stroke-linejoin="round"/>
<path d="M421.104 380.101L421.939 383.511L425.194 386.445L428.282 385.414L431.287 385.731L434.042 383.193L436.295 382.718L440.803 384.145L444.642 383.035L446.813 375.977L448.565 374.233L449.984 368.444H455.41L459.583 369.316L457.079 373.915L460.752 378.673L460.001 381.052L465.343 385.731L459.75 386.365L458.248 389.854L458.415 394.454L453.824 397.943L453.49 403.018L451.403 410.789L450.819 408.965L445.31 411.265L443.557 408.172L440.218 407.855L437.881 406.19L432.205 408.093L430.619 405.555L427.448 405.873L423.608 405.318L423.107 398.498L420.77 397.071L418.516 392.709L417.849 388.268L418.349 383.511L421.104 380.101Z" fill="#ABCAEB" stroke="#7A98B5" stroke-linecap="round" stroke-linejoin="round"/>
<path d="M402.073 420.146L396.898 420.226L393.142 416.023L387.215 411.82L385.295 408.727L381.873 404.604L379.619 400.798L376.114 393.661L372.024 389.379L370.605 385.017L368.768 381.052L364.428 377.88L361.84 373.519L358.168 370.664L352.993 365.034L352.492 362.417L355.497 362.655L362.926 363.607L367.266 368.602L371.106 372.092L373.777 374.153L378.367 379.625L383.209 379.704L387.215 383.193L390.053 387.475L393.642 389.854L391.723 393.978L394.477 395.722L396.146 395.881L396.898 399.449L398.484 402.225L401.906 402.701L404.076 405.952L402.657 412.296L402.073 420.146Z" fill="#ABCAEB" stroke="#7A98B5" stroke-linecap="round" stroke-linejoin="round"/>
<path d="M270.524 236.65L268.187 239.029L267.436 243.787L272.277 245.69L277.119 248.148L283.629 251.003L290.056 251.717L293.228 254.254L296.817 254.73L302.577 255.92L306.416 255.84L306.5 253.858L305.248 250.607L305.081 248.466L307.668 247.355L308.921 251.4L309.254 252.351L313.845 254.334L316.516 253.541L320.439 253.858L324.196 253.699L323.778 250.607L321.608 248.941L325.114 248.307L328.369 244.501L332.876 241.329L336.966 242.518L339.637 240.377L342.642 243.549L341.641 245.69L346.732 246.483L347.567 248.386L346.148 249.338L347.317 252.431L343.811 251.558L338.636 255.047L339.387 257.981L337.718 262.263L337.968 264.722L336.633 268.925L332.793 267.735L333.544 273.048L332.709 274.793L333.544 276.934L331.457 278.123L327.785 270.035H326.533L326.282 273.365L323.277 270.669L324.279 267.814L326.282 267.497L327.618 263.215L324.78 262.343L320.523 262.422L316.015 261.708L315.014 258.14L312.76 257.902L308.67 255.682L307.668 259.171L311.508 261.867L309.004 263.77L308.253 265.594L311.341 266.942L311.091 270.035L313.261 273.841L314.596 278.044L314.179 279.947L311.007 279.868L305.498 280.899L306.25 284.705L304.246 287.718L297.986 291.207L293.562 297.155L290.39 300.406L286.217 303.736L286.467 306.036L284.297 307.305L280.29 309.129L278.12 309.367L277.119 313.252L278.705 319.913L279.289 324.116L277.703 328.953L278.287 337.597L275.867 337.835L273.947 341.72L275.533 343.465L271.276 344.892L269.857 348.302L268.02 349.809L263.346 345.051L260.759 337.914L258.672 332.76L256.835 330.381L253.998 325.464L252.328 319.12L251.16 315.948L246.235 308.97L243.313 299.058L241.143 292.555L240.475 286.37L239.056 281.612L232.629 284.705L229.29 284.071L222.529 277.885L224.533 276.061L222.947 274.079L217.02 269.718L219.691 266.308H229.791L228.289 261.946L225.367 259.409L224.199 255.444L220.86 253.224L224.95 247.831L230.376 248.228L234.132 242.915L235.968 237.76L239.223 232.606L238.389 228.958L241.56 226.024L237.304 223.566L234.883 220.077L232.128 215.636L233.798 213.416L240.893 214.685L245.651 213.892L248.822 209.609L255.25 215.636L255.917 219.76L258.421 222.376L258.922 224.993L255.5 224.28L258.171 229.91L263.346 233.082L270.524 236.65Z" fill="#ABCAEB" stroke="#7A98B5" stroke-linecap="round" stroke-linejoin="round"/>
<path d="M104.754 193.195L106.256 193.036L110.68 189.309L112.266 188.913L113.852 190.419L112.85 192.878L116.106 195.574L117.191 195.256L119.277 199.063L123.701 200.094L127.29 202.631L133.718 203.504L140.395 202.155L140.562 200.966L144.235 200.014L146.739 197.08L149.744 197.239L151.413 196.287L154.669 196.763L160.178 199.38L163.767 199.935L169.86 204.376L173.199 204.614L174.618 208.816L174.117 215.16L173.7 218.887L175.786 219.68L174.451 222.456L176.705 226.5L177.706 229.751L181.295 230.624L182.214 233.875L178.958 238.474L181.629 241.17L183.966 244.263L188.724 246.483L189.559 250.924L191.813 251.796L192.564 254.096L186.304 256.792L185.385 262.66L176.538 261.153L171.363 259.964L166.104 259.329L163.349 253.065L161.012 252.193L157.59 253.065L153.333 255.523L147.49 253.858L142.398 249.893L137.808 248.466L134.135 243.628L129.795 236.888L127.457 237.681L124.369 236.016L122.95 237.998L120.029 235.302L119.611 232.606H118.192L118.359 228.879L115.438 225.073L109.511 222.218L105.672 217.381L106.089 213.416L108.009 211.671L107.258 208.737L104.086 207.151L100.163 201.125L96.991 197.08L97.5753 195.494L95.1547 189.706L97.9092 188.199L98.9108 190.181L101.582 192.481L104.754 193.195Z" fill="#ABCAEB" stroke="#7A98B5" stroke-linecap="round" stroke-linejoin="round"/>
<path d="M100.163 201.125L104.086 207.151L107.258 208.737L108.009 211.671L106.089 213.416L105.672 217.381L109.511 222.218L115.438 225.073L118.359 228.879L118.192 232.606H119.611L120.029 235.302L122.95 237.998L120.196 237.76L117.107 237.285L114.353 242.201L105.839 241.805L91.8159 231.575L84.6375 228.007L78.9616 226.579L76.374 220.394L85.5557 215.081L86.3904 208.975L85.3888 205.248L87.6424 203.979L89.3953 200.807L91.1481 200.014L96.4068 200.728L98.1596 201.997L100.163 201.125Z" fill="#ABCAEB" stroke="#7A98B5" stroke-linecap="round" stroke-linejoin="round"/>
<path d="M63.1023 220.949L63.4362 223.011L62.9354 223.804H63.0188L62.4346 225.39L60.6816 224.755L60.0974 228.086L61.3494 228.641L60.2643 229.355L60.1808 230.703L62.2676 230.068L62.6015 232.051L61.099 240.139L60.5147 238.871L57.2594 231.416L58.428 229.751L58.0941 229.434L59.0122 227.055L59.5131 223.249L60.0139 221.901H60.0974H61.5999L61.9337 221.028L63.1023 220.949Z" fill="#ABCAEB" stroke="#7A98B5" stroke-linecap="round" stroke-linejoin="round"/>
<path d="M78.9615 226.579L78.2103 227.372L69.5295 229.91L74.5377 235.064L73.2021 235.857L72.6179 237.602L69.1956 238.315L68.2775 240.139L66.5245 241.725L61.3494 240.853L61.099 240.139L62.6015 232.051L62.2676 230.068L62.7684 228.562L62.4346 225.39L63.0188 223.804L68.2775 225.866L76.374 220.394L78.9615 226.579Z" fill="#ABCAEB" stroke="#7A98B5" stroke-linecap="round" stroke-linejoin="round"/>
<path d="M504.991 216.508L506.326 218.253L505.241 221.346L502.654 219.68L500.901 220.87L500.984 223.804L497.395 222.376L496.393 219.998L497.479 216.905L500.317 217.539L501.151 215.398L504.991 216.508Z" fill="#ABCAEB" stroke="#7A98B5" stroke-linecap="round" stroke-linejoin="round"/>
<path d="M525.524 201.283L526.025 205.327L528.112 207.865L527.611 211.433L523.104 213.812L515.425 214.129L511.752 219.998L507.829 218.015L505.826 214.209L498.647 215.319L494.39 217.698L489.215 217.856L495.392 221.584L496.06 230.227L493.973 232.368L490.968 230.386L490.217 225.786L486.794 224.359L483.456 220.87L487.045 219.284L487.963 216.033L491.218 213.416L492.888 209.927L500.984 208.42L506.243 209.451V200.411L510.5 202.869L514.256 197.794L515.675 195.812L514.84 189.626L510.583 183.917L510.416 180.745L514.423 179.793L521.267 186.851L523.605 190.895L522.52 196.049L525.524 201.283Z" fill="#ABCAEB" stroke="#7A98B5" stroke-linecap="round" stroke-linejoin="round"/>
<path d="M515.591 165.758L519.348 166.788L520.85 164.727L525.858 170.357L520.516 171.705L520.182 176.701L511.084 173.291L512.42 178.762L507.662 178.842L503.739 173.846L503.238 169.96L507.578 169.722L503.906 162.744L502.403 158.859L511.168 164.092L515.591 165.758Z" fill="#ABCAEB" stroke="#7A98B5" stroke-linecap="round" stroke-linejoin="round"/>
<path d="M195.986 119.685L199.659 119.447L207.338 114.848L206.67 116.434L213.682 120.161L228.957 132.532L229.875 129.994L236.886 132.769L242.061 131.501L244.816 132.373L248.238 135.228L251.577 136.179L254.331 138.32L259.34 137.607L263.012 140.62L261.426 143.951L258.255 144.426L260.341 149.343L259.006 151.642L249.991 149.977L250.826 158.938L249.156 160.048L241.561 162.031L248.906 170.753L246.485 172.022L247.904 174.956L244.983 174.163L242.145 172.339L235.551 171.864L228.372 171.705L227.037 172.26L220.192 170.119L218.106 171.229L218.523 174.163L210.844 172.419L208.256 173.132L208.006 175.353L205.836 176.304L201.328 179.793L200.577 183.441H198.908L196.988 181.062L191.395 180.904L189.309 176.78L187.138 176.701L185.886 171.626L179.543 167.978L172.364 168.374L167.606 169.088L162.097 164.568L158.091 162.665L150.412 159.096L149.493 158.7L139.477 161.634L144.652 180.19L142.482 180.428L138.476 176.463L135.22 175.035L130.546 176.066L129.043 177.811L128.543 176.542L129.043 174.48L127.791 172.736L122.366 170.991L119.277 166.471L116.606 165.202L116.106 163.537L120.363 164.013L119.528 160.365L122.95 159.572L126.873 160.286L126.289 155.449L124.703 152.356L120.53 152.594L116.606 151.405L112.349 153.546L108.677 154.656L106.34 153.784L106.173 151.246L102.584 147.915L99.5787 148.074L95.1547 144.744L96.5737 140.937L95.0713 139.986L96.9076 134.514L101.916 137.369L101.415 133.8L108.176 128.487L114.52 128.329L124.536 131.739L130.045 133.721L133.718 131.659L140.145 131.58L146.238 134.118L146.906 132.611L152.749 132.849L152.916 130.549L145.07 127.139L147.991 124.76L146.739 123.492L150.078 122.223L145.821 118.892L146.989 117.227L161.179 115.562L162.598 114.372L171.696 112.548L174.284 110.566L181.88 111.597L185.552 116.593L189.142 115.403L195.068 117.068L195.986 119.685Z" fill="#ABCAEB" stroke="#7A98B5" stroke-linecap="round" stroke-linejoin="round"/>
<path d="M405.913 318.01L407.415 321.42L407.498 327.526L399.986 331.491L402.323 334.504L397.399 334.901L393.559 336.962L389.552 336.249L387.382 333.553L384.461 328.319L382.708 322.134L385.295 317.931L391.222 316.979L395.646 317.693L399.819 319.675L401.489 316.186L405.913 318.01Z" fill="#ABCAEB" stroke="#7A98B5" stroke-linecap="round" stroke-linejoin="round"/>
<path d="M458.582 198.191V197.715L460.669 197.873L461.169 195.653L464.174 195.336L465.844 195.019V193.829L472.772 199.776L475.526 203.107L478.364 208.975L477.947 211.751L474.358 212.702L471.77 214.843L467.93 215.24L466.178 212.464L465.259 208.658L460.835 203.424L463.673 202.552L458.582 198.191Z" fill="#ABCAEB" stroke="#7A98B5" stroke-linecap="round" stroke-linejoin="round"/>
<path d="M120.196 237.76L121.448 239.981L121.197 241.17L123.201 244.977L119.945 245.135L118.526 242.677L114.353 242.201L117.107 237.285L120.196 237.76Z" fill="#ABCAEB" stroke="#7A98B5" stroke-linecap="round" stroke-linejoin="round"/>
<path d="M405.913 318.01L401.489 316.186L399.819 319.675L395.646 317.693L396.898 315.393L396.564 311.111L392.14 306.671L391.055 301.595L386.881 297.472L383.292 297.155L382.624 298.899L379.953 299.058L378.368 298.186L373.944 301.199L373.109 296.6L373.443 291.287L370.271 291.049L369.52 287.956L367.266 286.37L367.934 284.546L371.356 281.216L372.024 282.405L374.528 282.564L372.858 276.696L375.112 275.982L378.451 280.026L381.372 284.626H387.048L389.552 289.066L386.798 290.414L385.796 292.238L391.89 295.331L396.647 301.358L400.32 305.798L404.41 309.367L406.079 312.935L405.913 318.01Z" fill="#ABCAEB" stroke="#7A98B5" stroke-linecap="round" stroke-linejoin="round"/>
<path d="M63.1022 220.949L61.9336 221.028L61.5998 221.901H60.0974L61.1825 217.698L63.0188 214.129V213.971L65.1055 214.209L66.1071 216.191L63.8535 218.174L63.1022 220.949Z" fill="#ABCAEB" stroke="#7A98B5" stroke-linecap="round" stroke-linejoin="round"/>
<path d="M285.799 358.769L281.793 359.959L279.372 355.915L278.204 348.619L279.873 340.372L283.295 343.148L285.632 346.716L288.22 352.029L287.719 357.342L285.799 358.769Z" fill="#ABCAEB" stroke="#7A98B5" stroke-linecap="round" stroke-linejoin="round"/>
<path d="M371.356 281.216L367.934 284.546L367.266 286.37L364.762 287.56L362.425 289.78L359.169 290.018L357.917 295.489L356.081 296.441L359.002 300.882L362.425 304.609L364.845 308.019L363.677 312.38L362.174 313.332L363.677 315.869L367.266 319.913L368.101 322.768L368.267 325.147L370.521 329.826L368.351 334.583L366.515 339.817L365.763 336.011L366.849 332.125L365.012 329.112L364.845 323.561L362.675 320.865L360.421 314.838L358.752 308.415L356.164 304.133L353.493 306.75L348.652 310.318L345.898 309.922L342.893 308.732L343.644 302.388L341.975 297.631L337.551 291.762L337.801 289.939L334.963 289.225L331.123 285.101L330.205 280.978L331.958 281.771L331.457 278.123L333.544 276.934L332.709 274.793L333.544 273.048L332.793 267.735L336.633 268.925L337.968 264.722L337.718 262.263L339.387 257.981L338.636 255.047L343.811 251.558L347.317 252.431L346.148 249.338L347.567 248.386L346.732 246.483L349.32 246.087L351.574 249.1L353.827 250.289L354.912 254.175L355.664 258.378L352.158 262.66L352.742 268.687L357.416 267.814L359.42 272.493L362.508 273.524L361.84 277.727L365.596 279.63L367.767 280.581L370.939 279.075L371.356 281.216Z" fill="#ABCAEB" stroke="#7A98B5" stroke-linecap="round" stroke-linejoin="round"/>
<path d="M327.785 136.338L331.123 135.386L335.881 134.752L340.389 135.466L345.898 137.765L349.988 140.303H353.827L359.503 141.096L362.508 139.827L367.433 139.034L371.105 135.545L373.943 136.1L377.199 137.765L381.873 137.289L382.374 141.016L382.624 146.012L384.961 147.995L386.881 147.36L391.472 148.153L393.559 146.329L397.899 147.915L403.909 151.405L404.577 153.149L400.904 152.594L395.228 153.228L393.141 154.656L392.056 157.986L386.714 159.889L384.043 162.586L379.119 161.555L376.448 161.079L376.03 164.33L378.451 166.233L380.037 167.899L378.034 169.643L376.364 172.339L372.274 174.084L365.93 174.242L359.921 175.987L356.248 178.683L353.493 177.176H348.318L340.472 174.084L335.798 173.37L330.456 174.084L321.024 172.894L316.349 173.053L312.426 170.04L308.253 165.44L305.415 164.885L298.737 161.713L292.727 161.079L287.302 160.207L284.798 157.986L283.629 152.198L278.788 148.153L271.944 146.329L267.186 143.713L264.431 140.224L268.354 139.351L273.947 135.148L278.871 132.849L283.295 134.355L287.636 134.435L291.642 136.734L295.816 136.893L302.493 138.162L304.497 134.673L301.158 131.818L302.243 126.743L308.086 128.725L312.092 129.36L317.685 130.628L320.69 134.276L327.785 136.338Z" fill="#ABCAEB" stroke="#7A98B5" stroke-linecap="round" stroke-linejoin="round"/>
<path d="M384.628 358.69L385.796 359.166L388.718 362.259L390.804 365.668L391.305 369.078L390.888 371.378L391.389 373.122L391.806 376.136L393.559 377.563L395.479 382.083V383.748L392.14 384.145L387.549 380.339L381.873 376.294L381.205 373.678L378.367 370.268L377.533 366.065L375.696 363.289L376.03 359.562L374.862 357.421L375.613 356.549L379.62 358.769L380.12 361.386L383.209 360.752L384.628 358.69Z" fill="#ABCAEB" stroke="#7A98B5" stroke-linecap="round" stroke-linejoin="round"/>
<path d="M459.583 369.316L455.41 368.444H449.984L448.565 374.233L446.813 375.977L444.642 383.035L440.803 384.145L436.295 382.718L434.042 383.193L431.287 385.731L428.282 385.414L425.194 386.445L421.939 383.511L421.104 380.101L424.61 381.845L428.199 380.894L429.034 376.612L431.037 375.66L436.713 374.55L439.885 370.506L442.055 367.334L444.392 369.951L445.31 368.206L447.564 368.365L447.647 365.113L447.731 362.576L451.153 359.087L453.323 355.122L455.243 355.042L457.831 357.659L458.164 359.88L461.336 361.307L465.343 362.814L465.176 364.796L462.004 365.034L462.922 367.572L459.583 369.316Z" fill="#ABCAEB" stroke="#7A98B5" stroke-linecap="round" stroke-linejoin="round"/>
<path d="M305.081 248.466L305.248 250.607L306.5 253.858L306.416 255.84L302.577 255.92L296.817 254.73L293.228 254.254L290.056 251.717L283.629 251.003L277.119 248.148L272.277 245.69L267.436 243.787L268.187 239.029L270.524 236.65L272.11 235.461L276.117 237.047L281.459 240.377L284.214 241.091L286.3 243.549L290.056 244.501L294.23 246.8L299.655 247.911L305.081 248.466Z" fill="#ABCAEB" stroke="#7A98B5" stroke-linecap="round" stroke-linejoin="round"/>
<path d="M150.495 305.56L148.659 301.992L144.318 293.586L157.924 288.511L160.094 278.361L157.59 274.713V272.652L158.675 270.59L158.508 268.528L160.512 267.497L159.593 266.784V263.453H161.93L164.435 266.942L167.189 268.766L170.611 269.48L173.449 270.352L175.87 273.286L177.289 274.951L178.958 275.665L179.125 276.775L177.706 279.788L177.122 281.216L175.286 282.881L173.867 286.37L171.78 286.053L170.945 287.322L170.361 289.859L171.279 293.269L170.862 293.904H168.775L166.02 295.807L165.77 298.265L164.768 299.375L161.847 299.296L160.178 300.565L160.345 302.626L158.174 304.054L155.587 303.578L152.582 305.322L150.495 305.56Z" fill="#ABCAEB" stroke="#7A98B5" stroke-linecap="round" stroke-linejoin="round"/>
<path d="M248.822 209.609L245.651 213.892L240.893 214.685L233.798 213.416L232.128 215.636L234.883 220.077L237.304 223.566L241.561 226.024L238.389 228.958L239.223 232.606L235.968 237.76L234.132 242.915L230.376 248.228L224.95 247.831L220.86 253.224L224.199 255.444L225.367 259.409L228.289 261.946L229.791 266.308H219.691L217.02 269.718L213.515 268.449L211.678 264.801L207.588 260.915L199.241 261.867L191.729 261.946L185.385 262.66L186.304 256.792L192.564 254.096L191.813 251.796L189.559 250.924L188.724 246.483L183.966 244.263L181.629 241.17L178.958 238.474L186.971 241.091L191.395 240.298L194.233 240.932L194.984 239.822L198.24 240.298L203.749 238.157L203.081 233.875L205.001 230.941H208.423L208.59 229.593L211.929 228.879L213.682 229.355L215.184 227.927L214.266 224.835L215.434 221.821L218.022 220.473L215.434 217.143L219.775 217.301L220.526 215.478L219.858 213.495L221.528 211.354L220.359 208.816L218.773 206.675L220.777 204.455L225.2 203.424L230.125 202.79L232.128 201.918L234.549 201.283L238.472 203.662L240.893 207.627L248.822 209.609Z" fill="#ABCAEB" stroke="#7A98B5" stroke-linecap="round" stroke-linejoin="round"/>
<path d="M498.313 347.509L499.065 350.919L499.565 353.774L498.23 358.373L496.143 353.219L494.14 355.835L495.893 359.562L494.724 361.941L488.965 359.007L487.379 355.28L488.631 352.901L485.459 350.443L484.123 352.584L481.953 352.346L478.614 355.201L477.78 353.694L479.282 349.412L482.12 347.985L484.541 346.082L486.377 348.381L489.883 347.033L490.467 344.734L493.806 344.575L493.138 340.689L497.228 343.068L497.813 345.606L498.313 347.509Z" fill="#ABCAEB" stroke="#7A98B5" stroke-linecap="round" stroke-linejoin="round"/>
<path d="M486.127 337.993L484.624 339.659L483.456 342.91L482.12 344.416L478.865 340.927L479.699 339.5L480.785 338.073L480.951 334.98L483.539 334.663L483.122 338.073L486.127 333.156V337.993Z" fill="#ABCAEB" stroke="#7A98B5" stroke-linecap="round" stroke-linejoin="round"/>
<path d="M460.835 342.91L454.909 347.747L456.912 344.179L460.084 341.007L462.588 337.518L464.508 332.442L465.844 336.645L462.922 339.421L460.835 342.91Z" fill="#ABCAEB" stroke="#7A98B5" stroke-linecap="round" stroke-linejoin="round"/>
<path d="M475.443 329.826L478.447 331.412H481.369L481.536 333.473L479.616 335.694L476.778 337.2L476.361 334.821L476.444 332.205L475.443 329.826Z" fill="#ABCAEB" stroke="#7A98B5" stroke-linecap="round" stroke-linejoin="round"/>
<path d="M492.22 328.398L494.223 334.108L490.467 332.76L490.718 334.504L492.22 337.597L490.05 338.786L489.549 335.139L488.046 334.901L487.045 331.808L489.799 332.205L489.549 330.301L486.21 326.416L490.718 326.495L492.22 328.398Z" fill="#ABCAEB" stroke="#7A98B5" stroke-linecap="round" stroke-linejoin="round"/>
<path d="M473.022 323.799L472.271 328.24L470.017 325.702L467.096 321.816L471.102 321.975L473.022 323.799Z" fill="#ABCAEB" stroke="#7A98B5" stroke-linecap="round" stroke-linejoin="round"/>
<path d="M467.596 296.124L470.768 297.631L471.937 296.282L472.605 297.551L472.271 299.692L474.441 303.34L473.94 307.543L471.519 309.208L471.436 313.332L473.105 317.376L475.61 317.931L477.613 317.376L483.873 320.151L483.789 322.927L485.542 324.195L485.292 326.495L481.369 324.037L479.282 321.341L478.281 323.244L474.942 320.151L470.768 320.944L468.264 319.834L468.181 317.693L469.516 316.424L467.93 315.235L467.596 317.059L464.842 314.125L463.757 311.904L462.839 307.067L465.009 308.732L464.091 300.723L464.758 296.124H467.596Z" fill="#ABCAEB" stroke="#7A98B5" stroke-linecap="round" stroke-linejoin="round"/>
<path d="M464.759 174.718L465.927 175.591L464.091 175.273L463.256 177.018L463.006 178.683L465.343 182.331L463.757 183.441L463.507 184.313L462.755 185.82L460.335 186.692L459.166 188.04L460.251 190.181L460.001 190.736L462.171 191.609L465.844 193.829V195.019L464.174 195.336L461.169 195.653L460.669 197.873L458.582 197.715V198.191L455.911 197.239L455.827 198.191L454.742 198.587L454.158 197.635L452.739 197.16L451.153 196.367L451.236 194.146L451.988 193.512L451.153 192.64L450.819 189.864L450.068 189.071L447.23 188.516L444.392 187.168L446.145 183.917L449.4 181.221L450.318 177.573L453.323 179.159L457.163 179.397L454.826 176.701L460.168 174.56V171.705L464.759 174.718Z" fill="#ABCAEB" stroke="#7A98B5" stroke-linecap="round" stroke-linejoin="round"/>
<path d="M62.4345 225.39L62.7683 228.562L62.2675 230.068L60.1808 230.703L60.2642 229.355L61.3494 228.641L60.0974 228.086L60.6816 224.755L62.4345 225.39Z" fill="#ABCAEB" stroke="#7A98B5" stroke-linecap="round" stroke-linejoin="round"/>
<path d="M139.06 264.96L137.808 265.356L136.305 264.325L135.637 260.598L136.556 257.981L137.808 257.426L139.31 259.012L139.727 261.946L139.06 264.96Z" fill="#ABCAEB" stroke="#7A98B5" stroke-linecap="round" stroke-linejoin="round"/>
<path d="M114.353 242.201L118.526 242.677L119.945 245.135L123.2 244.976L125.454 249.417L127.875 250.527L128.876 252.351L132.215 254.492L132.799 256.554L132.466 258.299L133.217 259.964L134.719 261.391L135.471 263.056L136.305 264.325L137.808 265.356L139.06 264.96L140.145 266.942L140.395 268.052L142.649 273.286L156.755 275.824L157.59 274.713L160.094 278.361L157.924 288.511L144.318 293.586L131.047 295.569L126.873 297.868L123.952 303.181L121.781 304.054L120.529 302.388L118.777 302.626L114.186 302.071L113.268 301.595L107.926 301.675L106.673 302.151L104.67 300.882L103.585 303.34L104.253 305.481L102.25 307.146L101.498 304.926L99.9959 303.419L99.5786 301.358L96.9909 299.534L94.2365 295.252L92.6505 291.128L89.2283 287.639L87.1416 286.767L83.7193 281.929L82.9681 278.44V275.427L79.9632 269.718L77.626 267.735L75.1219 266.704L73.3691 263.77L73.536 262.66L72.0336 259.964L70.6145 258.854L68.5278 255.047L65.356 251.003L62.7684 247.514H60.5147L60.9321 244.739L61.0155 242.915L61.3494 240.853L66.5245 241.725L68.2774 240.139L69.1956 238.315L72.6178 237.602L73.2021 235.857L74.5377 235.064L69.5295 229.91L78.2102 227.372L78.9615 226.579L84.6375 228.007L91.8158 231.575L105.839 241.805L114.353 242.201Z" fill="#ABCAEB" stroke="#7A98B5" stroke-linecap="round" stroke-linejoin="round"/>
<path d="M76.374 220.394L68.2775 225.866L63.0189 223.804H62.9354L63.4362 223.011L63.1023 220.949L63.8536 218.174L66.1072 216.191L65.1056 214.209L63.0189 213.971L62.1007 210.085L62.9354 207.944L64.0204 206.834L65.0221 205.724L64.8551 202.948L66.4411 203.9L71.1154 202.473L73.6195 203.424H77.2922L82.05 201.521L84.4705 201.6L89.3953 200.807L87.6424 203.979L85.3888 205.248L86.3904 208.975L85.5557 215.081L76.374 220.394Z" fill="#ABCAEB" stroke="#7A98B5" stroke-linecap="round" stroke-linejoin="round"/>
<path d="M395.646 317.693L391.222 316.979L385.295 317.931L382.708 322.134L384.461 328.319L380.037 325.94L376.03 326.099L376.281 322.054H372.191L372.358 327.685L370.521 335.139L369.353 339.659L369.937 343.306L373.025 343.465L375.279 348.144L376.364 352.505L379.202 355.439L382.04 355.994L384.628 358.69L383.209 360.752L380.12 361.386L379.619 358.769L375.613 356.549L374.862 357.421L372.942 355.518L371.94 352.981L369.269 350.126L366.849 347.668L366.264 350.681L365.179 347.826L365.513 344.654L366.515 339.817L368.351 334.584L370.521 329.826L368.267 325.147L368.101 322.768L367.266 319.913L363.677 315.869L362.174 313.332L363.677 312.38L364.845 308.019L362.425 304.609L359.002 300.882L356.081 296.441L357.917 295.489L359.169 290.018L362.425 289.78L364.762 287.56L367.266 286.37L369.52 287.956L370.271 291.049L373.443 291.287L373.109 296.6L373.943 301.199L378.367 298.186L379.953 299.058L382.624 298.899L383.292 297.155L386.881 297.472L391.055 301.595L392.14 306.671L396.564 311.111L396.898 315.393L395.646 317.693Z" fill="#ABCAEB" stroke="#7A98B5" stroke-linecap="round" stroke-linejoin="round"/>
<path d="M211.595 185.582L210.426 187.089L205.418 186.296L205.919 189.151L210.51 188.754L216.436 190.419L224.449 189.626L227.037 194.384L228.289 193.829L231.377 195.019L231.795 197.001L233.297 199.856H228.79L225.618 199.459L223.531 201.759L221.695 202.235L220.443 203.345L218.189 201.68L217.438 197.398L216.019 197.16L216.102 195.574L213.348 194.464L211.929 196.208L212.096 198.27L211.595 198.984L208.924 198.904L208.173 201.204L206.42 200.252L203.582 201.838L202.079 201.283L203.164 196.129L201.161 192.322L197.656 191.133L198.156 188.913L201.829 189.151L203.081 186.375L203.498 183.124L208.924 181.934L208.757 184.313L209.842 185.661L211.595 185.582Z" fill="#ABCAEB" stroke="#7A98B5" stroke-linecap="round" stroke-linejoin="round"/>
<path d="M195.986 200.173L194.65 200.014L192.23 198.666L191.98 200.411L188.474 201.442L188.641 205.486L186.471 207.072L183.132 207.786L182.798 210.085L179.543 210.799L174.618 208.816L173.199 204.614L169.86 204.376L163.767 199.935L160.178 199.38L154.669 196.763L151.413 196.287L149.744 197.239L146.739 197.08L144.235 200.014L140.562 200.966L138.976 197.398L138.475 192.085L134.636 190.34L134.97 186.93L132.048 186.613L131.965 182.331L136.389 183.6L139.811 182.014L135.888 178.921L133.885 176.066L130.713 177.335L131.214 181.062L129.043 177.811L130.546 176.066L135.22 175.035L138.475 176.463L142.482 180.428L144.652 180.19L149.577 180.111L148.158 177.573L151.33 175.828L154.168 172.894L160.762 175.591L162.348 179.555L164.268 180.586L168.858 180.348L170.611 181.3L174.2 186.534L180.127 190.023L183.633 192.402L188.891 194.86L195.318 197.08L195.986 200.173Z" fill="#ABCAEB" stroke="#7A98B5" stroke-linecap="round" stroke-linejoin="round"/>
<path d="M491.803 438.147L491.886 436.64L491.469 435.609L492.137 434.42L496.227 433.31L499.565 433.072L501.068 432.438L502.821 433.072L500.984 434.499L495.893 436.72L491.803 438.147Z" fill="#ABCAEB" stroke="#7A98B5" stroke-linecap="round" stroke-linejoin="round"/>
<path d="M81.9664 179L86.5572 178.762L91.2316 181.3L92.3166 183.045L92.4001 185.503L95.9059 186.772L97.9092 188.199L95.1546 189.706L97.5753 195.494L96.9909 197.08L100.163 201.125L98.1595 201.997L96.4067 200.728L91.148 200.014L89.3952 200.807L84.4705 201.6L82.0499 201.521L77.2921 203.424H73.6194L71.1153 202.473L66.441 203.9L64.8551 202.948L65.0221 205.724L64.0204 206.834L62.9353 207.944L61.0155 205.645L62.4345 203.741L59.7635 204.217L55.9239 203.028L53.2529 205.962L46.5753 206.517L42.6522 203.821L37.8944 203.662L37.0597 205.724L34.0549 206.358L29.5475 203.662L24.7062 203.741L21.5344 198.666L18.0286 195.891L19.698 191.926L16.6931 189.468L20.95 184.631L27.6276 184.472L28.9631 180.586L37.3101 181.3L41.9845 178.049L46.8257 176.621L53.9206 176.463L62.1006 180.031L68.6948 182.014L73.536 181.221L77.3755 181.696L81.9664 179Z" fill="#ABCAEB" stroke="#7A98B5" stroke-linecap="round" stroke-linejoin="round"/>
<path d="M462.755 274.317L461.587 278.52L458.248 274.158L456.996 270.431L458.582 265.435L461.336 261.55L463.84 263.056L463.757 266.149L462.755 274.317Z" fill="#ABCAEB" stroke="#7A98B5" stroke-linecap="round" stroke-linejoin="round"/>
<path d="M208.006 175.353L209.425 175.828L206.921 179.08L210.76 180.983L213.431 179.714L219.441 182.41L215.017 186.058L211.595 185.582L209.842 185.661L208.757 184.313L208.924 181.934L203.498 183.124L203.081 186.375L201.829 189.151L198.156 188.913L197.656 191.133L201.161 192.322L203.165 196.129L202.079 201.283L198.49 200.173H195.986L195.318 197.08L188.891 194.86L183.633 192.402L180.127 190.023L174.201 186.534L170.611 181.3L168.859 180.348L164.268 180.586L162.348 179.555L160.762 175.591L154.168 172.894L151.33 175.828L148.158 177.573L149.577 180.111L144.652 180.19L139.477 161.634L149.494 158.7L150.412 159.096L158.091 162.665L162.097 164.568L167.607 169.088L172.364 168.374L179.543 167.978L185.886 171.626L187.138 176.701L189.309 176.78L191.395 180.904L196.988 181.062L198.908 183.441H200.577L201.328 179.793L205.836 176.304L208.006 175.353Z" fill="#ABCAEB" stroke="#7A98B5" stroke-linecap="round" stroke-linejoin="round"/>
<path d="M403.158 280.661L397.732 284.943L394.644 289.78L394.143 293.348L398.567 298.661L403.993 305.322L408.75 308.494L412.173 312.539L415.511 321.975L415.845 330.936L412.256 334.266L407.164 337.597L403.659 341.8L398.15 346.558L396.23 343.306L397.232 339.817L393.559 336.962L397.398 334.901L402.323 334.504L399.986 331.491L407.498 327.526L407.415 321.42L405.912 318.01L406.079 312.935L404.41 309.367L400.32 305.798L396.647 301.358L391.889 295.331L385.796 292.238L386.798 290.414L389.552 289.066L387.048 284.626H381.372L378.451 280.026L375.112 275.982L377.366 274.713L381.038 274.793L385.462 274.158L388.885 271.462L391.472 273.365L395.896 274.317L395.646 277.251L398.233 279.313L403.158 280.661Z" fill="#ABCAEB" stroke="#7A98B5" stroke-linecap="round" stroke-linejoin="round"/>
<path d="M150.495 305.56L147.156 306.908L146.405 309.208V310.953L141.898 313.094L134.552 315.473L130.629 319.041L128.543 319.358L127.124 319.041L124.452 321.182L121.531 322.134L117.608 322.372L116.439 322.689L115.521 324.037L114.269 324.433L113.601 325.702L111.264 325.544L109.845 326.257L106.507 326.019L105.171 323.006V320.231L104.336 318.724L103.251 314.997L101.749 312.935L102.667 312.618L102.083 310.318L102.583 309.367L102.25 307.146L104.253 305.481L103.585 303.34L104.67 300.882L106.674 302.151L107.926 301.675L113.268 301.595L114.186 302.071L118.777 302.626L120.529 302.388L121.782 304.054L123.952 303.181L126.873 297.868L131.047 295.569L144.318 293.586L148.659 301.992L150.495 305.56Z" fill="#ABCAEB" stroke="#7A98B5" stroke-linecap="round" stroke-linejoin="round"/>
<path d="M489.132 133.087L500.567 141.809L493.138 140.223L496.226 147.36L504.24 152.435L506.744 155.925L501.318 152.911L501.402 156.797L497.479 152.594L494.307 147.757L489.632 142.444L487.629 138.638L482.287 132.135L475.61 127.298L469.934 120.637L471.519 118.416L467.847 116.196L468.932 115.482L473.022 118.654L478.781 123.333L483.122 128.17L489.132 133.087Z" fill="#ABCAEB" stroke="#7A98B5" stroke-linecap="round" stroke-linejoin="round"/>
<path d="M371.356 30.6333L366.431 30.7126L359.002 30.2368L358.168 29.9989L358.752 28.413L362.258 28.0165L369.269 29.6025L371.356 30.6333Z" fill="#ABCAEB" stroke="#7A98B5" stroke-linecap="round" stroke-linejoin="round"/>
<path d="M381.873 23.1L380.955 24.686L375.196 24.3688L366.598 22.7828L365.096 21.514L372.024 22.0691L381.873 23.1Z" fill="#ABCAEB" stroke="#7A98B5" stroke-linecap="round" stroke-linejoin="round"/>
<path d="M360.588 21.1968L363.176 24.2102L351.24 24.0516L347.4 25.0032L336.966 22.3863L334.128 19.6902L337.05 18.9765L345.564 19.1351L360.588 21.1968Z" fill="#ABCAEB" stroke="#7A98B5" stroke-linecap="round" stroke-linejoin="round"/>
<path d="M96.2398 41.0214L94.4035 41.3386L83.135 40.7835L81.2153 38.9597L74.6212 37.8495L72.9518 35.5498L75.8732 34.6775L74.5377 32.4572L79.045 28.9681L75.7062 28.4923L81.2988 24.9239L79.212 23.1L84.8879 21.0382L93.4853 18.5007L103.251 17.787L107.425 16.3597L113.017 15.8839L116.523 17.3905L115.438 18.58L105.922 20.5625L97.6588 22.3863L90.397 26.1926L88.0598 30.1575L85.3052 34.1225L87.8929 37.5323L96.2398 41.0214Z" fill="#ABCAEB" stroke="#7A98B5" stroke-linecap="round" stroke-linejoin="round"/>
<path d="M465.927 175.591L464.759 174.718L463.173 172.101L465.259 172.022L462.004 166.075L458.081 161.793L460.502 160.048L466.261 160.92L465.76 156.004L463.423 150.612L463.673 148.788L462.588 144.268L456.829 145.774L454.659 147.678H448.315L443.307 143.078L435.795 139.51L427.448 137.924L422.272 133.166L418.516 130.153L415.344 128.012L408.917 123.095L403.909 121.351L396.731 119.844L391.556 120.002L387.299 120.875L385.88 123.333L388.968 124.443L391.055 127.139L389.97 128.725L390.137 133.88L391.723 136.1L388.05 139.193L381.873 137.289L377.199 137.765L373.943 136.1L371.106 135.545L367.433 139.034L362.508 139.827L359.503 141.096L353.827 140.303H349.988L345.898 137.765L340.389 135.466L335.881 134.752L331.124 135.386L327.785 136.338L320.69 134.276L317.685 130.628L312.092 129.36L308.086 128.725L302.243 126.743L301.158 131.818L304.497 134.673L302.493 138.162L295.816 136.893L291.642 136.734L287.636 134.435L283.295 134.355L278.871 132.849L273.947 135.148L268.354 139.351L264.431 140.224L263.012 140.62L259.34 137.607L254.331 138.32L251.577 136.179L248.238 135.228L244.816 132.373L242.061 131.501L236.886 132.769L229.875 129.994L228.957 132.532L213.682 120.161L206.67 116.434L207.338 114.848L199.659 119.447L195.986 119.685L195.068 117.068L189.142 115.403L185.552 116.593L181.88 111.597L174.284 110.566L171.696 112.548L162.598 114.372L161.179 115.562L146.989 117.227L145.821 118.892L150.078 122.223L146.739 123.492L147.991 124.76L145.07 127.139L152.916 130.549L152.749 132.849L146.906 132.611L146.238 134.118L140.145 131.58L133.718 131.659L130.045 133.721L124.536 131.739L114.52 128.329L108.176 128.487L101.415 133.8L101.916 137.369L96.9076 134.514L95.0713 139.986L96.5737 140.937L95.1547 144.744L99.5786 148.074L102.584 147.915L106.173 151.246L106.34 153.784L108.677 154.656L107.508 157.59L103.669 158.383L100.664 163.537L105.672 168.374L106.006 171.705L112.099 177.652L110.012 179.714L109.511 180.983L107.508 180.586L103.919 177.573L102.667 177.414L99.6621 176.225L97.9093 174.163L93.6522 173.132L91.2317 173.925L90.23 172.974L83.8863 170.515L77.4592 169.722L73.6195 168.85L73.2857 169.485L66.9419 165.202L61.7668 163.299L57.5099 160.365L60.5148 159.572L63.1858 155.449L60.4313 153.466L66.1908 151.405L65.8569 150.294L62.2676 151.087L61.9337 148.946L63.7701 147.519L67.7766 147.202L68.0271 145.537L66.5246 142.761L67.6097 140.224L67.2758 138.717L60.8487 137.131L58.428 137.21L55.4232 134.911L52.4183 135.704L46.8257 133.959L46.7423 133.007L44.8224 130.866L41.5672 130.628L40.8994 129.122L41.6507 128.091L38.4788 125.315L34.3887 125.791L33.1367 125.553L32.302 126.664L30.7996 126.505L29.1302 123.333L27.8782 121.747L28.5459 121.271L31.8012 121.43L33.1367 120.399L31.7177 119.13L28.8798 118.258V117.386L27.1269 116.513L23.955 113.341L24.5394 112.073L23.6212 109.773L19.6146 108.663L17.6113 109.218L16.8601 108.028L12.4363 106.839L10.6834 103.984L9.84873 101.685L7.76199 100.654L9.09748 99.147L7.09419 94.7063L9.26438 92.0102L8.51313 91.2172L12.2693 88.6004L7.76199 86.38L14.4396 80.5119L17.2774 77.8158L18.0287 75.5161L11.8519 72.4235L12.6032 69.4102L8.51313 66.0796L9.93218 62.2733L4.50665 57.2775L6.92729 53.947L0.83396 51.013L0.500061 47.9996L3.17115 47.6032L8.51313 45.9379L11.6016 44.4312L18.0287 46.9688L27.7947 47.9996L42.5688 52.9161L45.991 54.9779L47.2431 57.9119L44.1548 60.2116L38.7292 61.4011L21.8683 58.0705L19.4477 58.6256L26.2088 61.8768L27.0435 63.9386L28.6294 68.5379L33.721 69.886L36.8928 71.0754L36.7259 68.8551L33.8879 66.9519L35.6408 65.2074L45.3233 68.0621L47.9943 66.9519L44.4051 63.6214L51.1662 59.3393L54.5885 59.5772L58.428 61.0839L59.3462 58.0705L55.4232 55.4537L56.0909 52.8368L52.5017 50.1407L62.7684 51.5681L65.7734 53.947L61.5164 54.5021L62.5181 56.9603L65.9403 58.467L70.9485 57.5154L70.6146 54.74L77.0418 52.5989L87.392 48.9512L90.0631 49.1098L87.9763 51.7267L92.4837 52.2025L94.2366 50.6958L100.664 50.6165L104.837 48.7926L110.179 51.4095L112.516 48.5547L107.508 46.0965L108.51 44.6691L119.361 45.9379L124.87 47.286L140.395 52.2025L141.313 49.9821L136.389 47.6825L135.721 46.8102L131.297 46.3344L131.13 44.3519L127.207 41.0214L126.289 39.6733L129.878 35.9463L129.377 32.14L131.214 31.347L140.729 32.4572L143.15 34.7568L142.399 38.0874L145.487 39.4354L148.659 42.3695L151.831 48.2375L157.423 50.8544L157.84 53.7884L154.919 59.9737L159.343 60.6081L159.76 59.0221L162.932 57.9119L162.515 55.7709L164.101 53.6298L160.428 51.1716L160.094 48.3168L156.088 47.9996L153.667 45.6207L153.333 41.3386L146.489 37.9288L150.412 35.1533L147.323 32.2193L148.909 32.14L152.415 34.3604L154.168 38.4046L158.341 39.1975L154.502 36.1842L158.759 34.5189L165.52 34.2811L173.533 36.66L167.773 33.2502L163.683 28.8888L168.608 28.0958L176.538 28.2544L183.048 27.6993L178.374 25.6375L179.459 23.0207L182.965 22.8621L187.055 20.9589L194.818 20.4039L194.651 19.2937L202.413 18.9765L206.003 19.8488L210.51 17.787L216.353 17.8663L215.101 16.1218L215.852 14.5358L221.027 12.9498L227.955 14.2186L225.034 15.1702L232.88 15.7253L236.302 17.6284L237.888 16.6768L246.986 16.7561L256.669 18.6593L261.259 20.0867L263.346 22.1484L261.343 23.3379L255.834 25.5582L254.916 26.7477L259.59 27.3028L265.6 28.3337L267.603 27.5407L272.444 30.1575L272.611 29.1267L276.952 28.4923L288.304 29.1267L291.475 31.0298L305.999 31.6642L301.993 28.5716L309.922 29.2853L315.014 29.206L323.277 31.347L328.286 33.9639L328.619 35.7084L337.05 39.0389L344.562 40.7042L342.058 36.3428L349.904 38.1667L354.078 37.0565L362.258 38.3253L363.092 37.2151L369.436 37.7702L361.59 33.8846L363.343 32.14L397.065 34.8361L403.659 37.2944L417.264 40.4663L429.618 39.6733L437.38 40.387L442.889 42.1316L447.146 45.2242L453.24 46.4137L456.495 45.5414L462.338 45.4621L470.101 46.2551L475.86 45.7793L487.796 49.5856L489.883 48.2375L482.788 45.5414L481.286 43.6382L494.056 44.8277L500.734 44.5898L513.922 46.5723L521.852 48.4754L549.564 66.0004L547.894 67.9828L542.719 67.6656L549.564 70.0446L557.159 73.7716L560.665 74.961L563.837 76.8642L564.672 78.0537L556.325 77.1021L550.816 80.5119L548.312 81.067L546.976 84.3182L545.307 87.173L546.726 89.314L537.127 86.0628L532.035 89.7105L528.112 87.966L526.943 90.0277L521.101 89.314L523.688 92.4067L524.606 97.006L527.027 98.9091L532.703 99.94L540.299 106.839L536.876 107.077L539.714 111.042L543.637 113.104L539.464 115.562L543.971 121.113L539.213 122.302L542.97 127.219L541.551 131.818L536.793 128.408L528.029 121.351L514.506 110.566L509.081 103.984L509.164 101.129L506.827 98.9091L511.585 97.8782L511.418 91.9309L512.002 87.173L514.089 83.446L508.58 76.9435L504.657 77.34L507.328 81.1463L504.323 86.2214L494.056 80.5119L486.461 82.0979V89.8691L492.888 92.7239L485.793 93.9926L480.451 94.4684L476.862 91.0586L470.184 90.3449L468.097 92.6446L455.493 91.8516L444.475 93.1996L441.554 102.478L437.38 113.738L444.225 114.372L448.983 117.386L453.824 118.416L454.158 116.038L458.832 116.355L469.516 121.668L473.439 125.791L474.608 130.708L479.199 136.576L483.623 144.426L482.788 151.642L483.873 155.052L482.204 160.92L480.451 166.709L479.7 169.643L475.86 172.577L473.272 172.656L468.932 170.198L465.51 173.925L465.927 175.591Z" fill="#ABCAEB" stroke="#7A98B5" stroke-linecap="round" stroke-linejoin="round"/>
<path d="M220.025 10.7295L204.917 12.1568L203.832 7.31965L205.669 6.92316L208.256 7.16105L218.773 9.22281L220.025 10.7295Z" fill="#ABCAEB" stroke="#7A98B5" stroke-linecap="round" stroke-linejoin="round"/>
<path d="M201.662 8.58842L195.736 9.06421L185.97 8.03333L179.209 6.68526L173.7 4.14772L168.775 3.51333L173.282 1.21368L178.457 0.5L186.471 2.08596L197.906 5.41649L201.662 8.58842Z" fill="#ABCAEB" stroke="#7A98B5" stroke-linecap="round" stroke-linejoin="round"/>
<path d="M247.904 174.956L247.737 176.066L241.978 178.762L241.143 180.824L235.801 181.379L235.3 184.631L230.459 183.917L227.788 184.948L224.366 187.327L225.367 188.516L224.449 189.626L216.436 190.419L210.51 188.754L205.919 189.151L205.418 186.296L210.426 187.089L211.595 185.582L215.017 186.058L219.441 182.41L213.431 179.714L210.76 180.983L206.921 179.08L209.425 175.828L208.006 175.353L208.256 173.132L210.844 172.419L218.523 174.163L218.106 171.229L220.192 170.119L227.037 172.26L228.372 171.705L235.551 171.864L242.145 172.339L244.983 174.163L247.904 174.956Z" fill="#ABCAEB" stroke="#7A98B5" stroke-linecap="round" stroke-linejoin="round"/>
</svg>
