<svg width="247" height="170" viewBox="0 0 247 170" fill="none" xmlns="http://www.w3.org/2000/svg">
<path d="M127.123 134.673L127.457 135.624L128.626 135.148L129.628 136.496L130.713 137.052L131.214 138.875L130.796 140.62L131.631 142.761L133.551 143.951L133.634 145.299L132.215 146.012L132.132 147.678L130.295 150.136L129.544 149.819L129.377 148.708L126.79 146.964L126.205 144.585L126.289 141.096L126.706 139.589L125.955 138.796L125.538 137.131L127.123 134.673Z" fill="#ABCAEB" stroke="#7A98B5" stroke-linecap="round" stroke-linejoin="round"/>
<path d="M112.6 105.174L112.349 105.808L112.934 107.473L112.767 109.535H110.43L111.348 110.645L110.263 113.817L109.511 114.689L105.839 114.769L103.835 115.958L100.33 115.562L94.2364 114.214L93.1513 112.548L89.0613 113.421L88.6439 114.372L86.0564 113.659L83.8861 113.5L81.9664 112.548L82.5506 111.359L82.3837 110.487L83.5523 110.249L85.806 111.597L86.3068 110.249L89.9794 110.487L92.9009 109.614L94.9042 109.773L96.3231 110.804L96.657 109.932L95.8223 106.68L97.2413 106.046L98.5769 103.746L101.749 105.412L103.919 103.35L105.338 102.953L108.677 104.46L110.596 104.222L112.6 105.174Z" fill="#ABCAEB" stroke="#7A98B5" stroke-linecap="round" stroke-linejoin="round"/>
<path d="M67.4427 94.3098L67.1088 97.6404L66.0237 97.799L65.6898 100.574L62.0172 98.2748L59.9304 98.6712L57.009 96.3716L55.0057 94.3891L53.1694 94.3098L52.5016 92.5653L55.7569 91.6137L58.7618 92.0102L62.5179 90.9793L65.1055 93.1204L67.4427 94.3098Z" fill="#ABCAEB" stroke="#7A98B5" stroke-linecap="round" stroke-linejoin="round"/>
<path d="M164.351 129.598L162.431 131.659L161.346 135.228L163.099 138.082L159.259 137.448L155.086 139.034L155.336 141.572L151.497 142.047L148.241 140.224L144.903 141.651L141.731 141.492L141.063 138.162L138.726 136.496L139.31 135.862L138.809 135.228L139.31 133.642L140.813 132.056L138.475 129.915L137.891 128.012L138.809 126.901L140.312 128.963L141.898 128.646L145.236 129.36L151.58 129.677L153.5 128.408L158.425 127.219L161.763 129.042L164.351 129.598Z" fill="#ABCAEB" stroke="#7A98B5" stroke-linecap="round" stroke-linejoin="round"/>
<path d="M171.863 82.8909L168.608 82.7323L167.94 83.2081L169.192 84.7941L170.862 87.966L167.439 88.2039L166.354 89.314L166.605 91.7723L164.852 91.2965L161.263 91.5344L160.011 90.3449L158.592 91.2172L157.006 90.5035L153.75 90.4242L148.993 89.2347L144.903 88.8383L141.731 88.9968L139.727 90.2656L137.808 90.5035L137.39 88.2832L135.804 86.0628L138.141 85.0319L137.808 83.1288L136.389 81.3049L135.888 79.1639H139.811L143.817 77.34L144.235 74.6439L147.24 73.0579L146.405 70.9169L148.659 70.1239L152.498 68.3L156.922 69.4895L157.673 70.679L159.677 70.1239L163.683 71.234L164.601 73.5337L164.017 74.8025L167.189 77.9744L168.942 78.8467V79.719L171.78 80.5912L173.199 81.86L171.863 82.8909Z" fill="#ABCAEB" stroke="#7A98B5" stroke-linecap="round" stroke-linejoin="round"/>
<path d="M82.3838 110.487L82.5507 111.359L81.9664 112.548L83.8862 113.5L86.0565 113.659L85.806 115.641L84.0532 116.513L80.8813 115.879L80.0466 117.861L78.0433 118.02L77.2921 117.227L75.0384 118.972L72.9516 119.209L71.1154 118.099L69.6129 115.958L67.6096 116.751V114.452L70.6145 111.676L70.4476 110.407L72.3674 110.883L73.4525 110.011H76.9582L77.7929 108.98L82.3838 110.487Z" fill="#ABCAEB" stroke="#7A98B5" stroke-linecap="round" stroke-linejoin="round"/>
<path d="M103.502 92.8032L105.588 94.3891L108.677 94.7856L108.51 96.1337L110.847 97.1646L111.348 95.8958L114.186 96.4509L114.77 98.0369L117.858 98.2748L120.029 100.733H118.777L118.192 101.605L117.274 101.843L117.107 102.953L116.356 103.191L116.272 103.667L114.937 104.143L113.101 104.064L112.6 105.174L110.596 104.222L108.677 104.46L105.338 102.953L103.919 103.35L101.749 105.412L98.5769 103.746L96.0728 101.685L93.9025 100.495L93.3183 98.354L92.4836 96.9267L95.3216 95.8958L96.7405 94.627L99.662 93.6754L100.58 92.7239L101.665 93.279L103.502 92.8032Z" fill="#ABCAEB" stroke="#7A98B5" stroke-linecap="round" stroke-linejoin="round"/>
<path d="M98.6603 79.8775L99.8289 82.3358L98.8272 83.6839L100.413 85.3491L101.665 87.966L101.498 89.7105L103.501 92.8032L101.665 93.2789L100.58 92.7239L99.6619 93.6754L96.7405 94.627L95.3215 95.8958L92.4835 96.9267L93.3182 98.354L93.9025 100.495L96.0728 101.685L98.5769 103.746L97.2413 106.046L95.8223 106.68L96.657 109.932L96.3231 110.804L94.9042 109.773L92.9009 109.614L89.9794 110.487L86.3068 110.249L85.806 111.597L83.5523 110.249L82.3837 110.487L77.7929 108.98L76.9582 110.011H73.4525L73.7863 106.442L75.7896 103.112L69.7798 102.16L67.7765 100.892L67.9434 98.7505L67.1087 97.6404L67.4426 94.3098L66.5245 89.1554H68.9451L69.9467 87.3316L70.698 82.8909L69.9467 81.2256L70.6145 80.1947L73.9533 79.9568L74.788 80.9877L77.3755 78.6088L76.2904 76.7849L75.9565 74.0888L79.0449 74.7232L81.4656 74.0095L81.7159 75.8333L85.806 76.9435L85.8894 78.6881L89.8125 77.7365L91.9827 76.4677L96.657 78.3709L98.6603 79.8775Z" fill="#ABCAEB" stroke="#7A98B5" stroke-linecap="round" stroke-linejoin="round"/>
<path d="M92.1497 70.9961L90.1464 74.8818L85.806 72.1063L85.0547 70.1239L90.7307 68.5379L92.1497 70.9961Z" fill="#ABCAEB" stroke="#7A98B5" stroke-linecap="round" stroke-linejoin="round"/>
<path d="M81.4656 74.0095L79.0449 74.7232L75.9565 74.0888L74.2037 71.3926L73.8698 66.5555L74.3707 65.2074L75.4557 63.78L78.7945 63.5421L80.13 62.1941L83.135 60.846V63.3042L82.1333 64.8902L82.7176 66.159L84.8878 66.8726L84.0531 68.6965L82.8845 68.2207L80.297 71.6305L81.4656 74.0095Z" fill="#ABCAEB" stroke="#7A98B5" stroke-linecap="round" stroke-linejoin="round"/>
<path d="M148.575 52.6782L149.326 53.4712L147.156 56.1674L149.159 60.6081L147.824 62.1147L144.652 62.0354L140.979 60.2909L139.227 59.7358L136.055 60.5288L135.971 57.7533L134.719 58.3877L131.965 56.7225L131.13 54.0263L135.721 52.6782L140.395 52.0439L144.652 52.7575L148.575 52.6782Z" fill="#ABCAEB" stroke="#7A98B5" stroke-linecap="round" stroke-linejoin="round"/>
<path d="M140.562 9.4607L140.896 12.474L146.989 15.4081L144.569 18.7386L149.994 23.7344L148.575 27.5407L152.665 30.8712L151.914 33.8846L158.091 36.9772L157.339 39.2768L154.502 41.973L147.824 47.8411L141.146 48.2375L134.803 49.9028L128.876 50.9337L126.205 48.3961L122.282 46.8895L122.366 42.2902L119.862 38.1667L121.197 35.4705L123.952 32.6951L131.297 27.7786L133.467 26.827L132.716 24.9239L127.29 22.8621L125.788 21.1175L124.285 14.3772L118.276 11.4432L113.268 9.30211L115.104 8.19193L119.361 10.4123L123.785 10.2537L127.708 11.2846L130.546 9.3814L131.464 6.20948L136.389 4.7821L141.23 6.44737L140.562 9.4607Z" fill="#ABCAEB" stroke="#7A98B5" stroke-linecap="round" stroke-linejoin="round"/>
<path d="M17.5278 79.3225L14.6064 78.3709L12.1023 78.4502L13.1039 75.8333L12.3527 73.2958L15.6915 73.0579L19.7815 76.0712L17.5278 79.3225Z" fill="#ABCAEB" stroke="#7A98B5" stroke-linecap="round" stroke-linejoin="round"/>
<path d="M30.7994 56.5639L26.5425 61.7182L30.4656 61.0839H34.7225L33.6374 64.9695L30.0482 69.2516L34.1382 69.4895L34.3887 70.0446L37.8944 75.6747L40.5654 76.4677L42.986 82.0186L44.1546 83.9218L49.0793 84.794L48.5785 87.966L46.5752 89.3933L48.1612 91.9309L44.4885 94.4684L39.063 94.3891L32.0515 95.8165L30.2152 94.7856L27.4607 97.0853L23.7045 96.5302L20.6996 98.4333L18.6129 97.4818L24.7062 92.3274L28.3789 91.2172L22.0351 90.4242L20.95 88.4418L25.207 86.9351L23.1203 84.3182L23.955 81.1463L29.8813 81.6221L30.549 78.7674L27.9615 75.8333L27.878 75.754L23.1203 74.8818L22.2021 73.613L23.7045 71.4719L22.4525 70.1239L20.2823 72.4235L20.1988 67.7449L18.3625 65.366L19.9484 60.4495L23.1203 56.6432L26.1252 56.9604L30.7994 56.5639Z" fill="#ABCAEB" stroke="#7A98B5" stroke-linecap="round" stroke-linejoin="round"/>
<path d="M155.42 144.109L152.749 143.951L150.495 143.475L145.32 144.744L148.659 147.598L146.572 148.471H144.151L141.564 145.854L140.813 146.964L142.148 149.977L144.569 152.356L142.983 153.466L145.654 155.766L147.991 157.273L148.325 160.127L144.151 158.779L145.654 161.396L142.899 161.872L144.986 166.392L142.065 166.471L138.225 164.251L136.222 160.207L135.137 156.797L133.217 154.497L130.713 151.563L130.295 150.136L132.132 147.678L132.215 146.012L133.634 145.299L133.551 143.951L136.389 143.554L137.891 142.444L140.228 142.523L140.896 141.651L141.731 141.492L144.903 141.651L148.241 140.224L151.497 142.047L155.336 141.572L155.086 139.034L157.339 140.382L156.421 143.554L155.42 144.109Z" fill="#ABCAEB" stroke="#7A98B5" stroke-linecap="round" stroke-linejoin="round"/>
<path d="M121.698 118.496L122.95 120.478L124.369 121.906L122.95 123.809L120.947 122.699L118.025 122.778L114.269 121.906L112.349 121.985L111.515 123.095L109.845 121.906L109.177 123.967L111.431 126.346L112.516 127.853L114.603 129.756L116.356 130.866L118.109 133.007L122.115 134.911L121.698 135.704L117.524 133.88L114.853 132.056L110.847 130.549L106.924 126.901L107.759 126.505L105.672 124.364L105.421 122.699L102.667 121.906L101.498 124.047L100.163 122.381V120.637L100.246 120.558L103.251 120.716L103.919 119.923L105.421 120.716L107.091 120.795L107.007 119.447L108.426 118.892L108.677 116.91L111.932 115.562L113.268 116.196L116.606 118.337L120.195 119.289L121.698 118.496Z" fill="#ABCAEB" stroke="#7A98B5" stroke-linecap="round" stroke-linejoin="round"/>
<path d="M133.968 106.046L136.472 107.394L136.889 108.742L134.469 109.773L132.883 113.104L130.713 116.513L127.457 117.465L124.786 117.227L121.698 118.496L120.195 119.289L116.606 118.337L113.268 116.196L111.932 115.562L110.93 113.897L110.263 113.817L111.348 110.645L110.43 109.535H112.767L112.934 107.473L115.187 108.821L116.773 109.297L120.195 108.742L120.446 107.711L122.032 107.553L123.952 106.839L124.452 107.156L126.372 106.522L127.207 105.332L128.542 105.015L133.133 106.522L133.968 106.046Z" fill="#ABCAEB" stroke="#7A98B5" stroke-linecap="round" stroke-linejoin="round"/>
<path d="M17.5278 79.3224L18.1121 82.8116L14.8568 87.173L7.51144 90.0277L1.83551 89.314L5.4247 84.2389L3.6718 79.3224L9.26428 75.5161L12.3527 73.2958L13.1039 75.8333L12.1023 78.4502L14.6064 78.3709L17.5278 79.3224Z" fill="#ABCAEB" stroke="#7A98B5" stroke-linecap="round" stroke-linejoin="round"/>
<path d="M110.596 157.193L109.178 161.238L109.929 162.744L109.178 165.361L105.672 163.458L103.418 162.903L97.1579 160.365L97.5752 157.748L102.75 158.224L107.258 157.669L110.596 157.193Z" fill="#ABCAEB" stroke="#7A98B5" stroke-linecap="round" stroke-linejoin="round"/>
<path d="M82.2168 142.127L84.9713 145.695L84.6374 152.435L82.6341 152.118L80.8813 153.784L79.2119 152.435L78.7945 146.329L77.7095 143.475L80.13 143.713L82.2168 142.127Z" fill="#ABCAEB" stroke="#7A98B5" stroke-linecap="round" stroke-linejoin="round"/>
<path d="M100.33 115.562L99.9959 118.02L101.164 120.161L97.7422 119.368L94.4869 121.192L94.8208 123.65L94.4034 125.078L95.9893 127.615L100.163 130.153L102.583 134.355L107.675 138.4L111.014 138.32L112.182 139.431L111.014 140.461L115.02 142.285L118.359 143.792L122.282 146.488L122.783 147.36L122.115 149.184L119.528 146.805L115.688 146.012L114.102 149.264L117.358 151.167L117.024 153.784L115.271 154.101L113.184 158.462L111.348 158.859L111.264 157.273L112.016 154.577L112.934 153.466L111.014 150.532L109.511 147.995L107.675 147.36L106.173 145.219L103.335 144.268L101.331 142.206L98.1596 141.889L94.5703 139.668L90.4803 136.338L87.392 133.483L85.806 128.487L83.6358 127.932L80.13 126.267L78.2103 126.901L75.7897 129.28L74.0368 129.598L74.4542 127.456L72.117 126.822L70.8649 122.936L72.2839 121.43L71.0319 119.527L71.1154 118.099L72.9517 119.209L75.0384 118.972L77.2922 117.227L78.0433 118.02L80.0466 117.861L80.8813 115.879L84.0532 116.513L85.806 115.641L86.0565 113.659L88.644 114.372L89.0614 113.421L93.1514 112.548L94.2364 114.214L100.33 115.562Z" fill="#ABCAEB" stroke="#7A98B5" stroke-linecap="round" stroke-linejoin="round"/>
<path d="M146.405 70.9168L147.24 73.0579L144.235 74.6439L143.817 77.34L139.811 79.1638H135.888L134.719 77.6572L132.632 77.1021L132.132 75.9126L132.299 74.5645L130.462 73.8509L126.205 72.9786L124.786 68.9344L129.043 67.507L135.637 67.8242L139.393 67.3484L140.145 68.3L142.231 68.6172L146.405 70.9168Z" fill="#ABCAEB" stroke="#7A98B5" stroke-linecap="round" stroke-linejoin="round"/>
<path d="M67.7766 100.892L66.608 100.971L65.6898 100.574L66.0237 97.799L67.1088 97.6404L67.9435 98.7505L67.7766 100.892Z" fill="#ABCAEB" stroke="#7A98B5" stroke-linecap="round" stroke-linejoin="round"/>
<path d="M147.824 62.1147L149.911 63.1456L150.745 65.4453L152.498 68.3L148.659 70.1239L146.405 70.9168L142.231 68.6172L140.145 68.3L139.394 67.3484L135.637 67.8242L129.043 67.507L124.786 68.9344L124.369 65.366L125.788 62.3526L129.21 60.7667L132.883 64.3351L135.971 64.1765L136.055 60.5288L139.227 59.7358L140.979 60.2909L144.652 62.0354L147.824 62.1147Z" fill="#ABCAEB" stroke="#7A98B5" stroke-linecap="round" stroke-linejoin="round"/>
<path d="M161.68 120.637L160.595 118.337L160.762 116.196L160.261 114.055L157.423 111.042L155.754 108.98L154.251 107.553L152.916 106.998L153.834 106.284L156.505 105.808L159.844 107.315L161.513 107.553L163.683 108.901L163.6 110.566L165.269 111.359L166.187 113.421L167.857 114.689L167.69 115.482L168.525 115.958L167.439 116.355L164.935 116.196L164.434 115.482L163.6 115.879L164.101 116.751L163.182 118.417L162.682 120.082L161.68 120.637Z" fill="#ABCAEB" stroke="#7A98B5" stroke-linecap="round" stroke-linejoin="round"/>
<path d="M141.731 141.492L140.896 141.651L140.228 142.523L137.891 142.444L136.389 143.554L133.551 143.951L131.631 142.761L130.796 140.62L131.213 138.875L131.798 138.955L131.881 137.924L134.302 137.131L135.304 136.893L136.722 136.655L138.726 136.497L141.063 138.162L141.731 141.492Z" fill="#ABCAEB" stroke="#7A98B5" stroke-linecap="round" stroke-linejoin="round"/>
<path d="M129.294 134.038L128.626 135.148L127.457 135.624L127.123 134.673L125.538 137.131L125.955 138.796L125.037 138.4L123.618 136.734L121.698 135.704L122.115 134.911L122.449 132.135L123.785 130.946L124.536 130.47L125.705 131.342L126.456 132.056L127.875 132.611L129.628 133.642L129.294 134.038Z" fill="#ABCAEB" stroke="#7A98B5" stroke-linecap="round" stroke-linejoin="round"/>
<path d="M148.575 7.39895L143.233 9.06421L140.562 9.4607L141.23 6.44737L136.389 4.7821L131.464 6.20947L130.546 9.3814L127.708 11.2846L123.785 10.2537L119.361 10.4123L115.104 8.19193L113.268 9.30211L111.097 9.4607L111.181 12.3154L104.503 11.6018L104.002 14.06H100.664L98.7438 17.1526L95.9058 21.9898L91.1481 28.2544L92.6505 29.8404L91.5654 31.5849L87.9762 31.5056L85.9729 35.7877L86.8076 41.8937L89.3952 44.1933L88.7274 49.6649L85.8894 52.8368L84.387 55.533L81.6325 52.6782L74.4541 58.0705L69.3624 59.1807L63.9369 56.8018L62.4345 51.806L60.7651 41.1007L64.1039 38.1667L73.5359 34.2811L80.297 29.6025L86.3068 23.4172L93.7356 14.9323L99.0777 11.6811L107.675 6.28877L114.77 4.38562L120.362 4.62351L124.703 1.13439L130.88 1.29298L136.722 0.5L148.158 3.59263L144.068 4.70281L148.575 7.39895Z" fill="#ABCAEB" stroke="#7A98B5" stroke-linecap="round" stroke-linejoin="round"/>
<path d="M120.362 76.6263L125.287 77.1814L132.632 77.1021L134.719 77.6572L135.888 79.1639L136.389 81.3049L137.808 83.1288L138.141 85.0319L135.804 86.0628L137.39 88.2832L137.808 90.5035L140.479 94.7856L140.228 96.1337L138.308 96.6888L135.137 100.812L136.472 103.033L135.554 102.715L131.38 100.812L128.459 101.526L126.456 101.05L124.119 102.081L121.865 100.336L120.279 101.05L120.029 100.733L117.858 98.2747L114.77 98.0368L114.186 96.4509L111.348 95.8958L110.847 97.1646L108.51 96.1337L108.677 94.7856L105.588 94.3891L103.502 92.8031L101.498 89.7105L101.665 87.966L100.413 85.3491L98.8272 83.6839L99.8289 82.3358L98.6603 79.8775L101.248 78.4502L107.174 76.2298L112.015 74.6439L116.022 75.4368L116.523 76.6263H120.362Z" fill="#ABCAEB" stroke="#7A98B5" stroke-linecap="round" stroke-linejoin="round"/>
<path d="M152.916 106.998L154.251 107.553L155.754 108.98L157.423 111.042L160.261 114.055L160.762 116.196L160.595 118.337L161.68 120.637L163.683 121.588L165.603 120.716L167.606 121.588L167.94 122.936L166.02 123.967L164.685 123.492L164.351 129.598L161.763 129.042L158.425 127.219L153.5 128.408L151.58 129.677L145.236 129.36L141.898 128.646L140.312 128.963L138.809 126.901L137.975 126.029L138.809 125.157L137.724 124.602L136.472 125.712L133.885 124.205L133.3 122.143L130.629 121.033L129.961 119.368L127.457 117.465L130.713 116.513L132.883 113.104L134.469 109.773L136.889 108.742L138.559 107.632L141.23 108.187H143.901L145.988 109.456L147.323 108.663L150.328 108.187L151.163 106.998H152.916Z" fill="#ABCAEB" stroke="#7A98B5" stroke-linecap="round" stroke-linejoin="round"/>
<path d="M138.809 126.901L137.891 128.012L138.475 129.915L140.813 132.056L139.31 133.642L138.809 135.228L139.31 135.862L138.726 136.496L136.722 136.655L135.304 136.893L135.053 136.496L135.554 135.941L135.888 134.673L135.304 134.752L134.385 133.8L133.634 133.562L132.966 132.769L132.132 132.452L131.464 131.739L130.713 132.056L130.295 133.721L129.294 134.038L129.628 133.642L127.875 132.611L126.456 132.056L125.705 131.342L124.536 130.47L125.454 130.232L125.871 127.932L123.618 125.95L124.536 123.729L122.95 123.809L124.369 121.906L122.95 120.478L121.698 118.496L124.786 117.227L127.457 117.465L129.961 119.368L130.629 121.033L133.3 122.144L133.884 124.205L136.472 125.712L137.724 124.602L138.809 125.157L137.975 126.029L138.809 126.901Z" fill="#ABCAEB" stroke="#7A98B5" stroke-linecap="round" stroke-linejoin="round"/>
<path d="M111.932 115.562L108.677 116.91L108.426 118.892L107.007 119.447L107.091 120.795L105.421 120.716L103.919 119.923L103.251 120.716L100.246 120.558L101.164 120.161L99.9958 118.02L100.33 115.562L103.835 115.958L105.839 114.769L109.511 114.689L110.263 113.817L110.93 113.896L111.932 115.562Z" fill="#ABCAEB" stroke="#7A98B5" stroke-linecap="round" stroke-linejoin="round"/>
<path d="M127.29 22.8621L121.448 24.1309L118.526 27.2235L119.611 29.9989L114.436 33.5674L107.925 37.5323L106.173 43.9554L109.261 47.2067L113.268 49.8235L110.513 55.0572L106.673 56.1674L106.173 64.0972L104.42 68.6172L99.662 68.1414L97.8257 71.9477L93.2349 72.1856L91.6489 67.6656L87.8928 62.194L84.3871 55.533L85.8895 52.8368L88.7275 49.6649L89.3953 44.1933L86.8076 41.8937L85.9729 35.7877L87.9762 31.5056L91.5655 31.5849L92.6505 29.8404L91.1481 28.2544L95.9058 21.9898L98.7438 17.1526L100.664 14.06H104.002L104.503 11.6018L111.181 12.3154L111.097 9.4607L113.268 9.30211L118.276 11.4432L124.286 14.3772L125.788 21.1175L127.29 22.8621Z" fill="#ABCAEB" stroke="#7A98B5" stroke-linecap="round" stroke-linejoin="round"/>
<path d="M155.42 144.109L156.421 143.554L157.339 140.382L155.086 139.034L159.259 137.448L163.099 138.082L163.85 140.065L167.857 141.651L167.272 142.92L162.097 143.158L160.428 144.744L157.173 147.44L155.503 145.14L155.42 144.109Z" fill="#ABCAEB" stroke="#7A98B5" stroke-linecap="round" stroke-linejoin="round"/>
<path d="M184.884 92.3274L186.804 94.4684L186.888 95.42L192.48 97.1646L195.485 96.3716L198.49 98.6712L200.911 98.5919L207.338 100.178L207.672 101.685L206.587 104.222L208.089 106.998L207.839 108.663L203.832 108.98L201.996 110.407L202.33 112.548L199.074 112.945L196.57 114.61L192.731 114.848L189.392 116.751L190.227 119.844L192.564 121.033L196.821 120.716L196.32 122.54L191.812 123.412L186.554 126.267L183.966 125.236L184.551 122.936L179.626 121.43L180.21 120.478L184.05 118.813L182.631 117.703L175.87 116.434L175.202 114.531L171.446 115.165L170.361 117.941L167.606 121.588L165.603 120.716L163.683 121.588L161.68 120.637L162.682 120.082L163.182 118.416L164.101 116.751L163.6 115.879L164.434 115.482L164.935 116.196L167.439 116.355L168.524 115.958L167.69 115.482L167.857 114.689L166.187 113.421L165.269 111.359L163.6 110.566L163.683 108.901L161.513 107.553L159.844 107.315L156.505 105.808L153.834 106.284L152.916 106.998H151.163L150.328 108.187L147.323 108.663L145.988 109.456L143.901 108.187H141.23L138.559 107.632L136.889 108.742L136.472 107.394L133.968 106.046L134.552 104.064L135.554 102.715L136.472 103.033L135.137 100.812L138.308 96.6888L140.228 96.1337L140.479 94.7856L137.808 90.5035L139.727 90.2656L141.731 88.9968L144.903 88.8382L148.993 89.2347L153.75 90.4242L157.006 90.5035L158.592 91.2172L160.011 90.3449L161.263 91.5344L164.852 91.2965L166.605 91.7723L166.354 89.314L167.439 88.2039L170.862 87.966L172.364 88.1246L173.199 87.0144L174.451 87.2523L178.541 86.7765L181.713 89.5519L180.961 90.5828L181.629 92.0895L184.884 92.3274Z" fill="#ABCAEB" stroke="#7A98B5" stroke-linecap="round" stroke-linejoin="round"/>
<path d="M135.304 136.893L134.302 137.131L131.881 137.924L131.798 138.955L131.214 138.875L130.713 137.052L129.628 136.496L128.626 135.148L129.294 134.038L130.295 133.721L130.713 132.056L131.464 131.739L132.132 132.452L132.966 132.769L133.634 133.562L134.385 133.8L135.304 134.752L135.888 134.673L135.554 135.941L135.053 136.496L135.304 136.893Z" fill="#ABCAEB" stroke="#7A98B5" stroke-linecap="round" stroke-linejoin="round"/>
<path d="M67.4427 94.3098L65.1055 93.1204L62.5179 90.9793L58.7618 92.0102L55.7569 91.6137L57.8436 90.2656L61.1824 83.1288L66.608 81.067L69.9467 81.2256L70.698 82.8909L69.9467 87.3316L68.9451 89.1554H66.5245L67.4427 94.3098Z" fill="#ABCAEB" stroke="#7A98B5" stroke-linecap="round" stroke-linejoin="round"/>
<path d="M9.34782 162.982L7.51147 164.251L5.17433 163.537L2.92064 164.092L3.67184 160.127L3.42144 157.035L1.4182 156.559L0.5 154.656L0.917348 151.325L2.75369 149.501L3.17104 147.44L4.17269 144.426V142.285L3.42144 140.461L3.25449 138.717L4.84043 137.448L6.67678 136.734L7.67842 139.193H10.1825L10.9337 138.558L13.5213 138.717L14.6064 141.254L12.6031 142.602L12.3527 146.567L11.685 147.281L11.4346 149.739L9.51472 150.136L11.1841 153.149L9.84862 156.48L11.3511 157.986L10.6833 159.334L9.01392 161.238L9.34782 162.982Z" fill="#ABCAEB" stroke="#7A98B5" stroke-linecap="round" stroke-linejoin="round"/>
<path d="M132.632 77.1021L125.287 77.1814L120.362 76.6263L120.947 74.5646L126.205 72.9786L130.462 73.8509L132.299 74.5646L132.132 75.9126L132.632 77.1021Z" fill="#ABCAEB" stroke="#7A98B5" stroke-linecap="round" stroke-linejoin="round"/>
<path d="M34.1382 131.025L35.8076 132.928L43.7372 135.228L45.3232 134.118L50.1644 136.417L55.0891 135.783L55.423 138.717L51.333 142.047L45.824 143.158L45.4066 144.823L42.7356 147.598L41.0662 151.722L42.7356 154.656L40.2315 156.876L39.2299 160.207L35.8911 161.238L32.8027 165.123L27.1268 165.202L22.9533 165.123L20.1153 166.868L18.3625 168.771L16.1922 168.374L14.6063 166.63L13.4377 163.775L9.34775 162.982L9.01386 161.238L10.6832 159.334L11.351 157.986L9.84855 156.48L11.184 153.149L9.51465 150.136L11.4345 149.739L11.6849 147.281L12.3526 146.567L12.603 142.602L14.6063 141.254L13.5212 138.717L10.9336 138.558L10.1825 139.193H7.67836L6.67671 136.734L4.84037 137.448L3.25443 138.717L3.67177 135.148L2.00238 133.007L8.17916 129.36L13.3543 130.232H19.1137L23.6211 131.104L27.2102 130.787L34.1382 131.025Z" fill="#ABCAEB" stroke="#7A98B5" stroke-linecap="round" stroke-linejoin="round"/>
<path d="M83.4688 137.369L82.2168 141.254L80.2136 140.224L79.1284 136.893L79.8797 134.99L82.5507 133.087L83.4688 137.369Z" fill="#ABCAEB" stroke="#7A98B5" stroke-linecap="round" stroke-linejoin="round"/>
<path d="M65.6898 100.574L66.608 100.971L67.7766 100.892L69.7798 102.16L75.7896 103.112L73.7864 106.442L73.4525 110.011L72.3674 110.883L70.4476 110.407L70.6145 111.676L67.6096 114.452V116.751L69.6129 115.958L71.1154 118.099L71.0319 119.527L72.2839 121.43L70.8649 122.936L72.117 126.822L74.4541 127.456L74.0368 129.598L70.2807 132.452L61.7667 131.104L55.59 132.769L55.0892 135.783L50.1644 136.417L45.3232 134.118L43.7373 135.228L35.8076 132.928L34.1382 131.025L36.3919 128.012L37.2266 118.02L32.9697 112.786L29.8813 110.249L23.5376 108.346L23.2037 104.698L28.6293 103.667L35.5572 104.936L34.3052 99.3056L38.2283 101.447L47.7438 97.6404L48.9959 93.5961L52.5016 92.5653L53.1694 94.3098L55.0057 94.3891L57.009 96.3716L59.9304 98.6712L62.0171 98.2747L65.6898 100.574Z" fill="#ABCAEB" stroke="#7A98B5" stroke-linecap="round" stroke-linejoin="round"/>
<path d="M135.554 102.715L134.552 104.063L133.968 106.046L133.133 106.522L128.542 105.015L127.207 105.332L126.372 106.522L124.453 107.156L123.952 106.839L122.032 107.553L120.446 107.711L120.195 108.742L116.773 109.297L115.187 108.821L112.934 107.473L112.349 105.808L112.6 105.174L113.101 104.063L114.937 104.143L116.272 103.667L116.356 103.191L117.107 102.953L117.274 101.843L118.192 101.605L118.777 100.733H120.029L120.279 101.05L121.865 100.336L124.119 102.081L126.456 101.05L128.459 101.526L131.38 100.812L135.554 102.715Z" fill="#ABCAEB" stroke="#7A98B5" stroke-linecap="round" stroke-linejoin="round"/>
<path d="M122.95 123.809L124.536 123.729L123.618 125.95L125.871 127.932L125.454 130.232L124.536 130.47L123.785 130.946L122.449 132.135L122.115 134.911L118.109 133.007L116.356 130.866L114.603 129.756L112.516 127.853L111.431 126.346L109.177 123.967L109.845 121.906L111.515 123.095L112.349 121.985L114.269 121.906L118.025 122.778L120.947 122.699L122.95 123.809Z" fill="#ABCAEB" stroke="#7A98B5" stroke-linecap="round" stroke-linejoin="round"/>
<path d="M246.318 154.497L244.816 154.656L242.479 151.722L242.312 150.929H240.392L238.806 149.581L237.971 149.66L235.968 148.233L232.462 146.964L232.379 144.506L231.294 142.761L237.137 141.968L238.305 143.237L240.142 144.109L239.557 145.378L242.228 147.122L241.31 148.788L243.48 150.136L245.567 150.929L246.318 154.497Z" fill="#ABCAEB" stroke="#7A98B5" stroke-linecap="round" stroke-linejoin="round"/>
</svg>
