<svg width="329" height="266" viewBox="0 0 329 266" fill="none" xmlns="http://www.w3.org/2000/svg">
<path d="M117.191 235.461L120.279 237.205L123.034 236.492L127.124 235.54L129.461 235.857L125.705 241.884L122.95 243.549L119.611 247.673L119.111 246.245L113.602 249.734L112.934 249.496L110.43 249.338L110.847 245.056L112.517 241.725L113.017 237.285L114.687 234.985L117.191 235.461Z" fill="#ABCAEB" stroke="#7A98B5" stroke-linecap="round" stroke-linejoin="round"/>
<path d="M159.343 97.9576L160.345 101.922L163.683 100.019L164.852 102.16L166.772 104.143L165.854 106.443L166.021 110.804L166.187 113.341L167.273 113.976L167.607 118.337L166.605 120.954L167.273 124.364L171.78 127.06L174.451 129.439L177.122 131.659L176.204 132.928L178.124 136.1L178.541 141.651L180.711 140.541L181.963 142.682L183.299 141.968L182.715 147.36L185.135 150.453L186.721 152.356L189.058 156.48V160.603L188.223 163.537L186.721 166.63L187.305 170.991L185.219 175.511L183.466 177.89L180.294 182.41L179.042 185.344L176.454 188.992L172.281 193.591L167.69 196.129L164.017 200.014L161.263 202.552L157.59 206.913L154.502 209.451L151.246 213.257L148.659 216.746L147.991 218.412L144.402 220.156L139.31 220.315L134.052 222.456L130.88 224.359L126.873 226.579L124.62 224.28L122.449 223.407L124.62 220.791L121.698 221.742L115.688 225.39L112.683 224.042L110.68 223.249L108.343 222.852L104.921 221.425L103.836 218.253L105.088 214.447L105.422 211.83L104.253 209.768L100.33 209.213L103.001 206.675L103.752 202.948L99.8291 206.438L95.4052 207.389L99.1614 204.614L101.248 201.68L104.17 199.142L105.505 195.415L99.8291 199.697L96.2399 201.442L92.6507 205.486L90.1466 203.424L91.5656 200.728L90.397 197.001L88.8945 195.098L90.23 193.908L85.8062 190.816L82.6343 190.737L79.2955 188.199L71.032 188.675L64.438 190.499L58.6786 192.243L54.5051 191.926L48.6622 194.543L44.2383 195.653L42.3185 198.349L39.8144 200.411L35.8913 200.569L32.8864 200.966L29.3807 200.094L25.8749 200.649L22.7031 200.887L18.947 203.583L17.695 203.345L14.857 204.772L12.019 206.358L8.84709 206.2H5.92565L2.50342 202.948L0.500122 201.997L1.75217 199.063L4.17281 198.349L5.42485 197.239L5.92565 195.415L7.8455 191.847L8.42974 188.833L7.8455 183.679L8.01239 180.745L9.18099 177.89L8.42974 174.56L8.68019 173.053L7.26125 170.991L7.8455 167.026L6.25955 162.982L6.1761 160.841L7.6786 163.061L7.26125 158.304L9.18099 159.81L10.0991 161.793L10.6 159.176L9.26444 155.132L9.18099 153.546L8.51329 152.039L9.59834 149.105L10.8504 147.836L11.9355 145.299L12.019 142.285L14.6065 138.638L14.2726 142.523L16.8603 139.034L20.9502 137.29L23.6213 135.148L27.5443 133.245L29.7145 132.849L30.8831 133.483L34.8897 131.58L37.8111 131.025L38.7293 129.915L39.9813 129.439L42.5689 129.598L47.7441 128.091L50.6655 125.791L52.3349 123.095L55.5901 120.558L56.1745 118.496L56.7587 115.72L60.8488 111.359L62.0173 115.8L64.1875 114.769L62.9355 112.39L64.8553 109.932L66.6916 111.042L67.9437 107.156L70.8651 104.619L72.3676 102.636L74.7882 101.764L75.122 100.337L77.0419 100.892L77.3758 99.6228L79.546 98.9092L81.8831 98.1955L84.9715 100.574L87.1417 103.588H90.0631L92.9846 104.064L92.4003 101.288L95.3218 97.2439L97.5754 95.8958L97.0746 94.6271L99.4953 91.693L102.584 89.8692L104.837 90.5035L108.927 89.5519L109.178 86.9351L105.922 85.2699L108.51 84.5562L111.515 85.825L113.769 87.8867L117.525 89.1555L118.944 88.6797L121.698 90.2656L124.62 88.759L126.289 89.2348L127.541 88.2039L129.377 90.7414L127.708 93.5169L125.621 95.5786L124.035 95.7372L124.286 97.7197L122.449 100.257L120.363 102.795L120.53 104.222L123.701 107.077L127.04 108.663L129.127 110.407L131.881 113.421H133.217L135.387 114.769L135.805 116.355L139.895 118.02L143.317 116.275L144.819 113.579L146.238 111.28L147.323 108.504L149.494 104.46L149.327 102.002L149.911 100.495L149.827 97.6404L150.996 93.7548L152.081 92.7239L151.58 91.0586L153.083 88.3625L154.335 85.587L154.669 84.0804L156.588 82.1772L157.674 84.7148L157.59 87.8867L158.675 88.5211L158.592 90.6621L159.927 93.1997L159.844 96.1337L159.343 97.9576Z" fill="#ABCAEB" stroke="#7A98B5" stroke-linecap="round" stroke-linejoin="round"/>
<path d="M152.665 41.1007L151.831 57.6741L150.495 74.3267L146.656 70.1239L141.981 69.093L140.729 70.5203L134.719 70.679L137.057 66.5554L140.145 65.1281L139.31 59.5772L137.39 55.3744L128.459 51.013L124.62 50.6165L117.692 45.8586L116.189 48.3962L114.353 48.7927L113.435 46.9688L113.518 44.7484L110.012 42.2109L115.187 40.387L118.526 40.4663L118.192 39.1183H111.264L109.428 36.1049L105.255 35.1533L103.335 32.6158L109.679 31.4263L112.099 29.7611L119.695 31.8228L120.446 33.726L121.531 41.973L126.289 44.9864L130.462 39.594L135.971 36.5807H140.145L144.152 38.3253L147.574 40.1491L152.665 41.1007Z" fill="#ABCAEB" stroke="#7A98B5" stroke-linecap="round" stroke-linejoin="round"/>
<path d="M221.611 62.5905L220.276 63.1456L218.356 61.1631L216.52 57.9119L215.852 54.0263L216.52 53.5505L216.937 55.0572L218.273 56.2466L220.276 59.4186L222.363 61.1631L221.611 62.5905Z" fill="#ABCAEB" stroke="#7A98B5" stroke-linecap="round" stroke-linejoin="round"/>
<path d="M203.749 55.7709L201.245 56.1674L200.41 57.5947L197.739 58.8635L195.235 60.053H192.647L188.891 58.5463L186.304 57.119L186.805 55.533L190.978 56.326L193.649 55.9295L194.484 53.4712L195.235 53.3127L195.485 56.0088L198.156 55.6916L199.659 53.947L202.413 52.1232L202.079 49.1098L204.917 49.0305L205.836 49.8235L205.502 52.6782L203.749 55.7709Z" fill="#ABCAEB" stroke="#7A98B5" stroke-linecap="round" stroke-linejoin="round"/>
<path d="M150.495 74.3267L151.831 57.6741L152.665 41.1007L160.678 44.5899L169.276 47.5239L172.364 50.1408L174.868 52.6783L175.369 55.6916L183.048 58.8636L183.966 61.5597L179.626 62.1148L180.377 65.5246L184.3 68.8551L186.804 74.2474L189.559 74.0888L189.058 76.3092L192.647 77.1814L191.145 78.133L195.903 80.2741L195.151 81.7807L191.98 82.0979L190.978 80.8291L187.055 80.1948L182.38 79.4811L179.042 76.2298L176.705 73.3751L174.618 68.9344L168.691 66.7141L164.602 68.1414L161.513 69.886L161.764 73.613L157.924 75.3576L155.336 74.4853L150.495 74.3267Z" fill="#ABCAEB" stroke="#7A98B5" stroke-linecap="round" stroke-linejoin="round"/>
<path d="M209.508 50.7751L208.006 52.1232L207.255 49.1098L206.336 47.2067L204.25 45.5414L201.662 43.3211L198.323 41.8144L199.659 40.6249L202.163 42.0523L203.749 43.1624L205.669 44.3519L207.421 46.493L209.174 48.1583L209.508 50.7751Z" fill="#ABCAEB" stroke="#7A98B5" stroke-linecap="round" stroke-linejoin="round"/>
<path d="M236.719 236.095L236.052 238.157L240.726 236.095L240.309 238.236L238.556 240.377L235.05 242.677L229.124 246.404L225.201 248.466L224.7 250.845L221.361 250.924L216.102 252.827L212.179 256.078L205.335 261.153L200.076 263.374L196.737 264.801L192.898 264.722L191.646 263.057L187.389 262.739L188.223 260.836L193.649 257.188L203.165 252.193L206.754 251.241L211.428 249.338L217.271 246.721L222.029 244.104L227.037 240.377L229.624 239.108L232.546 236.254L237.387 233.954L236.719 236.095Z" fill="#ABCAEB" stroke="#7A98B5" stroke-linecap="round" stroke-linejoin="round"/>
<path d="M260.926 211.909L260.592 217.301L263.012 213.812L264.097 215.24L262.094 219.046L264.515 220.711L267.186 221.108L271.109 219.205L272.945 219.76L268.605 224.28L265.099 227.214L261.844 227.134L259.507 228.641L258.255 230.861L256.919 231.734L253.08 234.509L248.155 237.919L243.147 239.981L243.564 238.633L242.312 237.919L248.071 233.795L248.822 230.941L245.651 228.958L247.153 227.134L251.577 225.39L255.083 221.425L257.169 218.174L257.67 214.764L258.338 213.892L257.587 211.751L257.003 207.31L257.336 203.662L259.173 203.266L259.924 206.12L262.595 207.389L260.926 211.909Z" fill="#ABCAEB" stroke="#7A98B5" stroke-linecap="round" stroke-linejoin="round"/>
<path d="M256.084 0.817212L255.917 1.0551L255.5 0.975794V0.817212L255.917 0.5L256.084 0.817212Z" fill="#ABCAEB" stroke="#7A98B5" stroke-linecap="round" stroke-linejoin="round"/>
<path d="M260.926 142.92L260.759 142.999L260.592 143.316L260.258 143.158L260.425 142.761L260.508 142.602L260.759 142.682L260.926 142.92Z" fill="#ABCAEB" stroke="#7A98B5" stroke-linecap="round" stroke-linejoin="round"/>
<path d="M264.598 136.734L264.515 136.814L264.682 137.131H264.932L265.266 136.972L265.183 137.448L265.016 137.607L264.932 137.924L264.515 138.162L264.181 138.003V137.924L263.93 137.686L264.014 137.527L263.847 137.369L263.93 137.052L263.847 136.734H263.93L264.264 136.814L264.598 136.734Z" fill="#ABCAEB" stroke="#7A98B5" stroke-linecap="round" stroke-linejoin="round"/>
<path d="M262.345 133.325L262.178 133.721V134.038L262.011 134.276L262.261 134.435L262.428 134.514L262.512 134.673L262.428 134.831L262.679 135.148H262.512L262.345 135.545L262.178 135.704L261.927 135.624L261.76 135.386L261.677 135.228L261.176 135.148L260.926 134.752V134.593L260.842 134.355H261.093L261.343 134.197L261.677 133.959L261.76 133.721L261.427 133.562L261.093 133.642L261.26 133.325L261.51 133.245L261.677 133.325L262.011 133.087L262.345 133.325Z" fill="#ABCAEB" stroke="#7A98B5" stroke-linecap="round" stroke-linejoin="round"/>
<path d="M259.507 132.056L259.256 132.532L259.173 132.77H259.423L259.006 133.166L258.839 133.325L258.755 133.166L259.006 132.849L259.173 132.452L259.507 132.056Z" fill="#ABCAEB" stroke="#7A98B5" stroke-linecap="round" stroke-linejoin="round"/>
<path d="M259.507 132.057L259.34 131.739H259.674L259.757 132.057H259.507Z" fill="#ABCAEB" stroke="#7A98B5" stroke-linecap="round" stroke-linejoin="round"/>
<path d="M247.904 130.153L248.071 130.232L248.489 130.946L248.739 131.184L248.989 131.104L249.156 130.866L249.908 131.263L250.158 131.659L250.742 132.135L250.993 132.452L251.076 132.69L251.41 133.007L251.494 133.166H251.66L251.911 133.404L252.662 133.562L252.746 133.8V134.118L252.996 134.435L253.33 134.514L253.08 134.911L253.163 135.069L253.497 135.466H253.58L253.914 135.862L253.831 136.179L254.415 136.338L254.749 136.734H254.999L255.25 136.893L255.667 137.21L255.584 137.448H255.834L256.168 137.845L256.669 138.162V138.32L256.919 138.4L257.169 138.638V138.796L257.42 139.272L257.754 139.589L257.837 139.51L258.171 139.986L258.588 140.065L258.839 140.303V140.62L258.922 140.937L259.006 141.017L258.839 141.492L258.255 141.81L258.171 141.572L257.921 141.651L257.67 141.889L257.169 141.254H256.836L256.752 141.096H256.585L256.418 141.334L255.667 140.62H255.5L255.166 140.224L255.25 139.589H254.999H254.665L254.415 139.431L254.332 139.272L254.165 139.193H253.914V138.955L253.747 138.558L253.413 138.638L252.746 138.241L252.662 138.082V137.845L252.412 138.003L251.911 137.765L251.827 137.448L251.494 137.21L251.327 136.814L250.909 136.734L251.076 136.576L250.826 136.338L250.575 136.259L250.325 135.704V135.386L250.158 135.148H249.908L249.741 134.673L249.824 134.514L249.24 134.197L248.989 134.038L248.656 133.562L248.906 133.404L248.739 133.245L248.572 133.007V132.611L248.155 132.373V131.897L247.988 131.659H248.238L248.322 131.421L248.238 131.263H247.737L247.57 131.025L247.988 130.47L247.737 130.232L247.904 130.153Z" fill="#ABCAEB" stroke="#7A98B5" stroke-linecap="round" stroke-linejoin="round"/>
<path d="M248.822 130.391L248.572 130.311L248.655 129.994L248.822 130.391Z" fill="#ABCAEB" stroke="#7A98B5" stroke-linecap="round" stroke-linejoin="round"/>
<path d="M246.903 128.487L246.736 128.646L246.652 128.329L246.819 128.17L246.903 128.487Z" fill="#ABCAEB" stroke="#7A98B5" stroke-linecap="round" stroke-linejoin="round"/>
<path d="M275.783 30.6333H275.616L275.533 30.3954H275.783V30.6333Z" fill="#ABCAEB" stroke="#7A98B5" stroke-linecap="round" stroke-linejoin="round"/>
<path d="M270.608 86.8558L270.858 87.0144L270.775 87.3316H271.025V87.4902H270.358L270.107 87.0937L270.274 86.8558H270.608Z" fill="#ABCAEB" stroke="#7A98B5" stroke-linecap="round" stroke-linejoin="round"/>
<path d="M238.639 86.38H238.806L239.641 87.0144L240.058 87.2523L240.809 87.8074L240.726 88.0453H240.559L240.392 88.2039L240.225 87.966H240.142L239.975 87.8074L239.891 87.4902L239.557 87.4109V87.173L239.307 87.0937L239.223 87.173H239.056L238.305 86.8558L238.138 86.5386L238.389 86.2214L238.639 86.38Z" fill="#ABCAEB" stroke="#7A98B5" stroke-linecap="round" stroke-linejoin="round"/>
<path d="M269.44 85.1905L269.273 85.4285L269.022 85.2698V85.1112L269.273 84.9526L269.44 85.1905Z" fill="#ABCAEB" stroke="#7A98B5" stroke-linecap="round" stroke-linejoin="round"/>
<path d="M267.52 82.0979L267.603 82.1772H267.854L267.77 82.4944L267.353 82.653H267.102L266.768 82.7323L266.435 83.208L266.351 82.9702L266.101 83.0495L265.934 82.8909V82.653L266.351 82.5737V82.4151L266.602 82.0979L267.186 82.1772L267.52 82.0979Z" fill="#ABCAEB" stroke="#7A98B5" stroke-linecap="round" stroke-linejoin="round"/>
<path d="M245.567 79.8776L245.818 79.7982L246.318 80.0361L246.736 80.4326L246.986 80.6706H247.153L247.32 80.8291H247.487L247.737 81.067L247.988 80.9877L248.322 81.067L248.489 81.2256H248.822L249.073 81.1463L249.24 81.3842L249.407 82.0186L249.657 82.2565V82.653L249.49 82.8116L249.574 83.0495L249.24 82.8909L248.989 83.0495L248.739 82.9702L248.322 82.7323H248.155L247.654 82.5737L247.32 82.4944L247.153 82.2565L246.903 82.0979L246.652 82.0186L246.485 81.7807L246.151 81.6221L246.318 81.3049L246.235 80.9877V80.6706L246.068 80.5912L245.567 80.4326L245.317 80.512L245.233 80.3533L245.317 80.1155L245.4 79.8776H245.567Z" fill="#ABCAEB" stroke="#7A98B5" stroke-linecap="round" stroke-linejoin="round"/>
<path d="M248.906 77.1814L248.822 77.34V77.8951L248.656 77.7365V77.34L248.906 77.1814Z" fill="#ABCAEB" stroke="#7A98B5" stroke-linecap="round" stroke-linejoin="round"/>
<path d="M246.485 75.7541L246.736 76.4677L246.903 76.7849V77.1021L246.986 77.4986L246.819 77.7365L246.485 77.1814L246.402 77.4193L246.151 77.0228L246.235 76.2298L246.318 76.0712V75.8333L246.485 75.7541Z" fill="#ABCAEB" stroke="#7A98B5" stroke-linecap="round" stroke-linejoin="round"/>
<path d="M239.474 75.9127H239.724L239.975 75.8334L240.309 75.9127L240.392 75.8334H240.809H241.477L241.644 76.0712L241.894 76.1506L242.061 76.3884H242.228L242.395 76.4677L242.729 76.7849V77.2607H242.896L243.23 77.4193L243.313 77.6572V78.133L243.23 78.2123L242.646 78.3709L242.479 78.4502L242.145 78.3709L241.811 78.2123H241.477L241.394 78.0537L240.976 77.8158H240.475L240.058 77.8951H239.641L239.223 77.8158L238.973 77.6572L238.723 77.7365L238.472 77.4193L238.222 77.2607L237.971 76.6263L237.804 76.3092L237.971 76.1506L237.888 75.992V75.4369L237.971 75.199L238.472 74.9611L238.806 75.1197L239.14 75.5162L239.223 75.7541L239.474 75.9127Z" fill="#ABCAEB" stroke="#7A98B5" stroke-linecap="round" stroke-linejoin="round"/>
<path d="M241.394 74.0095L241.811 74.406L241.561 74.6439L241.31 74.4853V74.406L241.394 74.0095Z" fill="#ABCAEB" stroke="#7A98B5" stroke-linecap="round" stroke-linejoin="round"/>
<path d="M241.394 74.0095L241.227 74.3267H241.143L240.809 74.0888L240.559 74.1681L240.392 74.0888L240.308 73.9302L240.559 73.8509L240.726 73.6923L241.143 73.7716L241.394 74.0095Z" fill="#ABCAEB" stroke="#7A98B5" stroke-linecap="round" stroke-linejoin="round"/>
<path d="M235.885 73.613L235.968 73.7716L236.135 73.8509L235.968 74.1681L235.634 74.3267L235.384 74.0095L235.885 73.613Z" fill="#ABCAEB" stroke="#7A98B5" stroke-linecap="round" stroke-linejoin="round"/>
<path d="M228.79 72.1857L228.957 72.4235L228.873 72.6614L228.205 72.3443L228.623 72.1063L228.79 72.1857Z" fill="#ABCAEB" stroke="#7A98B5" stroke-linecap="round" stroke-linejoin="round"/>
<path d="M231.628 72.82L231.377 72.6614L231.461 72.4235L231.711 72.1856V72.5821L231.795 72.7407L231.628 72.82Z" fill="#ABCAEB" stroke="#7A98B5" stroke-linecap="round" stroke-linejoin="round"/>
<path d="M230.876 71.3927L231.043 71.3133H231.377V71.4719L231.043 71.7098L231.21 71.8684V72.1063L230.876 72.4235L230.709 72.5028L230.459 72.4235L230.125 72.1063L230.209 71.6306L230.459 71.5513L230.626 71.2341L230.876 71.1548V71.3927Z" fill="#ABCAEB" stroke="#7A98B5" stroke-linecap="round" stroke-linejoin="round"/>
<path d="M227.872 71.4719L227.705 71.5513L227.538 71.9478L227.872 72.3442L227.454 72.1856V72.027L227.371 71.7891L227.037 71.4719V71.3133L227.371 71.1548L227.454 70.9168L227.788 70.679L228.039 70.8376V71.1548L227.872 71.4719Z" fill="#ABCAEB" stroke="#7A98B5" stroke-linecap="round" stroke-linejoin="round"/>
<path d="M238.639 71.0755L238.806 71.2341L238.723 71.3927L238.556 71.3133L238.055 70.9168L238.222 70.5997L238.472 70.5204L238.639 70.679L238.556 70.9168L238.639 71.0755Z" fill="#ABCAEB" stroke="#7A98B5" stroke-linecap="round" stroke-linejoin="round"/>
<path d="M244.065 70.4411L244.399 71.0754L244.899 71.7098V71.9478L244.566 72.1063V72.5028V72.7407L244.649 72.8993H244.816L244.983 73.1372L245.4 73.4544L245.484 73.8509L245.567 74.0888L245.734 74.2474L245.567 74.406L245.818 74.6439L245.734 74.7232L245.818 75.1197L245.651 75.2782L245.901 75.5162L245.985 75.9127L246.151 76.3092V76.7849L246.068 76.8642L245.818 76.6263L245.567 76.2298V75.9919L245.317 75.6747L244.983 75.4369L244.733 75.199L244.315 74.7232L243.981 74.4853L243.731 73.7716L243.564 72.9786L243.397 72.4235V72.027L243.313 71.7098L243.647 71.3927L243.564 71.1548L243.147 70.5997L243.063 70.3618L243.147 70.2825L243.48 70.3618L243.647 70.4411L243.898 70.2032L244.065 70.4411Z" fill="#ABCAEB" stroke="#7A98B5" stroke-linecap="round" stroke-linejoin="round"/>
<path d="M226.786 70.2032L226.619 69.886L226.369 69.6481H226.703L226.786 70.2032Z" fill="#ABCAEB" stroke="#7A98B5" stroke-linecap="round" stroke-linejoin="round"/>
<path d="M226.703 69.4102L227.037 69.4895L227.12 69.5688L227.204 69.9653H227.037L226.87 69.6481L226.703 69.4102Z" fill="#ABCAEB" stroke="#7A98B5" stroke-linecap="round" stroke-linejoin="round"/>
<path d="M229.291 69.5688L229.207 69.8067H229.374H229.791L230.125 70.3618V70.5203L230.292 70.7583L230.376 71.1548L230.209 71.3133V71.5513L229.708 71.3927L229.541 71.2341H229.291L228.957 70.9962L228.873 70.8376L228.79 70.5997L229.124 70.679L228.873 70.0446L228.79 69.886L228.372 69.9653L228.205 70.0446H227.872L227.621 70.3618L227.287 70.2032V69.7274L227.454 69.5688H227.788V69.2516L228.122 68.7758L228.456 68.5379L228.706 68.3793L229.04 68.6172L229.207 68.9344L229.124 69.4895L229.291 69.5688Z" fill="#ABCAEB" stroke="#7A98B5" stroke-linecap="round" stroke-linejoin="round"/>
<path d="M224.366 69.5688H224.282L224.115 68.9344L224.199 68.6965V68.3793L224.366 68.4586L224.449 68.7758V69.3309L224.366 69.5688Z" fill="#ABCAEB" stroke="#7A98B5" stroke-linecap="round" stroke-linejoin="round"/>
<path d="M227.204 69.1723L226.953 69.3309L226.87 69.2516H226.536L226.286 69.0137L226.202 68.7758L226.119 68.5379L226.202 68.3L226.453 67.9829L226.87 67.8242L227.037 67.9829L227.287 68.3793V68.8551L227.204 69.1723Z" fill="#ABCAEB" stroke="#7A98B5" stroke-linecap="round" stroke-linejoin="round"/>
<path d="M224.7 66.3969L225.034 66.7934V66.8727L225.618 67.1899L225.535 67.4277L225.034 67.9828V68.2207L224.783 68.3V67.9828H224.616V67.6656L224.449 67.3484L224.199 67.1899L224.115 66.9519L224.199 66.714L224.366 66.5554L224.533 66.3969H224.7Z" fill="#ABCAEB" stroke="#7A98B5" stroke-linecap="round" stroke-linejoin="round"/>
<path d="M233.297 66.4762L233.548 66.6348L233.381 66.714L232.963 66.7934L232.88 66.5554L233.047 66.3969L233.297 66.4762Z" fill="#ABCAEB" stroke="#7A98B5" stroke-linecap="round" stroke-linejoin="round"/>
<path d="M234.048 66.4762L234.215 66.3969L234.632 66.6348L234.883 66.7141L235.05 66.8727L235.3 67.2691L235.551 67.3484L235.801 67.5864V67.8242L236.218 67.9035V68.1414L236.469 68.2207L236.719 68.1414L236.803 68.2207L237.137 68.3793L237.22 68.5379L237.47 68.4586L237.721 68.5379L237.804 68.7758L238.138 69.0137L238.389 69.2516L238.723 69.4895L239.557 70.2825L239.307 70.5997L239.557 70.9962L239.641 71.4719L239.39 71.3927L239.14 71.0755L238.556 70.4411L238.222 70.3618L237.804 70.0446L237.304 69.9653L237.22 69.7274L236.719 69.5688L236.302 69.1723H236.135L235.467 68.6965L235.05 68.4586V68.3L234.716 68.1414L234.549 67.9829L234.382 67.6656L234.048 67.4278L233.965 67.2691V66.9519L233.631 66.5554L233.464 66.4762V66.2383L234.048 66.4762Z" fill="#ABCAEB" stroke="#7A98B5" stroke-linecap="round" stroke-linejoin="round"/>
<path d="M232.796 66.0004L232.963 66.1589L233.13 66.0796L233.381 66.2383L233.297 66.3969L233.047 66.3175L232.796 66.0004Z" fill="#ABCAEB" stroke="#7A98B5" stroke-linecap="round" stroke-linejoin="round"/>
<path d="M229.04 65.5246H229.458L229.291 65.6836L229.04 65.6041V65.5246Z" fill="#ABCAEB" stroke="#7A98B5" stroke-linecap="round" stroke-linejoin="round"/>
<path d="M232.629 65.5246L232.462 65.9211L232.379 65.7625L232.629 65.5246Z" fill="#ABCAEB" stroke="#7A98B5" stroke-linecap="round" stroke-linejoin="round"/>
<path d="M230.376 65.8418L229.958 65.9211L229.791 65.7624L230.042 65.4453L230.292 65.5246L230.376 65.8418Z" fill="#ABCAEB" stroke="#7A98B5" stroke-linecap="round" stroke-linejoin="round"/>
<path d="M219.942 65.1281L220.109 65.366L219.942 65.5246L219.692 65.4453L219.608 65.366L219.942 65.1281Z" fill="#ABCAEB" stroke="#7A98B5" stroke-linecap="round" stroke-linejoin="round"/>
<path d="M221.194 63.6214L221.444 63.78L221.361 64.0179L220.777 64.1765L220.526 63.9386L220.777 63.4628L220.944 63.3835L221.194 63.6214Z" fill="#ABCAEB" stroke="#7A98B5" stroke-linecap="round" stroke-linejoin="round"/>
<path d="M222.613 62.9077V63.3042L222.446 63.1456V62.987L222.613 62.9077Z" fill="#ABCAEB" stroke="#7A98B5" stroke-linecap="round" stroke-linejoin="round"/>
<path d="M225.034 61.7183L225.284 61.7976L225.618 62.1941L225.868 62.3527L226.119 62.432L226.369 62.6699L227.037 62.987L227.371 63.3835V63.7007L227.454 64.1765L227.621 64.3351L227.872 64.573H228.039L228.122 64.8902L228.706 65.1281L229.04 65.0488L229.124 65.1281V65.366L228.873 65.4453L228.706 65.6832L228.289 65.5246L227.621 65.2074H227.204L226.953 64.8902L226.369 64.573L225.868 63.78L225.367 62.987L224.95 62.7492L224.366 62.1941V61.7976V61.639L224.616 61.4804L224.867 61.5597L225.034 61.7183Z" fill="#ABCAEB" stroke="#7A98B5" stroke-linecap="round" stroke-linejoin="round"/>
<path d="M274.782 130.946L274.364 130.787L274.531 130.47L274.949 130.391L275.115 130.708L275.032 130.866L274.782 130.946Z" fill="#ABCAEB" stroke="#7A98B5" stroke-linecap="round" stroke-linejoin="round"/>
<path d="M273.78 127.932H273.613L273.363 127.853L273.029 127.457L272.945 127.139V126.822L273.112 126.664L273.196 126.346L273.446 126.267H273.78L273.613 126.505V126.901L274.197 127.298L273.947 127.536L273.78 127.932Z" fill="#ABCAEB" stroke="#7A98B5" stroke-linecap="round" stroke-linejoin="round"/>
<path d="M273.78 123.254H274.03L274.114 123.412L273.696 123.492L273.78 123.73L274.114 123.888L274.197 124.126L274.114 124.443L273.78 124.522L273.446 124.285H273.112L272.945 124.126L272.695 123.967L272.778 123.65V123.412L272.945 123.016L273.196 122.699H273.613L273.78 122.778L273.696 123.095L273.78 123.254Z" fill="#ABCAEB" stroke="#7A98B5" stroke-linecap="round" stroke-linejoin="round"/>
<path d="M271.276 117.227L271.777 117.148L271.86 117.227L272.027 117.703L272.194 117.941L272.277 118.02L271.944 118.496L271.276 118.654L271.025 118.417L270.942 118.02L270.692 117.941L270.358 118.179L270.274 118.099L270.441 117.782L270.775 117.544L271.109 117.148L271.276 117.227Z" fill="#ABCAEB" stroke="#7A98B5" stroke-linecap="round" stroke-linejoin="round"/>
<path d="M273.196 114.134L273.112 113.896H273.363L273.196 114.134Z" fill="#ABCAEB" stroke="#7A98B5" stroke-linecap="round" stroke-linejoin="round"/>
<path d="M271.86 112.231L271.944 112.628V112.786L272.278 112.866L272.444 113.262H272.862V113.579L272.778 113.659L272.528 113.421L272.278 113.341L271.777 113.5L271.526 113.421L271.443 113.262L271.359 112.945L271.526 112.548L271.693 112.311L271.86 112.231Z" fill="#ABCAEB" stroke="#7A98B5" stroke-linecap="round" stroke-linejoin="round"/>
<path d="M272.611 112.073H272.528L272.444 111.835H272.611V112.073Z" fill="#ABCAEB" stroke="#7A98B5" stroke-linecap="round" stroke-linejoin="round"/>
<path d="M272.778 110.962L272.611 111.121H272.11L271.86 111.2L271.693 111.042L271.359 110.962L270.942 110.645L271.025 110.487L271.443 110.328L271.777 110.249L272.11 110.011L272.194 109.773H272.361L272.444 110.011V110.487L272.862 110.804L272.778 110.962Z" fill="#ABCAEB" stroke="#7A98B5" stroke-linecap="round" stroke-linejoin="round"/>
<path d="M268.855 109.932L269.022 110.169L269.523 110.487L270.107 111.042L270.191 111.121V111.438L270.358 111.676L270.107 111.835L269.773 112.152V111.993L269.523 111.914H269.189L269.022 111.993V112.152L268.688 112.311L268.438 112.231V111.676L268.354 111.2L268.438 110.725L268.521 110.328L268.354 109.932L267.853 110.169L267.687 110.011L267.603 109.773V109.535L267.853 109.297V108.98L267.937 108.742L268.187 108.663L268.688 108.901L268.605 109.059L268.772 109.456L268.688 109.614L268.855 109.932Z" fill="#ABCAEB" stroke="#7A98B5" stroke-linecap="round" stroke-linejoin="round"/>
<path d="M268.354 108.028H268.104L267.687 107.791V107.711L267.854 107.473L268.02 107.394L268.438 107.473L268.354 107.791V108.028Z" fill="#ABCAEB" stroke="#7A98B5" stroke-linecap="round" stroke-linejoin="round"/>
<path d="M267.937 107.236L268.271 106.998L268.355 107.077L268.438 107.316H268.021L267.937 107.236Z" fill="#ABCAEB" stroke="#7A98B5" stroke-linecap="round" stroke-linejoin="round"/>
<path d="M272.695 109.297L272.528 109.218L272.611 108.266L272.528 108.028L272.611 107.632L272.862 106.998L272.945 106.601L273.112 107.077L273.029 107.315V107.791V108.583L272.945 109.059L272.695 109.297Z" fill="#ABCAEB" stroke="#7A98B5" stroke-linecap="round" stroke-linejoin="round"/>
<path d="M271.61 106.68H271.025L270.775 106.601V106.442L271.526 105.887L271.944 105.729L272.361 105.649V105.808L272.111 106.125L271.944 106.363L271.61 106.68Z" fill="#ABCAEB" stroke="#7A98B5" stroke-linecap="round" stroke-linejoin="round"/>
<path d="M273.196 106.125V106.284H272.945L273.029 106.046L273.196 105.015V104.936L273.279 103.984L273.446 104.064L273.363 105.094L273.446 105.332L273.363 105.729L273.196 106.125Z" fill="#ABCAEB" stroke="#7A98B5" stroke-linecap="round" stroke-linejoin="round"/>
<path d="M267.937 107.235L267.186 107.156L266.685 107.394L266.602 107.553H266.435L266.351 107.077L266.184 106.998L265.85 106.205L266.184 105.57V105.253L266.101 105.094V103.984L266.017 103.746V103.35L266.184 103.112V102.874L266.351 102.636V102.478L266.602 102.398L266.685 102.795L266.852 103.112L267.019 103.35L267.102 104.381L267.019 105.015V105.094L267.52 105.015L267.77 104.777L267.937 104.143V103.984L268.188 103.826L268.438 103.905L268.354 104.222V104.936L268.605 105.015V105.412L268.438 105.491L268.688 105.808L268.521 105.967V106.363L268.688 106.76L268.605 106.918H268.354L267.937 107.235Z" fill="#ABCAEB" stroke="#7A98B5" stroke-linecap="round" stroke-linejoin="round"/>
<path d="M271.443 99.8607L271.777 100.099L271.693 100.416L271.443 100.654L271.276 100.812H270.775V100.495L270.858 100.178L271.025 99.94L271.443 99.8607Z" fill="#ABCAEB" stroke="#7A98B5" stroke-linecap="round" stroke-linejoin="round"/>
<path d="M271.944 98.3541L271.693 98.5127L271.526 98.592V98.7506L271.359 98.8299V98.592L271.192 98.4334L271.109 98.1955L271.192 97.8783L271.359 97.799L271.693 97.6404L271.777 97.799L271.86 98.1162V98.1955L271.944 98.3541Z" fill="#ABCAEB" stroke="#7A98B5" stroke-linecap="round" stroke-linejoin="round"/>
<path d="M267.77 95.0235L267.687 94.9443L267.77 94.5478L267.937 94.7063L267.77 95.0235Z" fill="#ABCAEB" stroke="#7A98B5" stroke-linecap="round" stroke-linejoin="round"/>
<path d="M322.61 125.474L322.359 125.553L322.443 125.236L322.61 125.474Z" fill="#ABCAEB" stroke="#7A98B5" stroke-linecap="round" stroke-linejoin="round"/>
<path d="M316.349 124.205L316.516 124.364L316.767 124.443V124.681L316.349 124.84L315.932 124.602L315.515 124.84H315.264L315.097 125.078L315.181 125.315L314.847 125.236L314.763 125.395L314.43 125.315L314.346 125.395L314.012 125.236L314.263 125.157L314.43 125.078L314.597 124.919L314.93 124.998L315.181 124.76L315.348 124.522L315.765 124.443L316.183 124.205H316.349Z" fill="#ABCAEB" stroke="#7A98B5" stroke-linecap="round" stroke-linejoin="round"/>
<path d="M317.101 124.126L316.934 124.206L316.767 124.126L316.934 123.967L317.101 124.126Z" fill="#ABCAEB" stroke="#7A98B5" stroke-linecap="round" stroke-linejoin="round"/>
<path d="M322.025 119.289L322.109 119.685L321.942 120.161L321.858 120.002L321.775 119.685H321.608L321.691 119.289L321.858 119.21L322.025 119.289Z" fill="#ABCAEB" stroke="#7A98B5" stroke-linecap="round" stroke-linejoin="round"/>
<path d="M319.855 118.179H319.772L319.688 117.861L319.855 117.703L320.189 117.624V117.941L320.022 118.099L319.855 118.179Z" fill="#ABCAEB" stroke="#7A98B5" stroke-linecap="round" stroke-linejoin="round"/>
<path d="M318.019 116.196L317.935 116.513L318.186 116.672L318.269 116.91L318.52 117.227L318.77 117.306L318.854 117.544H319.021L319.104 117.861L318.854 118.258L318.937 118.417L319.021 118.813L318.77 118.972V119.368H318.937L319.021 119.765L318.77 120.003L318.269 120.161L318.186 120.003L317.935 120.082L317.852 120.24L317.601 120.003L316.934 120.24L316.266 120.795L316.016 120.716L315.682 120.875L315.431 120.795L314.93 120.875L314.68 120.716L313.929 120.478L313.678 120.399L313.178 120.32L313.011 120.24L312.593 120.082L312.426 119.289L312.677 118.734H312.927L313.178 118.654L313.261 118.258L313.511 118.179L313.595 117.861L313.428 117.703L313.929 117.386L314.263 116.989L314.346 117.068L314.847 116.672H315.014L315.765 116.355L316.266 116.513L316.516 116.434L316.934 116.275L317.435 116.196L317.685 115.958L318.019 116.196Z" fill="#ABCAEB" stroke="#7A98B5" stroke-linecap="round" stroke-linejoin="round"/>
<path d="M323.277 116.355L323.11 116.434L323.277 115.72H323.611L323.528 116.038L323.277 116.355Z" fill="#ABCAEB" stroke="#7A98B5" stroke-linecap="round" stroke-linejoin="round"/>
<path d="M313.762 114.769L313.595 115.007L313.178 115.245V115.007L313.511 114.689L313.762 114.769Z" fill="#ABCAEB" stroke="#7A98B5" stroke-linecap="round" stroke-linejoin="round"/>
<path d="M327.034 110.487L326.7 110.804L326.032 111.676L325.781 111.755L325.197 112.073L325.03 112.548L324.696 112.707L324.529 112.945L324.446 113.104L324.696 113.183L325.197 112.945L325.281 112.866L325.531 112.628L325.698 112.39L326.199 112.152L326.449 111.914L326.95 111.676V111.914L326.533 112.469L326.366 112.548L326.449 113.024L326.199 113.262L325.948 113.024H325.614L325.197 113.104L324.863 113.341L324.279 113.421H323.444L323.862 113.024L323.528 112.866L323.027 113.024L322.693 113.183V113.341L322.443 113.421L322.276 113.5L322.192 113.817L322.025 114.055L321.775 113.976V113.817L321.441 113.738L321.107 113.897L320.94 114.293L320.69 114.452H320.439V114.214V113.897L320.273 113.579L320.356 113.421L320.273 113.341L319.772 113.5V113.183L320.106 112.945H320.189L320.106 112.548L320.356 112.469L320.773 112.707L321.274 112.39H321.441L321.691 112.152H321.858L322.109 111.914V111.755L322.777 111.676L323.528 111.438L323.778 111.359L324.112 111.438L324.529 111.28L324.696 110.962H324.863L325.03 110.645L325.364 110.725L325.448 110.566L325.614 110.645L326.449 110.249L326.533 110.487L326.7 110.407L326.867 110.487L327.117 110.249L327.534 110.09L327.618 110.169L327.2 110.487H327.034Z" fill="#ABCAEB" stroke="#7A98B5" stroke-linecap="round" stroke-linejoin="round"/>
</svg>
